<svg width="227" height="135" viewBox="0 0 227 135" fill="none" xmlns="http://www.w3.org/2000/svg">
<path fill-rule="evenodd" clip-rule="evenodd" d="M63.9614 48.9078C63.8863 51.1679 64.1762 53.4255 64.82 55.5947C65.48 57.4521 66.2974 59.2507 67.2634 60.9711C67.5854 61.4841 67.7675 62.0713 67.792 62.6752C67.7485 63.1355 67.5936 63.5786 67.3405 63.9668C67.0874 64.355 66.7437 64.6767 66.3385 64.9047L61.5835 68.0509C60.998 68.4494 60.3115 68.6766 59.6022 68.7065C59.1759 68.6917 58.7571 68.5911 58.3712 68.4109C57.9853 68.2307 57.6402 67.9745 57.357 67.658C56.3079 66.6198 55.3977 65.452 54.649 64.1832C53.9001 62.9174 53.1295 61.4533 52.3375 59.7909C46.437 66.6973 39.0403 70.1502 30.1473 70.1494C23.8069 70.1494 18.7876 68.3573 15.0893 64.7729C11.3906 61.1899 9.54128 56.3822 9.54128 50.3499C9.54128 43.9704 11.8309 38.8349 16.4102 34.9435C20.9875 31.0554 27.1515 29.1105 34.9023 29.1091C37.5766 29.118 40.2469 29.3151 42.8931 29.6988C45.6675 30.0924 48.5514 30.6387 51.5451 31.3378V25.8311C51.5451 20.1499 50.3564 16.1507 47.9789 13.8336C45.6012 11.5186 41.5065 10.3604 35.6947 10.3592C32.9575 10.3706 30.231 10.7007 27.5712 11.3426C24.8039 11.996 22.0888 12.8506 19.4478 13.8995C18.5908 14.2867 17.7082 14.6153 16.806 14.8828C16.4186 14.9919 16.02 15.0578 15.6178 15.0793C14.5609 15.0793 14.0324 14.2926 14.0324 12.7192V9.048C13.9605 8.14215 14.1435 7.23432 14.5609 6.42563C15.1243 5.73667 15.8501 5.19622 16.6741 4.85212C19.7185 3.39585 22.9054 2.25354 26.1847 1.44323C30.0246 0.464181 33.9754 -0.0206702 37.9398 0.000675184C46.9221 0.000675184 53.5045 2.03304 57.6872 6.09783C61.8688 10.1623 63.9601 16.303 63.9614 24.5199V48.9078ZM33.3169 60.3155C35.9729 60.2822 38.6056 59.817 41.1101 58.9385C43.8729 57.9986 46.3345 56.347 48.2429 54.1525C49.4634 52.7768 50.3451 51.1384 50.8183 49.3665C51.3413 47.2433 51.5856 45.0619 51.5451 42.8765V39.7295C49.2579 39.1905 46.943 38.7748 44.6105 38.4841C42.2671 38.1838 39.9069 38.0306 37.544 38.0254C32.5245 38.0254 28.782 39.0305 26.3167 41.0407C23.8504 43.0528 22.6175 45.9374 22.618 49.6944C22.618 53.1918 23.5426 55.8361 25.3916 57.6273C27.2411 59.4199 29.8828 60.316 33.3169 60.3155Z" fill="white"/>
<path d="M93.9447 68.4446C92.9228 68.5258 91.9021 68.2724 91.039 67.7231C90.2328 66.9137 89.6818 65.8885 89.4536 64.7729L71.7545 6.81892C71.4171 5.84258 71.1955 4.83055 71.0941 3.80326C71.0581 3.55393 71.0811 3.29973 71.1613 3.06073C71.2415 2.82178 71.3766 2.60458 71.556 2.42646C71.7354 2.24835 71.9541 2.11409 72.1948 2.03444C72.4355 1.95479 72.6916 1.93182 72.9428 1.96743H80.3402C81.3842 1.87022 82.4309 2.12416 83.3121 2.68852C84.0748 3.5195 84.5991 4.53826 84.8305 5.6387L97.5114 55.2018L109.267 5.6387C109.617 4.15337 110.102 3.16999 110.72 2.68852C111.628 2.13061 112.693 1.87776 113.758 1.96743H119.834C120.898 1.8783 121.963 2.13111 122.872 2.68852C123.486 3.16999 123.971 4.15337 124.325 5.6387L136.212 55.8573L149.289 5.6387C149.518 4.5374 150.043 3.5181 150.808 2.68852C151.689 2.12339 152.736 1.86936 153.78 1.96743H160.78C161.031 1.93196 161.288 1.95493 161.528 2.03467C161.769 2.11436 161.988 2.24857 162.167 2.42665C162.347 2.60477 162.482 2.82187 162.562 3.06078C162.642 3.29969 162.665 3.55389 162.63 3.80326C162.624 4.19985 162.58 4.59494 162.498 4.98308C162.358 5.60472 162.181 6.21768 161.969 6.81892L143.742 64.7729C143.512 65.8879 142.961 66.9128 142.156 67.7231C141.293 68.2721 140.273 68.5255 139.251 68.4446H132.778C131.704 68.5399 130.63 68.2619 129.74 67.658C128.961 66.8206 128.455 65.7695 128.287 64.642L116.531 16.3905L104.908 64.642C104.739 65.7689 104.233 66.8195 103.455 67.658C102.565 68.2614 101.491 68.5393 100.417 68.4446H93.9447Z" fill="white"/>
<path d="M179.272 69.1001C183.084 69.9766 186.984 70.4165 190.896 70.4113C194.514 70.4461 198.118 69.9603 201.595 68.9692C204.636 68.1171 207.484 66.6925 209.983 64.7729C212.274 62.9885 214.144 60.7288 215.464 58.1519C216.815 55.4437 217.495 52.4541 217.446 49.4324C217.494 45.6456 216.261 41.9523 213.945 38.9429C211.611 35.8847 207.715 33.4809 202.256 31.7314L191.557 28.3225C187.505 27.0111 184.731 25.6343 183.235 24.1921C182.508 23.5114 181.933 22.6873 181.547 21.7728C181.16 20.8582 180.97 19.8735 180.99 18.8819C180.99 15.8231 182.179 13.594 184.556 12.1946C186.933 10.7961 190.279 10.0969 194.595 10.0969C199.59 10.0219 204.543 11.0053 209.124 12.9816C210.025 13.47 211.011 13.7816 212.03 13.8995C213.175 13.8993 213.748 13.1125 213.748 11.539V7.99915C213.794 7.1206 213.564 6.2495 213.087 5.50774C212.472 4.75081 211.708 4.1262 210.841 3.6719C209.826 3.14264 208.765 2.70386 207.671 2.36071C206.349 1.92428 204.918 1.531 203.378 1.1809C201.838 0.831789 200.209 0.54762 198.491 0.32848C196.805 0.11277 195.106 0.00329259 193.406 0.000675184C190.189 -0.016699 186.986 0.424875 183.895 1.31186C181.058 2.10895 178.393 3.42036 176.037 5.17993C173.826 6.84501 171.983 8.9424 170.621 11.3426C169.219 13.893 168.513 16.7633 168.574 19.6684C168.576 23.6103 169.901 27.4391 172.338 30.5512C174.848 33.8733 178.877 36.4084 184.424 38.1564L195.387 41.5653C199.084 42.7902 201.616 44.1014 202.982 45.4988C203.659 46.1933 204.188 47.0151 204.54 47.9158C204.891 48.8166 205.058 49.778 205.029 50.7436C205.076 52.1616 204.739 53.5661 204.054 54.8111C203.368 56.0563 202.36 57.0966 201.133 57.8241C198.535 59.4851 194.859 60.3155 190.104 60.3155C187.086 60.3133 184.077 60.0057 181.122 59.3972C178.26 58.8285 175.469 57.9491 172.801 56.7749C172.006 56.4269 171.368 56.1647 170.885 55.9883C170.442 55.8217 169.973 55.733 169.499 55.7264C168.354 55.7264 167.781 56.5129 167.781 58.0861V61.8887C167.75 62.7867 168 63.6722 168.497 64.4235C168.994 65.1747 169.713 65.7549 170.555 66.0841C173.308 67.4808 176.241 68.4957 179.272 69.1001Z" fill="white"/>
<path d="M205.172 106.847C180.321 125.052 144.293 134.733 113.269 134.733C69.7891 134.733 30.634 118.778 1.00493 92.2212C-1.32158 90.1349 0.753119 87.2875 3.55004 88.9023C35.5174 107.368 75.05 118.488 115.88 118.488C145.316 118.345 174.434 112.43 201.56 101.084C205.761 99.3146 209.283 103.831 205.172 106.847Z" fill="white"/>
<path d="M215.514 95.1268C212.337 91.0913 194.533 93.2094 186.511 94.1637L186.492 94.166C184.065 94.4548 183.689 92.3493 185.876 90.8252C200.102 80.9074 223.41 83.7704 226.119 87.0918C228.848 90.4406 225.402 113.639 212.072 124.709C210.021 126.411 208.07 125.503 208.98 123.255C211.98 115.818 218.695 99.1696 215.514 95.1268Z" fill="white"/>
</svg>
