<svg width="66" height="42" viewBox="0 0 66 42" fill="none" xmlns="http://www.w3.org/2000/svg">
<path fill-rule="evenodd" clip-rule="evenodd" d="M22 8.01055C27.3007 1.86871 33.9843 -1.88115 43 0.972463L37.9375 7.53106C35.2639 12.0719 32.3869 17.4277 28.6816 24.158C26.8007 27.6589 24.5613 30.9546 22 33.99C16.7051 40.12 10.0098 43.8887 1 41.0232L6.06348 34.4939C8.7374 29.9415 11.6126 24.5791 15.3174 17.8426C17.203 14.3444 19.4428 11.0493 22 8.01055ZM30.8721 7.88945C29.2325 9.01756 27.7559 10.3679 26.4844 11.9012C24.1977 14.6288 22.1945 17.5847 20.5078 20.7215L17.9238 25.4402C16.1694 28.6359 14.6029 31.493 13.1328 34.0994C14.7726 32.9714 16.2501 31.6212 17.5215 30.0877C19.8114 27.3682 21.812 24.4152 23.4912 21.2791L26.0342 16.6492C27.8008 13.412 29.3901 10.5197 30.8721 7.88945Z" fill="#E682B4"/>
<path fill-rule="evenodd" clip-rule="evenodd" d="M44 8.01055C49.3007 1.86871 55.9843 -1.88115 65 0.972463L59.9375 7.53106C57.2639 12.0719 54.3869 17.4277 50.6816 24.158C48.8007 27.6589 46.5613 30.9546 44 33.99C38.7051 40.12 32.0098 43.8887 23 41.0232L28.0635 34.4939C30.7374 29.9415 33.6126 24.5791 37.3174 17.8426C39.203 14.3444 41.4428 11.0493 44 8.01055ZM52.8721 7.88945C51.2325 9.01756 49.7559 10.3679 48.4844 11.9012C46.1977 14.6288 44.1945 17.5847 42.5078 20.7215L39.9238 25.4402C38.1694 28.6359 36.6029 31.493 35.1328 34.0994C36.7726 32.9714 38.2501 31.6212 39.5215 30.0877C41.8114 27.3682 43.812 24.4152 45.4912 21.2791L48.0342 16.6492C49.8008 13.412 51.3901 10.5197 52.8721 7.88945Z" fill="#E682B4"/>
<path d="M66 18.1287C65.4785 18.9781 64.9804 19.8426 64.5078 20.7215L61.9238 25.4402C60.1694 28.6359 58.6029 31.493 57.1328 34.0994C58.7726 32.9714 60.2501 31.6212 61.5215 30.0877C63.1684 28.1319 64.6644 26.0543 66 23.8758V33.99L65.499 34.5574C60.2839 40.3487 53.7282 43.7992 45 41.0232L50.0635 34.4939C52.7374 29.9415 55.6126 24.5791 59.3174 17.8426C61.0852 14.5629 63.1643 11.4616 65.5244 8.58281L66 8.01055V18.1287Z" fill="#E682B4"/>
<path d="M0 8.01055C5.30067 1.86871 11.9843 -1.88115 21 0.972463L15.9375 7.53106C13.2639 12.0719 10.3869 17.4277 6.68164 24.158C4.80073 27.6589 2.56132 30.9546 0 33.99V23.8758C0.521498 23.0252 1.01967 22.1598 1.49121 21.2791L4.03418 16.6492C5.80081 13.412 7.39008 10.5197 8.87207 7.88945C7.23251 9.01756 5.75591 10.3679 4.48438 11.9012C2.83834 13.8646 1.33986 15.9465 0 18.1287V8.01055Z" fill="#E682B4"/>
</svg>
