<svg width="976" height="432" viewBox="0 0 976 432" fill="none" xmlns="http://www.w3.org/2000/svg">
<path d="M0.411546 64.7737C0.109777 55.3497 2.02395 45.9863 6.0001 37.4368C9.97625 28.8872 15.9034 21.3902 23.3048 15.5486C37.2758 4.95805 54.4583 -0.516946 71.9809 0.0384542C82.7732 0.134461 93.5017 1.70651 103.868 4.71097C105.469 5.29572 107.171 5.5549 108.874 5.47326C109.084 11.0219 109.895 20.0998 111.305 32.7068C111.027 33.0105 110.686 33.2486 110.304 33.4039C109.923 33.5591 109.512 33.6275 109.101 33.6043C108.157 33.7204 107.201 33.5245 106.378 33.0464C105.888 29.7041 104.924 26.4486 103.517 23.3777C101.947 20.0124 99.7169 16.9972 96.9582 14.5117C93.8622 11.6032 90.1853 9.38349 86.1695 7.99848C80.794 6.32286 75.1826 5.52892 69.5532 5.64757C62.996 5.44854 56.4646 6.55532 50.339 8.9035C44.2135 11.2517 38.6159 14.7944 33.872 19.3256C23.8625 28.4439 18.6992 42.7099 18.382 62.1237C18.531 81.7219 23.7426 96.6998 34.0168 107.057C38.7848 112.24 44.6021 116.347 51.0812 119.106C57.5604 121.865 64.5529 123.212 71.5933 123.057C76.8247 123.197 82.0314 122.291 86.9086 120.394C90.8795 118.881 94.552 116.679 97.7569 113.889C100.673 111.394 103.179 108.457 105.184 105.185C106.823 102.436 108.219 99.5492 109.355 96.5572C109.738 96.2653 110.184 96.0656 110.657 95.9733C111.13 95.881 111.617 95.8987 112.082 96.0249C112.499 96.055 112.899 96.1987 113.24 96.4405C113.58 96.6822 113.848 97.0127 114.014 97.3961C113.408 102.469 112.175 107.447 110.343 112.215C109.156 115.974 107.454 119.55 105.286 122.841C103.107 123.188 100.979 123.802 98.9512 124.67C95.2235 125.717 91.432 126.522 87.6004 127.079C81.966 128.073 76.26 128.606 70.5391 128.673C54.7061 128.902 39.1492 124.515 25.7683 116.048C17.7782 110.125 11.3117 102.386 6.90273 93.4703C2.49376 84.5548 0.268785 74.7188 0.411546 64.7737Z" fill="url(#paint0_linear_408_3309)"/>
<path d="M291.454 31.7445C291.906 25.4339 291.459 19.091 290.126 12.9064C288.791 9.80837 285.365 8.24696 279.85 8.22214L275.362 7.7473C275.095 7.40598 274.908 7.00881 274.816 6.58543C274.724 6.16204 274.728 5.72334 274.829 5.30195C274.834 4.19686 275.134 3.52898 275.732 3.29834C284.973 3.70158 292.754 3.91733 299.075 3.9456C305.452 3.97328 312.825 3.8239 321.195 3.49744C321.789 3.73274 322.145 4.4041 322.262 5.51157C322.306 5.94746 322.264 6.38785 322.137 6.80736C322.011 7.22688 321.803 7.61727 321.525 7.95601L317.222 8.37329C312.186 8.35204 309.047 9.88576 307.804 12.9745C306.273 19.1271 305.712 25.4815 306.144 31.8073L305.861 96.6118C305.772 100.991 305.988 105.371 306.508 109.72C306.792 112.315 307.854 114.762 309.555 116.742C311.08 118.112 312.917 119.088 314.905 119.587C316.757 120.024 318.635 120.337 320.529 120.523C323.376 120.995 326.258 121.22 329.143 121.197C334.431 121.356 339.723 121.106 344.972 120.447C347.112 120.319 349.207 119.772 351.136 118.835C356.799 113.963 360.947 107.568 363.087 100.41C363.969 99.9137 365.012 99.7877 365.987 100.06C366.924 100.307 367.449 100.793 367.563 101.517C367.429 102.833 367.188 104.135 366.843 105.412C366.249 107.767 365.595 110.362 364.88 113.198C363.552 118.074 361.886 122.851 359.896 127.496C355.269 127.233 348.972 127.085 341.005 127.051C333.214 126.894 324.603 126.796 315.172 126.756L298.566 126.684C292.121 126.656 284.33 126.803 275.194 127.126C274.888 126.864 274.649 126.533 274.495 126.161C274.341 125.789 274.277 125.386 274.308 124.984C274.229 124.568 274.238 124.14 274.333 123.727C274.428 123.314 274.607 122.925 274.86 122.585L280.236 122.073C285.28 121.851 288.425 120.257 289.671 117.289C291.057 111.237 291.559 105.016 291.161 98.8196L291.454 31.7445Z" fill="url(#paint1_linear_408_3309)"/>
<path d="M398.389 28.4568C398.607 23.8726 398.212 19.2797 397.214 14.8001C396.565 13.4449 395.543 12.3027 394.268 11.5074C392.993 10.7121 391.518 10.2965 390.015 10.3096L386.055 9.74644C385.701 9.46118 385.419 9.09671 385.232 8.68247C385.045 8.26823 384.958 7.81582 384.978 7.3617C384.965 6.92523 385.079 6.49441 385.304 6.12067C385.53 5.74692 385.859 5.44607 386.251 5.25404C401.379 4.32575 416.446 3.89422 431.454 3.95949C444.852 3.68585 458.206 5.58265 470.997 9.57631C482.285 13.6094 491.946 21.2181 498.513 31.2455C504.546 41.3269 507.605 52.9091 507.337 64.6548C507.678 75.907 504.894 87.0336 499.294 96.7996C493.695 106.566 485.499 114.589 475.615 119.979C463.024 126.03 449.182 129.023 435.216 128.713C429.354 128.566 423.845 128.3 418.689 127.916C413.415 127.408 409.136 127.147 405.852 127.133C398.76 127.102 391.256 127.251 383.34 127.58C383.035 127.318 382.795 126.987 382.641 126.615C382.488 126.243 382.424 125.84 382.454 125.438C382.376 125.022 382.384 124.593 382.48 124.18C382.575 123.767 382.755 123.378 383.008 123.037L387.149 122.52C392.195 122.179 395.342 120.525 396.59 117.556C397.971 111.564 398.473 105.403 398.079 99.2669L398.389 28.4568ZM412.787 95.053C412.026 102.02 413.247 109.061 416.309 115.366C419.988 120.721 427.376 123.301 438.474 123.107C455.914 123.063 468.798 117.719 477.125 107.075C485.758 94.7907 490.068 79.9871 489.377 64.9884C489.341 59.1335 488.658 53.3005 487.339 47.596C485.701 41.1056 482.859 34.9804 478.961 29.5382C474.478 23.4815 468.611 18.5866 461.848 15.2629C452.691 11.297 442.783 9.35984 432.806 9.5844C430.279 9.57371 427.988 9.62443 425.933 9.73659C424.133 9.81789 422.339 9.99238 420.557 10.2593C418.603 10.4837 416.714 11.0946 414.999 12.0564C413.641 13.204 413.004 17.934 413.087 26.2465L412.787 95.053Z" fill="url(#paint2_linear_408_3309)"/>
<path d="M557.764 99.9698C557.229 106.126 557.829 112.328 559.535 118.267C560.698 121.245 564.04 122.927 569.562 123.314L574.406 123.873C574.695 124.163 574.918 124.512 575.058 124.897C575.197 125.282 575.251 125.693 575.215 126.1C575.195 126.547 575.08 126.985 574.876 127.383C574.673 127.782 574.386 128.132 574.035 128.409C564.72 128.012 556.929 127.801 550.661 127.775C543.571 127.744 536.247 127.89 528.69 128.213C528.384 127.951 528.145 127.62 527.991 127.248C527.837 126.877 527.773 126.474 527.804 126.073C527.725 125.656 527.734 125.227 527.829 124.814C527.924 124.401 528.104 124.012 528.358 123.672L532.148 123.151C537.194 122.81 540.34 121.155 541.586 118.186C542.968 112.195 543.469 106.034 543.075 99.8983L543.375 31.0909C543.724 25.7904 543.393 20.4671 542.389 15.2507C541.401 12.6381 538.942 11.2616 535.011 11.1212L528.5 10.3663C528.003 9.6081 527.753 8.71429 527.785 7.80809C527.75 7.41393 527.835 7.01832 528.028 6.67329C528.222 6.32827 528.516 6.04999 528.871 5.87504C540.744 4.81593 552.665 4.36962 564.584 4.5379C576.574 3.82881 588.527 6.45737 599.113 12.1315C603.744 15.1101 607.5 19.2663 609.995 24.1744C612.491 29.0825 613.636 34.5658 613.315 40.0625C613.639 47.0675 611.495 53.9641 607.257 59.551C605.579 61.7526 603.655 63.7547 601.521 65.5181C599.517 67.0338 597.397 68.39 595.18 69.5743C587.39 73.196 578.894 75.0498 570.303 75.0026C570.009 74.7743 569.774 74.4786 569.618 74.1404C569.463 73.8023 569.391 73.4316 569.409 73.0598C569.37 72.741 569.417 72.4175 569.546 72.1233C569.675 71.8291 569.88 71.5749 570.141 71.3873C578.198 70.3552 585.606 66.4339 590.99 60.3517C595.021 54.3953 597.057 47.3138 596.807 40.1263C596.775 20.7281 587.153 10.7436 567.942 10.1727C565.104 9.89715 562.241 10.259 559.561 11.2319C558.498 12.0783 558.021 13.9307 558.128 16.7892L557.764 99.9698Z" fill="url(#paint3_linear_408_3309)"/>
<path d="M648.912 33.2688C649.364 26.9585 648.917 20.616 647.583 14.4317C646.248 11.3326 642.822 9.7708 637.305 9.74636L632.817 9.27161C632.55 8.93044 632.364 8.53344 632.272 8.11021C632.179 7.68699 632.184 7.24841 632.285 6.82717C632.289 5.72207 632.59 5.05386 633.188 4.82251C642.43 5.22604 650.212 5.44183 656.532 5.46981C662.909 5.4975 670.283 5.34807 678.653 5.02161C679.247 5.25686 679.602 5.92828 679.719 7.03578C679.764 7.47168 679.721 7.91202 679.595 8.33153C679.469 8.75105 679.26 9.14144 678.983 9.48018L674.679 9.89855C669.644 9.87623 666.505 11.4096 665.262 14.4987C663.73 20.6517 663.17 27.0064 663.601 33.3326L663.318 98.1371C663.229 102.516 663.445 106.896 663.965 111.246C664.25 113.84 665.312 116.287 667.012 118.267C668.538 119.636 670.374 120.612 672.363 121.111C674.214 121.549 676.093 121.861 677.986 122.047C680.833 122.519 683.715 122.744 686.601 122.722C691.888 122.882 697.181 122.631 702.429 121.971C704.57 121.843 706.664 121.296 708.593 120.361C714.256 115.487 718.404 109.093 720.545 101.935C721.427 101.438 722.47 101.312 723.445 101.584C724.382 101.831 724.907 102.317 725.02 103.043C724.886 104.358 724.645 105.66 724.301 106.936C723.707 109.291 723.052 111.886 722.337 114.722C721.009 119.598 719.344 124.376 717.353 129.021C712.726 128.758 706.429 128.609 698.463 128.575C690.672 128.418 682.061 128.32 672.629 128.28L656.023 128.208C649.578 128.18 641.787 128.328 632.649 128.65C632.343 128.388 632.104 128.058 631.95 127.686C631.796 127.314 631.732 126.911 631.763 126.51C631.684 126.093 631.693 125.665 631.788 125.251C631.883 124.838 632.062 124.449 632.315 124.109L637.691 123.597C642.737 123.376 645.883 121.782 647.128 118.815C648.514 112.762 649.016 106.54 648.618 100.344L648.912 33.2688Z" fill="url(#paint4_linear_408_3309)"/>
<path d="M819.955 85.7313C819.731 84.2058 819.064 82.7794 818.039 81.6282C816.294 81.1595 814.486 80.9673 812.682 81.0586L785.447 80.9394C783.934 80.8408 782.416 81.0194 780.967 81.4663C779.764 82.47 778.925 83.8414 778.578 85.3691L772.254 104.909C770.384 109.908 769.036 115.086 768.232 120.363C768.191 120.814 768.265 121.269 768.448 121.684C768.631 122.099 768.916 122.461 769.278 122.735C770.429 123.697 771.901 124.191 773.4 124.118L779.37 124.681C779.722 124.93 780.003 125.267 780.186 125.657C780.37 126.047 780.448 126.479 780.415 126.909C780.389 127.381 780.245 127.839 779.998 128.242C779.751 128.645 779.408 128.98 778.999 129.218C774.667 128.96 768.43 128.755 760.29 128.603C754.022 128.575 748.253 128.728 742.984 129.06C742.667 128.769 742.422 128.408 742.268 128.005C742.114 127.603 742.056 127.17 742.098 126.742C742.01 126.354 742.015 125.951 742.111 125.565C742.207 125.179 742.392 124.821 742.652 124.52L748.628 124.009C750.865 123.893 753 123.039 754.699 121.58C756.895 119.861 758.527 117.524 759.383 114.87C762.581 107.183 767.942 93.3827 775.465 73.4676L793.957 23.3398C796.038 19.2373 797.113 14.6983 797.091 10.0983C799.19 9.41775 801.155 8.38129 802.902 7.03429C804.173 5.8 805.381 4.50239 806.522 3.14639C807.088 3.11148 807.652 3.2505 808.138 3.54483C808.623 3.83915 809.007 4.27476 809.239 4.79333C810.391 8.91868 811.69 13.0135 813.137 17.0777C814.404 21.4447 815.703 25.6598 817.034 29.723L841.307 104.698C842.772 110.17 845.059 115.388 848.09 120.174C849.13 121.423 850.412 122.449 851.859 123.189C853.306 123.929 854.888 124.368 856.509 124.479L861.423 125.039C861.78 125.277 862.056 125.617 862.216 126.014C862.377 126.411 862.413 126.848 862.322 127.266C862.36 127.696 862.297 128.129 862.137 128.531C861.978 128.932 861.727 129.291 861.404 129.577C854.554 129.19 847.293 128.98 839.62 128.948C830.952 128.911 824.041 129.058 818.886 129.391C818.527 129.127 818.242 128.775 818.059 128.369C817.875 127.963 817.8 127.516 817.841 127.072C817.775 126.267 818.031 125.469 818.551 124.852L823.828 124.336C827.867 123.991 829.95 122.878 830.077 120.997C829.819 117.595 829.065 114.249 827.839 111.066L819.955 85.7313ZM784.446 69.0521C783.712 70.9897 783.585 72.2317 784.067 72.7782C784.423 73.2646 785.802 73.513 788.204 73.5235L810.342 73.6203C812.978 73.7544 814.54 73.3974 815.028 72.5493C815.513 71.7636 815.278 70.1862 814.321 67.8171L804.701 37.4962C804.009 35.1308 803.317 32.8249 802.625 30.5785C802.055 28.9013 801.387 27.2587 800.626 25.6589L800.275 25.6579C799.736 26.8106 799.261 27.9923 798.852 29.1976C797.962 31.3162 796.985 33.7971 795.921 36.6403L784.446 69.0521Z" fill="url(#paint5_linear_408_3309)"/>
<path d="M925.448 101.052C924.932 107.45 925.529 113.89 927.213 120.084C928.063 121.674 929.373 122.97 930.97 123.805C932.568 124.64 934.38 124.974 936.171 124.764L943.031 125.331C943.544 126.025 943.798 126.876 943.749 127.737C943.717 128.147 943.605 128.546 943.418 128.912C943.232 129.277 942.974 129.602 942.661 129.868C932.589 129.467 924.421 129.254 918.156 129.228C911.304 129.198 903.456 129.341 894.611 129.658C894.305 129.396 894.066 129.066 893.912 128.694C893.758 128.323 893.694 127.92 893.725 127.519C893.647 127.102 893.655 126.674 893.751 126.261C893.846 125.848 894.026 125.459 894.279 125.118L899.83 124.605C904.876 124.384 908.022 122.79 909.268 119.823C910.648 113.647 911.15 107.307 910.759 100.99L910.801 91.4354C910.884 87.5708 910.665 83.7056 910.148 79.8749C908.958 75.8312 907.291 71.9435 905.182 68.2942L884.078 25.3385C882.339 21.1101 879.918 17.1954 876.913 13.7503C874.898 12.1753 872.439 11.2734 869.884 11.1719L864.872 10.1477C864.388 9.43128 864.197 8.55649 864.338 7.70332C864.292 7.3186 864.352 6.92862 864.511 6.57551C864.671 6.2224 864.924 5.91956 865.243 5.69971C870.751 6.08632 877.726 6.29818 886.168 6.33531C894.432 6.37147 900.851 6.21781 905.427 5.87431C905.846 6.01506 906.208 6.28702 906.46 6.64982C906.712 7.01263 906.84 7.44694 906.826 7.88843C906.834 8.78213 906.518 9.64852 905.936 10.3266L903.558 10.761C901.539 10.9808 899.557 11.4617 897.662 12.1918C896.427 12.6719 895.867 13.2763 895.982 14.0048C896.131 14.9262 896.424 15.8183 896.851 16.6482C897.546 18.0798 898.099 19.576 898.503 21.1153C899.893 24.6402 900.908 27.0718 901.548 28.41C908.048 42.7587 914.758 56.5914 921.677 69.9081C927.467 59.8657 933.169 49.3961 938.786 38.4992C941.562 33.4157 944.221 28.3915 946.764 23.4266C948.445 20.4264 949.731 17.2207 950.588 13.8899C950.59 13.2829 949.918 12.6732 948.574 12.0608C946.807 11.3716 944.934 10.994 943.038 10.9451L939.786 10.4746C939.311 9.74921 939.069 8.89602 939.092 8.02921C939.05 7.62731 939.128 7.22185 939.318 6.865C939.508 6.50815 939.8 6.21619 940.157 6.02669C946.368 6.4163 952.112 6.62286 957.391 6.6463C962.722 6.66967 968.321 6.51246 974.186 6.17469C974.932 6.68781 975.446 7.47348 975.619 8.36242C975.627 8.79993 975.531 9.23313 975.34 9.62667C975.149 10.0202 974.867 10.3629 974.518 10.6268L969.497 11.5946C966.999 12.2142 964.654 13.3361 962.604 14.8919C960.554 16.4477 958.843 18.4047 957.574 20.6437C953.194 27.17 949.169 33.9276 945.516 40.8871L934.073 61.1359C931.078 65.7369 928.634 70.6743 926.792 75.8465C925.697 80.9254 925.26 86.1239 925.491 91.3143L925.448 101.052Z" fill="url(#paint6_linear_408_3309)"/>
<path d="M196.141 129.951C187.393 130.302 178.673 128.753 170.581 125.411C162.489 122.069 155.217 117.013 149.266 110.592C138.091 98.729 132.005 82.9628 132.309 66.6683C132.083 58.0236 133.596 49.4216 136.759 41.3729C139.921 33.3242 144.668 25.9929 150.718 19.8141C156.701 13.7372 163.872 8.95816 171.783 5.77495C179.694 2.59173 188.176 1.07264 196.701 1.31238C217.626 1.64662 233.28 8.22116 243.66 21.036C253.884 33.4943 259.306 49.2034 258.944 65.3158C259.136 73.8726 257.623 82.3821 254.493 90.3484C251.364 98.3147 246.68 105.578 240.715 111.717C234.917 117.628 227.972 122.294 220.308 125.43C212.644 128.565 204.42 130.104 196.141 129.951ZM198.542 124.342C204.084 124.382 209.572 123.255 214.65 121.035C219.727 118.815 224.281 115.551 228.015 111.456C236.332 102.817 240.647 89.3663 240.96 71.1045C241.409 55.8363 237.733 40.7295 230.318 27.3749C226.715 20.8785 221.366 15.5199 214.876 11.905C208.386 8.29012 201.014 6.56316 193.594 6.91945C191.264 6.91693 188.938 7.08919 186.634 7.43473C184.11 7.81837 181.63 8.44771 179.228 9.3138C173.949 11.3281 169.14 14.4048 165.099 18.3533C160.431 22.9998 156.882 28.649 154.723 34.8717C151.602 43.1479 150.098 51.9464 150.295 60.7895C150.115 75.5026 153.851 89.9987 161.122 102.791C164.685 109.553 170.091 115.166 176.715 118.98C183.338 122.794 190.906 124.653 198.542 124.342Z" fill="url(#paint7_linear_408_3309)"/>
<rect y="190" width="976" height="2" fill="#AB8EFC"/>
<path d="M403.882 248.969C404.422 246.895 404.828 245.338 405.153 244.379H414.673C415.159 244.088 415.512 243.618 415.656 243.069C415.799 242.521 415.722 241.938 415.441 241.446H405.848C407.197 234.94 409.608 228.701 412.983 222.977C414.752 220.283 416.819 218.701 418.514 218.701C420.435 218.701 422.582 220.124 422.808 224.486C422.893 225.04 423.198 225.751 423.887 225.751C425.113 225.751 427.187 223.299 427.187 221.237C427.074 219.769 426.394 218.401 425.291 217.425C424.188 216.449 422.749 215.94 421.277 216.006C418.857 216.057 416.482 216.68 414.348 217.822C412.214 218.965 410.379 220.596 408.995 222.582C404.81 228.182 401.878 234.615 400.396 241.446H393.791C393.554 241.596 393.35 241.792 393.193 242.024C393.036 242.256 392.928 242.518 392.877 242.794C392.826 243.069 392.833 243.352 392.897 243.625C392.961 243.898 393.081 244.154 393.249 244.379H399.622C397.728 251.021 396.097 257.851 394.48 264.623C392.952 271.023 391.437 277.371 389.723 283.458C387.955 289.559 386.345 290.113 384.808 290.113C382.524 289.804 380.441 288.646 378.972 286.87C378.881 286.728 378.762 286.606 378.622 286.512C378.482 286.418 378.324 286.354 378.158 286.323C377.992 286.293 377.822 286.297 377.657 286.336C377.493 286.375 377.339 286.447 377.204 286.548C376.666 286.976 376.229 287.517 375.924 288.134C375.62 288.75 375.455 289.426 375.441 290.113C375.441 291.305 376.899 294 381.046 294C384.54 293.765 387.823 292.239 390.255 289.718C393.214 285.977 395.29 281.616 396.328 276.96C398.786 268.237 400.853 260.627 403.153 251.751C403.421 250.742 403.663 249.813 403.882 248.969Z" fill="white"/>
<path d="M320.005 223.743C311.479 223.494 303.13 226.207 296.378 231.421C292.86 234.327 290.041 237.989 288.132 242.134C286.222 246.279 285.272 250.801 285.35 255.364C285.211 260.209 286.274 265.013 288.442 269.347C290.611 273.682 293.819 277.412 297.779 280.206C304.242 284.424 311.852 286.54 319.565 286.262C324.249 286.22 328.905 285.52 333.395 284.183C334.386 283.788 335.411 283.485 336.457 283.279C338.631 279.457 340.058 275.256 340.661 270.901C340.384 270.585 340.005 270.376 339.59 270.31C339.176 270.244 338.751 270.325 338.39 270.539C337.137 274.376 334.68 277.707 331.383 280.035C328.086 282.363 324.125 283.564 320.09 283.46C305.74 283.46 294.101 272.98 294.101 254.008C294.101 235.302 305.474 226.545 318.87 226.545C331.559 226.545 335.491 233.59 336.808 239.731C337.156 239.994 337.588 240.12 338.023 240.087C338.457 240.053 338.865 239.863 339.169 239.551C338.474 234.042 338.034 228.353 337.943 226.268C337.11 226.313 336.276 226.19 335.491 225.907C330.434 224.572 325.235 223.846 320.005 223.743Z" fill="white"/>
<path d="M201.961 282.922C206.133 285.232 210.848 286.385 215.616 286.26C226.989 286.26 234.255 279.486 234.255 269.549C234.126 265.948 233.047 262.446 231.125 259.398C229.204 256.351 226.51 253.867 223.317 252.198L216.317 247.679C214.259 246.581 212.504 244.994 211.206 243.056C209.908 241.119 209.108 238.892 208.876 236.571C208.761 235.191 208.955 233.803 209.443 232.507C209.932 231.211 210.703 230.041 211.701 229.08C212.699 228.12 213.898 227.394 215.211 226.955C216.525 226.516 217.919 226.375 219.294 226.543C222.196 226.445 225.028 227.44 227.231 229.331C229.435 231.221 230.848 233.869 231.192 236.752C231.627 237.294 233.029 237.023 233.379 236.481C233.359 232.752 232.83 229.044 231.808 225.458C230.766 225.418 229.734 225.235 228.74 224.916C226.089 224.184 223.355 223.789 220.605 223.741C209.226 223.741 202.752 230.701 202.752 239.283C202.931 242.45 203.887 245.523 205.536 248.233C207.184 250.943 209.474 253.205 212.204 254.82L220.52 260.419C222.783 261.64 224.657 263.475 225.926 265.712C227.195 267.949 227.808 270.499 227.695 273.068C227.743 274.493 227.488 275.911 226.948 277.23C226.408 278.549 225.594 279.739 224.56 280.721C223.527 281.702 222.297 282.454 220.952 282.926C219.607 283.398 218.178 283.579 216.757 283.458C213.091 283.264 209.6 281.824 206.863 279.377C204.125 276.93 202.304 273.623 201.701 270.001C201.351 269.458 200.04 269.639 199.599 270.272C199.749 274.583 200.545 278.847 201.961 282.922Z" fill="white"/>
<path d="M177.12 247.278C177.444 240.997 176.885 234.702 175.458 228.577C174.925 227.943 174.252 227.442 173.493 227.112C172.733 226.783 171.907 226.635 171.08 226.679L168.894 226.498C168.658 226.175 168.546 225.779 168.578 225.381C168.61 224.982 168.784 224.609 169.069 224.328C172.391 224.509 175.628 224.6 179.04 224.6C182.718 224.6 185.08 224.509 188.232 224.328C188.53 224.601 188.713 224.976 188.746 225.379C188.778 225.781 188.657 226.181 188.408 226.498L186.306 226.679C185.454 226.643 184.607 226.822 183.842 227.2C183.078 227.579 182.421 228.143 181.933 228.842C180.842 234.923 180.431 241.106 180.707 247.278V257.487C181.323 265.184 179.149 272.846 174.583 279.074C172.394 281.257 169.782 282.969 166.907 284.104C164.032 285.239 160.955 285.773 157.865 285.673C151.99 286.052 146.177 284.288 141.504 280.707C136.865 276.729 134.673 270.131 134.673 259.385V238.063C134.673 228.667 134.504 227.131 129.425 226.679L127.233 226.498C126.713 226.136 126.888 224.6 127.413 224.328C131.786 224.509 134.758 224.6 138.266 224.6C141.848 224.6 144.741 224.509 149.029 224.328C149.555 224.6 149.724 226.136 149.204 226.498L147.103 226.679C142.029 227.131 141.848 228.667 141.848 238.063V257.577C141.848 272.125 146.227 281.701 159.617 281.701C172.3 281.701 177.12 271.402 177.12 257.667V247.278Z" fill="white"/>
<path d="M71.8504 260.376C72.1602 261.029 72.468 261.681 72.7748 262.33C74.4593 265.897 76.1111 269.394 77.8843 272.754H78.0594C80.2069 268.9 82.2056 264.678 84.1905 260.486L84.7996 259.2L93.0255 241.946C96.2325 236.593 98.4827 230.722 99.6753 224.596C101.857 224.803 104.049 224.895 106.24 224.873C108.427 224.873 111.314 224.777 114.026 224.596C114.275 224.916 114.418 225.306 114.435 225.711C114.451 226.117 114.339 226.517 114.116 226.856L112.28 227.042C106.766 227.579 106.065 229.302 106.155 235.624C106.194 237.74 106.229 240.206 106.266 242.904L106.266 242.913C106.398 252.414 106.57 264.794 107.116 274.924L107.153 275.595C107.378 279.68 107.5 281.897 111.404 282.24L114.206 282.511C114.458 282.845 114.578 283.259 114.545 283.675C114.511 284.092 114.327 284.482 114.026 284.771C110.444 284.59 106.85 284.5 103.703 284.5C100.641 284.5 96.7035 284.59 93.1103 284.771C92.8127 284.479 92.631 284.089 92.5988 283.674C92.5666 283.258 92.6861 282.845 92.9351 282.511L95.4775 282.24C99.7656 281.794 99.7656 280.347 99.7656 274.562L99.5058 236.884H99.325C98.9815 237.447 97.7786 239.983 96.4803 242.72C95.4727 244.844 94.4065 247.092 93.6414 248.63L85.8504 264.443C81.9125 272.393 77.9747 280.884 76.3984 285.042C76.2937 285.17 76.1589 285.27 76.0061 285.333C75.8533 285.396 75.6872 285.421 75.5227 285.404C75.3736 285.403 75.2265 285.37 75.0911 285.308C74.9557 285.245 74.8351 285.155 74.7374 285.042C73.4767 280.977 70.2598 273.992 68.0818 269.263C67.6928 268.419 67.3369 267.646 67.0312 266.974L59.1612 249.539C58.3904 247.794 57.6187 245.953 56.8405 244.097C55.7648 241.531 54.6768 238.935 53.5623 236.522H53.3871C53.0369 242.127 52.7713 247.364 52.5058 252.607C52.2459 258.121 51.8956 266.161 51.8956 273.839C51.8956 280.522 52.421 281.969 55.8335 282.24L59.1612 282.511C59.7713 283.054 59.6809 284.5 59.0708 284.771C56.0934 284.59 52.6809 284.5 49.3589 284.5C46.5566 284.5 43.4041 284.59 40.4324 284.771C40.1522 284.47 39.9824 284.082 39.9506 283.672C39.9188 283.261 40.0269 282.852 40.2572 282.511L42.1838 282.24C45.8561 281.698 47.0821 281.155 47.6075 274.833C48.1329 268.867 48.5679 263.901 49.0934 254.958C49.534 247.455 49.8843 239.777 50.0595 234.811C50.2346 229.116 49.534 227.76 44.1951 227.042L42.7939 226.856C42.5679 226.501 42.4788 226.076 42.5433 225.66C42.6077 225.244 42.8213 224.866 43.1442 224.596C45.7713 224.777 47.8674 224.873 50.0595 224.873C52.4844 224.903 54.9094 224.811 57.325 224.596C57.7126 229.842 59.2643 234.935 61.8674 239.506L71.8504 260.376Z" fill="white"/>
<path d="M256.564 238.919C256.564 229.343 256.389 227.806 251.225 227.354L249.038 227.173C248.513 226.811 248.688 225.184 249.214 224.913C253.592 225.1 256.564 225.184 260.242 225.184C263.739 225.184 266.716 225.1 271.089 224.913C271.615 225.184 271.79 226.811 271.264 227.173L269.078 227.354C263.914 227.806 263.739 229.343 263.739 238.919V271.083C263.739 280.659 263.914 281.924 269.078 282.557L271.264 282.828C271.79 283.19 271.615 284.817 271.089 285.088C266.716 284.908 263.739 284.817 260.242 284.817C256.564 284.817 253.592 284.908 249.214 285.088C248.929 284.789 248.757 284.401 248.725 283.989C248.693 283.578 248.804 283.168 249.038 282.828L251.225 282.557C256.389 281.924 256.564 280.659 256.564 271.083V238.919Z" fill="white"/>
<path fill-rule="evenodd" clip-rule="evenodd" d="M388.316 250.323C387.668 257.056 384.805 263.385 380.175 268.317C378.856 269.975 377.189 271.324 375.293 272.269C373.396 273.214 371.316 273.732 369.198 273.786C364.288 273.786 361.062 270.057 361.52 263.244C362.257 256.558 365.203 250.309 369.893 245.487C371.21 243.946 372.83 242.693 374.653 241.807C376.475 240.92 378.461 240.419 380.486 240.334C385.938 240.334 388.622 244.537 388.316 250.323ZM374.339 246.52C370.295 252.449 367.669 259.228 366.667 266.334C366.514 269.108 367.588 271.407 369.814 271.407C371.503 271.407 373.418 270.696 375.876 267.283C379.578 261.405 382.01 254.818 383.017 247.944C383.096 245.487 382.633 242.713 379.949 242.713C378.413 242.713 376.571 243.43 374.339 246.52Z" fill="white"/>
<path d="M452.582 244.539L445.441 266.098C444.984 267.606 445.362 268.081 445.978 268.081C449.347 266.318 452.324 263.891 454.729 260.945C455.498 260.945 455.961 261.42 455.803 262.375C452.512 267.908 447.244 271.987 441.063 273.787C440.522 273.728 440.018 273.482 439.639 273.091C439.26 272.7 439.031 272.189 438.989 271.646C439.123 270.096 439.486 268.575 440.068 267.132L447.515 244.539H441.526C441.415 244.127 441.436 243.691 441.587 243.292C441.738 242.893 442.012 242.553 442.368 242.318L448.509 241.211L452.814 233.363C453.288 233.123 453.825 233.04 454.349 233.125C454.873 233.21 455.357 233.46 455.729 233.838L453.503 241.606H461.871C462.099 242.124 462.131 242.706 461.962 243.246C461.792 243.785 461.433 244.245 460.95 244.539H452.582Z" fill="white"/>
<path d="M477.662 232.647L483.193 216.477L482.888 216.008C479.833 216.274 476.817 216.885 473.899 217.827C473.742 217.941 473.632 218.109 473.59 218.298C473.548 218.488 473.578 218.687 473.673 218.856L475.289 219.963C476.492 220.827 476.141 221.915 474.512 226.967L474.442 227.183L459.848 271.726C459.238 273.551 461.233 273.788 462.08 273.788C462.382 273.799 462.68 273.712 462.928 273.54C463.177 273.368 463.363 273.12 463.459 272.833C466.149 267.118 469.256 261.608 472.752 256.347C475.47 252.377 478.753 248.826 482.498 245.805C483.648 244.708 485.09 243.964 486.651 243.664C487.718 243.664 488.261 244.539 488.261 246.042C487.296 253.067 485.437 259.94 482.73 266.494C481.577 269.268 480.815 270.46 479.662 270.46C478.918 270.296 478.228 269.942 477.662 269.432C477.369 269.154 476.991 268.985 476.589 268.952C475.995 269.053 475.458 269.366 475.078 269.832C474.696 270.299 474.497 270.887 474.515 271.488C474.515 272.121 474.826 273.788 477.357 273.788C478.449 273.668 479.506 273.333 480.468 272.802C481.43 272.272 482.277 271.557 482.961 270.698C484.937 268.789 486.618 266.597 487.95 264.195C491.236 258.505 493.277 252.183 493.939 245.647C493.939 242.873 492.713 240.336 489.334 240.336C486.64 240.58 484.09 241.661 482.041 243.426C477.241 247.018 473.132 251.449 469.911 256.505L469.758 256.347L477.662 232.647Z" fill="white"/>
<path fill-rule="evenodd" clip-rule="evenodd" d="M522.76 245.094C522.76 251.116 515.161 255.083 504.104 258.252C503.337 260.524 502.974 262.912 503.031 265.309C502.962 265.849 503.003 266.398 503.153 266.923C503.303 267.447 503.558 267.935 503.903 268.357C504.248 268.779 504.675 269.127 505.158 269.379C505.641 269.631 506.171 269.782 506.715 269.823C509.477 269.823 511.398 268.241 514.777 265.224C514.939 265.226 515.099 265.267 515.243 265.341C515.388 265.415 515.513 265.522 515.61 265.652C515.707 265.783 515.772 265.934 515.801 266.094C515.83 266.254 515.822 266.418 515.777 266.574C514.452 268.669 512.645 270.416 510.508 271.671C508.37 272.926 505.964 273.652 503.489 273.789C498.878 273.789 497.274 269.348 497.274 265.467C497.6 261.314 498.786 257.275 500.755 253.604C502.725 249.934 505.435 246.713 508.715 244.145C511.239 241.825 514.504 240.475 517.929 240.337C519.193 240.351 520.402 240.855 521.303 241.742C522.204 242.629 522.726 243.83 522.76 245.094ZM510.556 246.597C508.143 249.339 506.22 252.478 504.873 255.874C508.771 254.888 512.327 252.861 515.161 250.009C516.759 248.618 517.818 246.711 518.155 244.619C518.178 244.379 518.149 244.137 518.069 243.91C517.99 243.682 517.862 243.474 517.694 243.301C517.527 243.128 517.324 242.992 517.099 242.905C516.874 242.818 516.633 242.78 516.393 242.794C515.314 242.794 513.319 243.506 510.556 246.597Z" fill="white"/>
<path d="M545.435 282.922C549.605 285.233 554.318 286.386 559.084 286.26C570.463 286.26 577.728 279.486 577.728 269.549C577.602 265.947 576.522 262.444 574.599 259.396C572.677 256.348 569.98 253.864 566.785 252.198L559.785 247.679C557.728 246.581 555.974 244.993 554.677 243.056C553.38 241.118 552.581 238.891 552.35 236.571C552.235 235.192 552.428 233.804 552.916 232.508C553.405 231.213 554.175 230.042 555.172 229.082C556.169 228.122 557.368 227.396 558.681 226.956C559.994 226.517 561.388 226.376 562.762 226.543C565.664 226.444 568.497 227.439 570.701 229.329C572.904 231.22 574.317 233.869 574.661 236.752C575.101 237.294 576.502 237.023 576.853 236.481C576.836 232.752 576.306 229.043 575.276 225.458C574.234 225.418 573.202 225.235 572.209 224.916C569.557 224.184 566.823 223.789 564.073 223.741C552.7 223.741 546.226 230.701 546.226 239.283C546.405 242.449 547.361 245.522 549.008 248.231C550.655 250.941 552.944 253.203 555.672 254.82L563.988 260.419C566.252 261.64 568.125 263.475 569.394 265.712C570.663 267.949 571.276 270.499 571.163 273.068C571.212 274.493 570.957 275.912 570.417 277.231C569.877 278.55 569.063 279.74 568.03 280.722C566.996 281.703 565.766 282.455 564.421 282.927C563.076 283.398 561.646 283.58 560.226 283.458C556.559 283.265 553.069 281.825 550.332 279.378C547.595 276.931 545.776 273.623 545.175 270.001C544.825 269.458 543.508 269.639 543.073 270.272C543.218 274.583 544.014 278.848 545.435 282.922Z" fill="white"/>
<path d="M607.214 271.264C607.214 280.75 607.389 281.925 612.988 282.557L615.349 282.823C615.584 283.162 615.695 283.572 615.664 283.983C615.633 284.394 615.462 284.782 615.18 285.083C610.191 284.908 607.304 284.812 603.801 284.812C600.129 284.812 596.977 284.908 593.123 285.083C592.839 284.784 592.667 284.395 592.636 283.983C592.605 283.571 592.717 283.161 592.954 282.823L594.79 282.557C599.864 281.834 600.039 280.75 600.039 271.264V237.925C600.039 230.247 599.864 228.71 595.926 228.258L592.773 227.896C592.629 227.74 592.519 227.555 592.449 227.354C592.38 227.153 592.353 226.939 592.37 226.727C592.387 226.515 592.447 226.308 592.548 226.121C592.648 225.933 592.787 225.768 592.954 225.637C598.706 225.02 604.492 224.779 610.276 224.913C616.108 224.499 621.938 225.753 627.084 228.529C629.304 230.01 631.111 232.03 632.336 234.401C633.56 236.772 634.162 239.416 634.084 242.083C634.184 245.07 633.408 248.021 631.852 250.573C630.296 253.125 628.028 255.166 625.327 256.444C621.545 258.216 617.423 259.141 613.248 259.156C612.643 258.885 612.643 257.529 613.169 257.348C615.017 257.216 616.819 256.715 618.471 255.877C620.123 255.038 621.591 253.878 622.789 252.465C623.987 251.051 624.89 249.413 625.446 247.646C626.002 245.878 626.2 244.018 626.027 242.173C626.23 240.257 626.009 238.32 625.378 236.499C624.747 234.678 623.723 233.019 622.379 231.638C621.034 230.258 619.402 229.191 617.598 228.513C615.794 227.835 613.864 227.563 611.943 227.716C607.304 227.716 607.214 228.077 607.214 230.97V271.264Z" fill="white"/>
<path d="M660.764 258.526C660.764 255.814 660.939 255.633 665.143 255.633H690.171C694.369 255.633 694.544 255.814 694.544 258.526V271.266C694.544 280.746 694.544 281.65 689.211 282.554L687.544 282.826C687.309 283.165 687.199 283.575 687.231 283.987C687.262 284.398 687.435 284.786 687.719 285.085C691.572 284.905 694.719 284.814 698.307 284.814C701.719 284.814 704.696 284.905 708.894 285.085C709.425 284.814 709.595 283.187 709.069 282.826L706.968 282.554C701.894 281.927 701.719 280.746 701.719 271.266V238.741C701.719 229.249 701.894 227.899 706.968 227.357L708.809 227.176C709.335 226.814 709.16 225.181 708.634 224.916C704.696 225.097 701.719 225.181 698.307 225.181C694.719 225.181 691.747 225.097 687.719 224.916C687.194 225.181 687.018 226.814 687.544 227.176L689.211 227.357C694.369 227.899 694.544 229.249 694.544 238.741V249.131C694.544 251.927 694.369 252.018 690.171 252.018H665.143C660.939 252.018 660.764 251.927 660.764 249.131V238.741C660.764 229.249 660.939 227.899 666.013 227.357L667.68 227.176C668.205 226.814 668.03 225.181 667.504 224.916C663.742 225.097 660.764 225.181 657.352 225.181C655.051 225.181 653.047 225.116 650.856 225.044C649.463 224.999 647.995 224.951 646.329 224.916C645.798 225.181 645.623 226.814 646.154 227.176L648.425 227.357C652.979 227.718 653.589 229.249 653.589 238.741V271.266C653.589 280.746 653.414 281.65 648.516 282.554L647.03 282.826C646.794 283.164 646.683 283.574 646.714 283.986C646.745 284.397 646.916 284.785 647.199 285.085C648.352 285.055 649.454 285.014 650.553 284.973C652.712 284.894 654.858 284.814 657.352 284.814C660.764 284.814 663.742 284.905 668.465 285.085C668.996 284.814 669.171 283.187 668.646 282.826L666.103 282.554C661.205 282.012 660.764 280.746 660.764 271.266V258.526Z" fill="white"/>
<path d="M730.68 238.741C730.68 229.345 730.51 227.989 725.346 227.357L723.945 227.176C723.42 226.814 723.595 225.193 724.12 224.916C727.878 225.097 730.855 225.193 734.443 225.193H750.9C754.84 225.309 758.784 225.217 762.714 224.916C763.41 228.891 763.876 232.904 764.109 236.933C763.827 237.22 763.451 237.397 763.05 237.43C762.648 237.463 762.248 237.351 761.923 237.114L761.765 236.6C760.541 232.611 759.636 229.659 755.273 228.526C752.471 228.053 749.627 227.873 746.787 227.989H740.482C737.861 227.989 737.861 228.17 737.861 231.605V249.673C737.861 252.198 738.121 252.198 740.742 252.198H745.827C748.316 252.314 750.81 252.134 753.256 251.662C754.313 251.3 754.923 250.752 755.363 248.498L756.058 244.792C756.382 244.523 756.794 244.383 757.214 244.4C757.635 244.416 758.034 244.588 758.335 244.882C758.335 245.843 758.267 247.069 758.19 248.436C758.094 250.155 757.985 252.099 757.985 254.012C757.985 255.836 758.095 257.718 758.192 259.37C758.268 260.66 758.335 261.809 758.335 262.679C758.037 262.977 757.637 263.152 757.215 263.17C756.794 263.188 756.381 263.047 756.058 262.775L755.273 259.249C755.225 258.468 754.94 257.721 754.455 257.107C753.97 256.493 753.31 256.042 752.561 255.814C750.342 255.396 748.082 255.244 745.827 255.362H740.742C738.121 255.362 737.861 255.453 737.861 257.803V270.537C737.861 275.328 738.12 278.407 739.522 279.939C740.573 281.023 742.409 282.018 750.109 282.018C753.898 282.43 757.731 281.966 761.313 280.662C764.056 278.282 766.186 275.276 767.522 271.899C767.706 271.793 767.91 271.725 768.122 271.7C768.333 271.674 768.547 271.691 768.752 271.75C768.956 271.809 769.147 271.909 769.312 272.043C769.477 272.177 769.614 272.344 769.714 272.532C768.744 276.816 767.427 281.014 765.776 285.085C757.895 284.905 750.109 284.82 742.324 284.82H734.443C730.68 284.82 727.708 284.905 722.544 285.085C722.26 284.786 722.087 284.399 722.054 283.987C722.022 283.576 722.131 283.166 722.363 282.826L725.256 282.56C730.245 282.102 730.68 280.752 730.68 271.266V238.741Z" fill="white"/>
<path fill-rule="evenodd" clip-rule="evenodd" d="M784.494 227.895C788.082 228.347 788.347 229.884 788.347 238.466V270.901C788.347 280.386 788.172 281.562 783.093 282.194L780.912 282.466C780.674 282.804 780.561 283.214 780.592 283.626C780.623 284.038 780.796 284.427 781.082 284.725C785.195 284.545 788.347 284.449 792.025 284.449C795.528 284.449 798.5 284.545 802.438 284.725C802.72 284.425 802.891 284.037 802.922 283.626C802.954 283.215 802.845 282.806 802.613 282.466L800.771 282.194C795.698 281.471 795.528 280.386 795.528 270.901V259.522C795.528 257.618 795.698 257.528 799.635 257.528C800.842 257.345 802.075 257.522 803.182 258.037C804.288 258.551 805.218 259.38 805.856 260.42C807.197 262.437 808.757 264.985 810.266 267.45L810.269 267.456L810.274 267.464C811.805 269.966 813.283 272.381 814.426 274.064C820.641 283.189 825.104 285.443 832.539 285.443C833.839 285.483 835.137 285.333 836.393 284.997C836.49 284.919 836.567 284.818 836.617 284.704C836.667 284.589 836.689 284.465 836.68 284.34C836.671 284.215 836.632 284.095 836.566 283.989C836.5 283.883 836.41 283.794 836.302 283.731C834.069 283.566 831.951 282.677 830.268 281.2C823.205 274.141 817.272 266.034 812.681 257.166C812.24 256.443 811.799 255.539 812.24 254.997C815.361 253.862 818.071 251.819 820.02 249.13C821.969 246.442 823.069 243.231 823.178 239.912C823.303 237.33 822.686 234.767 821.399 232.525C820.112 230.283 818.21 228.457 815.918 227.262C811.347 225.157 806.323 224.226 801.302 224.556C792.72 224.556 786.686 224.821 781.788 225.273C781.626 225.411 781.494 225.581 781.401 225.772C781.307 225.963 781.255 226.171 781.246 226.384C781.238 226.596 781.274 226.808 781.351 227.006C781.429 227.204 781.547 227.383 781.698 227.533L784.494 227.895ZM795.788 254.369C795.499 253.403 795.411 252.388 795.528 251.386V230.245C795.528 227.714 795.788 227.353 801.206 227.353C803.072 227.22 804.945 227.488 806.698 228.139C808.452 228.79 810.046 229.809 811.373 231.127C812.701 232.445 813.73 234.032 814.393 235.781C815.056 237.53 815.337 239.401 815.217 241.268C815.431 243.349 815.145 245.451 814.383 247.399C813.622 249.348 812.407 251.086 810.839 252.471C808.181 254.238 805.009 255.065 801.828 254.821C797.364 254.821 796.048 254.635 795.788 254.369Z" fill="white"/>
<path d="M851.349 238.741C851.349 229.345 851.174 227.989 846.015 227.357L844.614 227.176C844.083 226.814 844.264 225.193 844.789 224.916C848.552 225.097 851.524 225.193 855.111 225.193H871.563C875.503 225.31 879.447 225.217 883.377 224.916C884.078 228.891 884.546 232.903 884.778 236.933C884.495 237.22 884.118 237.397 883.716 237.43C883.313 237.463 882.912 237.351 882.586 237.114L882.432 236.611C881.212 232.616 880.309 229.66 875.942 228.526C873.138 228.053 870.292 227.874 867.45 227.989H861.151C858.53 227.989 858.53 228.17 858.53 231.605V249.673C858.53 252.198 858.789 252.198 861.411 252.198H866.49C868.981 252.314 871.477 252.134 873.925 251.662C874.976 251.3 875.592 250.752 876.027 248.498L876.727 244.792C877.051 244.523 877.463 244.383 877.883 244.4C878.303 244.416 878.703 244.588 879.004 244.882C879.004 245.842 878.935 247.069 878.859 248.435C878.763 250.155 878.654 252.098 878.654 254.012C878.654 255.834 878.764 257.716 878.861 259.366C878.936 260.656 879.004 261.809 879.004 262.679C878.706 262.977 878.306 263.152 877.884 263.17C877.463 263.188 877.05 263.047 876.727 262.775L875.942 259.249C875.893 258.468 875.606 257.72 875.121 257.106C874.635 256.493 873.973 256.042 873.224 255.814C871.006 255.396 868.745 255.244 866.49 255.362H861.411C858.789 255.362 858.53 255.453 858.53 257.803V270.537C858.53 275.328 858.789 278.407 860.185 279.939C861.236 281.023 863.078 282.018 870.773 282.018C874.563 282.43 878.398 281.966 881.982 280.662C884.723 278.28 886.853 275.275 888.191 271.899C888.375 271.793 888.578 271.725 888.789 271.699C889 271.674 889.214 271.691 889.418 271.75C889.623 271.809 889.813 271.909 889.977 272.043C890.142 272.177 890.278 272.344 890.377 272.532C889.411 276.817 888.096 281.015 886.445 285.085C878.563 284.905 870.772 284.82 862.987 284.82H855.111C851.349 284.82 848.377 284.905 843.213 285.085C842.929 284.786 842.756 284.399 842.723 283.987C842.69 283.576 842.8 283.166 843.032 282.826L845.925 282.56C850.908 282.102 851.349 280.752 851.349 271.266V238.741Z" fill="white"/>
<path d="M903.761 282.922C907.933 285.233 912.648 286.386 917.416 286.26C928.789 286.26 936.055 279.486 936.055 269.549C935.927 265.948 934.846 262.445 932.924 259.397C931.002 256.349 928.306 253.865 925.111 252.198L918.111 247.679C916.055 246.581 914.3 244.993 913.003 243.056C911.706 241.118 910.907 238.891 910.676 236.571C910.561 235.192 910.755 233.804 911.243 232.508C911.731 231.213 912.502 230.042 913.499 229.082C914.496 228.122 915.695 227.396 917.007 226.956C918.32 226.517 919.715 226.376 921.089 226.543C923.991 226.444 926.825 227.439 929.029 229.329C931.233 231.22 932.648 233.869 932.993 236.752C933.428 237.294 934.829 237.023 935.179 236.481C935.16 232.752 934.63 229.043 933.603 225.458C932.562 225.418 931.532 225.236 930.541 224.916C927.887 224.184 925.152 223.79 922.399 223.741C911.021 223.741 904.552 230.701 904.552 239.283C904.731 242.45 905.688 245.523 907.336 248.233C908.984 250.943 911.274 253.205 914.004 254.82L922.315 260.419C924.579 261.64 926.453 263.475 927.723 265.712C928.993 267.949 929.607 270.498 929.496 273.068C929.543 274.493 929.288 275.912 928.747 277.232C928.206 278.551 927.392 279.74 926.358 280.722C925.324 281.704 924.094 282.455 922.748 282.927C921.403 283.398 919.973 283.58 918.552 283.458C914.886 283.263 911.396 281.823 908.658 279.376C905.921 276.929 904.1 273.622 903.496 270.001C903.151 269.458 901.835 269.639 901.4 270.272C901.547 274.583 902.343 278.848 903.761 282.922Z" fill="white"/>
<rect y="318" width="976" height="2" fill="#AB8EFC"/>
<path d="M369.321 414.068H331.214L350.356 381.054L369.321 414.068ZM334.375 412.312H366.16L350.356 384.742L334.375 412.312Z" fill="#4240E5"/>
<path d="M339.823 400.02H360.72V401.776H339.823V400.02Z" fill="#4240E5"/>
<path d="M296.1 392.293C293.114 392.117 290.656 389.658 290.48 386.673L290.129 380H289.953L289.602 386.673C289.426 389.658 286.968 392.117 283.983 392.293L277.31 392.644V392.819L283.983 393.171C286.968 393.346 289.426 395.805 289.602 398.79L289.953 408.975H290.129L290.48 398.79C290.656 395.805 293.114 393.346 296.1 393.171L302.773 392.819V392.644L296.1 392.293Z" fill="#1CCBA8"/>
<path d="M283.626 404.937C281.694 404.761 280.114 403.181 279.938 401.249L279.587 396.859H279.411L279.06 401.249C278.885 403.181 277.304 404.761 275.372 404.937L270.982 405.112V405.288L275.372 405.639C277.304 405.815 278.885 407.395 279.06 409.327L279.411 416H279.587L279.938 409.327C280.114 407.395 281.694 405.815 283.626 405.639L288.016 405.288V405.112L283.626 404.937ZM276.075 389.132C274.143 388.957 272.563 387.376 272.387 385.444L272.036 381.054L271.685 385.444C271.509 387.376 269.929 388.957 267.997 389.132L263.607 389.308V389.483L267.997 389.835C269.929 390.01 271.509 391.591 271.685 393.522L272.036 400.195H272.211L272.563 393.522C272.738 391.591 274.319 390.01 276.25 389.835L280.465 389.483V389.308L276.075 389.132Z" fill="#1CCBA8"/>
<path d="M420.056 414.22C419.674 414.22 419.366 414.176 419.132 414.088C418.897 414.029 418.78 413.912 418.78 413.736C418.78 413.384 419.264 413.12 420.232 412.944C421.346 412.739 422.153 412.401 422.652 411.932C423.18 411.463 423.444 410.685 423.444 409.6V391.032C423.444 389.712 423.268 388.7 422.916 387.996C422.593 387.292 421.874 386.837 420.76 386.632C420.261 386.544 419.894 386.427 419.66 386.28C419.425 386.133 419.308 385.957 419.308 385.752C419.308 385.576 419.425 385.459 419.66 385.4C419.894 385.312 420.202 385.268 420.584 385.268C421.376 385.268 421.962 385.268 422.344 385.268C422.754 385.268 423.136 385.283 423.488 385.312C423.84 385.312 424.309 385.312 424.896 385.312C425.482 385.312 426.069 385.297 426.656 385.268C427.272 385.209 427.844 385.165 428.372 385.136C428.9 385.077 429.369 385.048 429.78 385.048C433.124 385.048 435.808 385.737 437.832 387.116C439.885 388.495 440.912 390.416 440.912 392.88C440.912 394.669 440.56 396.327 439.856 397.852C439.152 399.348 438.066 400.551 436.6 401.46C435.162 402.369 433.314 402.824 431.056 402.824C430.41 402.824 429.912 402.736 429.56 402.56C429.237 402.355 429.076 402.164 429.076 401.988C429.076 401.871 429.149 401.739 429.296 401.592C429.472 401.445 429.633 401.372 429.78 401.372C429.926 401.372 430.146 401.387 430.44 401.416C430.762 401.445 431.217 401.46 431.804 401.46C433.564 401.46 434.884 400.727 435.764 399.26C436.673 397.793 437.128 395.769 437.128 393.188C437.128 390.841 436.438 389.111 435.06 387.996C433.681 386.852 431.921 386.28 429.78 386.28C428.958 386.28 428.284 386.427 427.756 386.72C427.228 386.984 426.964 387.453 426.964 388.128V409.116C426.964 410.172 427.184 411.023 427.624 411.668C428.064 412.313 428.826 412.739 429.912 412.944C430.41 413.032 430.777 413.135 431.012 413.252C431.246 413.369 431.364 413.531 431.364 413.736C431.364 413.912 431.246 414.029 431.012 414.088C430.777 414.176 430.469 414.22 430.088 414.22C429.296 414.22 428.68 414.191 428.24 414.132C427.829 414.073 427.448 414.029 427.096 414C426.773 413.941 426.333 413.912 425.776 413.912C425.042 413.912 424.382 413.941 423.796 414C423.238 414.029 422.666 414.073 422.08 414.132C421.522 414.191 420.848 414.22 420.056 414.22ZM444.905 414.22C444.524 414.22 444.216 414.176 443.981 414.088C443.746 414.029 443.629 413.912 443.629 413.736C443.629 413.384 444.113 413.12 445.081 412.944C446.196 412.739 447.017 412.401 447.545 411.932C448.073 411.463 448.337 410.7 448.337 409.644V389.844C448.337 388.788 448.117 388.04 447.677 387.6C447.266 387.16 446.504 386.837 445.389 386.632C444.89 386.544 444.524 386.427 444.289 386.28C444.054 386.133 443.937 385.957 443.937 385.752C443.937 385.576 444.054 385.459 444.289 385.4C444.524 385.312 444.832 385.268 445.213 385.268C446.328 385.268 447.266 385.283 448.029 385.312C448.821 385.341 449.584 385.371 450.317 385.4C451.08 385.4 451.974 385.4 453.001 385.4C453.969 385.4 454.981 385.4 456.037 385.4C457.122 385.371 458.12 385.356 459.029 385.356C460.026 385.327 460.862 385.312 461.537 385.312C462.241 385.283 462.652 385.268 462.769 385.268C462.916 385.268 463.077 385.297 463.253 385.356C463.429 385.415 463.532 385.517 463.561 385.664C463.708 386.485 463.854 387.307 464.001 388.128C464.148 388.92 464.221 389.609 464.221 390.196C464.221 390.46 464.148 390.636 464.001 390.724C463.884 390.812 463.752 390.856 463.605 390.856C463.458 390.856 463.356 390.827 463.297 390.768C463.238 390.68 463.18 390.563 463.121 390.416C462.974 389.917 462.828 389.448 462.681 389.008C462.534 388.539 462.358 388.201 462.153 387.996C461.742 387.527 461.288 387.219 460.789 387.072C460.29 386.896 459.762 386.808 459.205 386.808H453.441C453.206 386.808 452.884 386.94 452.473 387.204C452.062 387.468 451.857 387.805 451.857 388.216V397.544C451.857 397.808 451.93 398.043 452.077 398.248C452.253 398.424 452.444 398.512 452.649 398.512H457.005C457.856 398.512 458.442 398.365 458.765 398.072C459.088 397.749 459.352 397.177 459.557 396.356C459.733 395.711 459.997 395.388 460.349 395.388C460.466 395.388 460.584 395.447 460.701 395.564C460.848 395.681 460.921 395.857 460.921 396.092C460.921 396.209 460.906 396.473 460.877 396.884C460.877 397.295 460.862 397.72 460.833 398.16C460.804 398.6 460.789 398.937 460.789 399.172C460.789 399.465 460.789 399.861 460.789 400.36C460.818 400.829 460.833 401.284 460.833 401.724C460.862 402.164 460.877 402.443 460.877 402.56C460.877 402.765 460.848 402.941 460.789 403.088C460.76 403.235 460.657 403.308 460.481 403.308C460.041 403.308 459.704 402.839 459.469 401.9C459.293 401.225 459.058 400.727 458.765 400.404C458.472 400.081 458.032 399.92 457.445 399.92H453.353C452.854 399.92 452.473 399.993 452.209 400.14C451.974 400.257 451.857 400.565 451.857 401.064V409.512C451.857 410.627 452.092 411.404 452.561 411.844C453.03 412.255 453.764 412.46 454.761 412.46H458.017C458.956 412.46 459.733 412.416 460.349 412.328C460.994 412.211 461.552 412.005 462.021 411.712C462.49 411.389 462.901 410.964 463.253 410.436C463.634 409.908 464.06 409.204 464.529 408.324C464.617 408.148 464.72 408.001 464.837 407.884C464.954 407.767 465.086 407.723 465.233 407.752C465.38 407.781 465.497 407.855 465.585 407.972C465.673 408.06 465.717 408.192 465.717 408.368C465.717 408.632 465.644 409.101 465.497 409.776C465.35 410.421 465.16 411.096 464.925 411.8C464.72 412.504 464.529 413.061 464.353 413.472C464.265 413.677 464.177 413.853 464.089 414C464.03 414.147 463.913 414.22 463.737 414.22C462.329 414.22 461.024 414.205 459.821 414.176C458.618 414.147 457.474 414.117 456.389 414.088C455.304 414.059 454.233 414.029 453.177 414C452.15 413.971 451.08 413.956 449.965 413.956C449.32 413.956 448.762 413.971 448.293 414C447.824 414.059 447.34 414.103 446.841 414.132C446.342 414.191 445.697 414.22 444.905 414.22ZM494.865 414.924C494.044 414.924 493.266 414.851 492.533 414.704C491.8 414.587 491.125 414.352 490.509 414C489.893 413.648 489.321 413.164 488.793 412.548C488.089 411.668 487.414 410.832 486.769 410.04C486.124 409.219 485.434 408.28 484.701 407.224C483.997 406.168 483.132 404.819 482.105 403.176C481.665 402.443 481.034 401.871 480.213 401.46C479.568 401.137 478.922 400.917 478.277 400.8C477.661 400.653 477.148 400.565 476.737 400.536C476.502 400.507 476.326 400.58 476.209 400.756C476.121 400.932 476.077 401.152 476.077 401.416V409.16C476.077 410.099 476.297 410.92 476.737 411.624C477.177 412.299 477.94 412.739 479.025 412.944C479.524 413.032 479.89 413.135 480.125 413.252C480.36 413.369 480.477 413.531 480.477 413.736C480.477 413.912 480.36 414.029 480.125 414.088C479.89 414.176 479.582 414.22 479.201 414.22C478.409 414.22 477.793 414.191 477.353 414.132C476.942 414.073 476.561 414.029 476.209 414C475.886 413.941 475.446 413.912 474.889 413.912C474.156 413.912 473.496 413.941 472.909 414C472.352 414.029 471.78 414.073 471.193 414.132C470.636 414.191 469.961 414.22 469.169 414.22C468.788 414.22 468.48 414.176 468.245 414.088C468.01 414.029 467.893 413.912 467.893 413.736C467.893 413.384 468.377 413.12 469.345 412.944C470.46 412.739 471.266 412.401 471.765 411.932C472.293 411.463 472.557 410.685 472.557 409.6V390.856C472.557 389.741 472.498 388.905 472.381 388.348C472.293 387.761 472.058 387.351 471.677 387.116C471.325 386.881 470.724 386.72 469.873 386.632C469.374 386.573 469.008 386.471 468.773 386.324C468.538 386.148 468.421 385.957 468.421 385.752C468.421 385.576 468.538 385.459 468.773 385.4C469.008 385.312 469.316 385.268 469.697 385.268C470.489 385.268 471.076 385.268 471.457 385.268C471.868 385.268 472.249 385.283 472.601 385.312C472.953 385.312 473.422 385.312 474.009 385.312C474.566 385.312 475.065 385.297 475.505 385.268C475.945 385.209 476.429 385.165 476.957 385.136C477.514 385.107 478.218 385.092 479.069 385.092C482.296 385.092 484.745 385.693 486.417 386.896C488.118 388.099 488.969 389.903 488.969 392.308C488.969 393.628 488.705 394.772 488.177 395.74C487.649 396.679 486.989 397.471 486.197 398.116C485.405 398.761 484.598 399.289 483.777 399.7C483.66 399.729 483.601 399.803 483.601 399.92C483.63 400.008 483.689 400.125 483.777 400.272C484.686 401.651 485.552 402.956 486.373 404.188C487.224 405.42 488.148 406.623 489.145 407.796C490.142 408.969 491.33 410.187 492.709 411.448C493.472 412.123 494.249 412.533 495.041 412.68C495.833 412.827 496.742 412.9 497.769 412.9C498.209 412.9 498.429 413.061 498.429 413.384C498.429 413.824 498.209 414.147 497.769 414.352C497.329 414.587 496.83 414.733 496.273 414.792C495.716 414.88 495.246 414.924 494.865 414.924ZM478.409 399.524C479.758 399.524 480.917 399.216 481.885 398.6C482.882 397.984 483.645 397.177 484.173 396.18C484.73 395.183 485.009 394.127 485.009 393.012C485.009 391.809 484.848 390.709 484.525 389.712C484.232 388.715 483.616 387.923 482.677 387.336C481.768 386.72 480.389 386.412 478.541 386.412C477.602 386.412 476.986 386.72 476.693 387.336C476.4 387.923 476.224 388.979 476.165 390.504C476.136 391.237 476.106 392.235 476.077 393.496C476.077 394.728 476.077 396.224 476.077 397.984C476.077 398.717 476.282 399.157 476.693 399.304C477.104 399.451 477.676 399.524 478.409 399.524ZM503.237 414.22C502.856 414.22 502.548 414.176 502.313 414.088C502.079 414.029 501.961 413.912 501.961 413.736C501.961 413.531 502.079 413.369 502.313 413.252C502.548 413.135 502.915 413.032 503.413 412.944C504.528 412.739 505.379 412.387 505.965 411.888C506.552 411.36 506.845 410.568 506.845 409.512V392.44C506.845 391.091 506.816 390.064 506.757 389.36C506.699 388.627 506.596 388.113 506.449 387.82C506.332 387.527 506.156 387.365 505.921 387.336C505.511 387.248 505.071 387.204 504.601 387.204C504.161 387.175 503.56 387.16 502.797 387.16H500.729C500.025 387.16 499.321 387.307 498.617 387.6C497.943 387.864 497.444 388.289 497.121 388.876C497.033 389.023 496.887 389.243 496.681 389.536C496.476 389.8 496.256 390.035 496.021 390.24C495.787 390.445 495.552 390.548 495.317 390.548C495.2 390.548 495.112 390.489 495.053 390.372C495.024 390.255 495.009 390.123 495.009 389.976C495.009 389.683 495.083 389.389 495.229 389.096C495.64 388.245 495.933 387.497 496.109 386.852C496.315 386.177 496.476 385.385 496.593 384.476C496.652 383.977 496.755 383.684 496.901 383.596C497.077 383.508 497.224 383.464 497.341 383.464C497.459 383.464 497.635 383.64 497.869 383.992C498.133 384.344 498.324 384.637 498.441 384.872C498.617 385.165 499.013 385.385 499.629 385.532C500.275 385.679 500.905 385.752 501.521 385.752H517.009C518.036 385.752 518.872 385.693 519.517 385.576C520.163 385.459 520.72 385.297 521.189 385.092C521.541 384.916 521.82 384.725 522.025 384.52C522.26 384.315 522.553 384.212 522.905 384.212C522.993 384.212 523.067 384.329 523.125 384.564C523.184 384.769 523.213 384.989 523.213 385.224C523.213 385.371 523.184 385.576 523.125 385.84C523.096 386.104 523.067 386.309 523.037 386.456C522.949 386.984 522.861 387.365 522.773 387.6C522.715 387.835 522.671 388.04 522.641 388.216C522.612 388.392 522.597 388.671 522.597 389.052V389.58C522.597 389.844 522.539 390.152 522.421 390.504C522.304 390.827 522.128 390.988 521.893 390.988C521.688 390.988 521.527 390.827 521.409 390.504C521.292 390.181 521.175 389.741 521.057 389.184C520.94 388.568 520.588 388.084 520.001 387.732C519.415 387.351 518.417 387.16 517.009 387.16H512.565C511.92 387.16 511.436 387.248 511.113 387.424C510.791 387.6 510.585 388.04 510.497 388.744C510.409 389.448 510.365 390.607 510.365 392.22V409.512C510.365 410.568 510.673 411.36 511.289 411.888C511.905 412.387 512.756 412.739 513.841 412.944C514.34 413.032 514.707 413.135 514.941 413.252C515.176 413.369 515.293 413.531 515.293 413.736C515.293 413.912 515.176 414.029 514.941 414.088C514.707 414.176 514.399 414.22 514.017 414.22C513.225 414.22 512.565 414.191 512.037 414.132C511.539 414.103 511.055 414.073 510.585 414.044C510.116 414.015 509.544 414 508.869 414C508.136 414 507.491 414.015 506.933 414.044C506.405 414.073 505.848 414.103 505.261 414.132C504.704 414.191 504.029 414.22 503.237 414.22ZM526.202 414.22C525.82 414.22 525.512 414.161 525.278 414.044C525.043 413.956 524.926 413.824 524.926 413.648C524.926 413.355 525.395 413.12 526.334 412.944C527.448 412.739 528.167 412.401 528.49 411.932C528.842 411.463 529.018 410.7 529.018 409.644V389.756C529.018 388.729 528.9 388.011 528.666 387.6C528.46 387.16 527.8 386.837 526.686 386.632C525.718 386.456 525.234 386.192 525.234 385.84C525.234 385.664 525.336 385.532 525.542 385.444C525.747 385.327 526.07 385.268 526.51 385.268C527.302 385.268 527.918 385.283 528.358 385.312C528.798 385.341 529.208 385.371 529.59 385.4C529.971 385.4 530.455 385.4 531.042 385.4C531.658 385.4 532.156 385.4 532.538 385.4C532.948 385.371 533.374 385.341 533.814 385.312C534.283 385.283 534.914 385.268 535.706 385.268C536.556 385.268 536.982 385.459 536.982 385.84C536.982 386.045 536.864 386.207 536.63 386.324C536.395 386.441 536.028 386.544 535.53 386.632C534.444 386.837 533.667 387.204 533.198 387.732C532.758 388.231 532.538 388.905 532.538 389.756V398.424C532.538 398.6 532.611 398.717 532.758 398.776C532.904 398.805 533.036 398.82 533.154 398.82H549.478C549.683 398.82 549.786 398.644 549.786 398.292V389.712C549.786 388.92 549.58 388.26 549.17 387.732C548.759 387.204 547.996 386.837 546.882 386.632C546.383 386.544 546.016 386.441 545.782 386.324C545.547 386.207 545.43 386.045 545.43 385.84C545.43 385.459 545.855 385.268 546.706 385.268C547.498 385.268 548.143 385.283 548.642 385.312C549.17 385.341 549.668 385.371 550.138 385.4C550.607 385.4 551.164 385.4 551.81 385.4C552.338 385.4 552.748 385.4 553.042 385.4C553.335 385.371 553.672 385.341 554.054 385.312C554.435 385.283 555.022 385.268 555.814 385.268C556.224 385.268 556.532 385.327 556.738 385.444C556.972 385.532 557.09 385.664 557.09 385.84C557.09 386.192 556.606 386.456 555.638 386.632C554.552 386.837 553.892 387.189 553.658 387.688C553.423 388.187 553.306 388.861 553.306 389.712V409.6C553.306 410.685 553.438 411.463 553.702 411.932C553.995 412.401 554.684 412.739 555.77 412.944C556.708 413.12 557.178 413.355 557.178 413.648C557.178 413.824 557.06 413.956 556.826 414.044C556.591 414.161 556.283 414.22 555.902 414.22C555.11 414.22 554.494 414.191 554.054 414.132C553.614 414.103 553.203 414.073 552.822 414.044C552.44 414.015 551.942 414 551.326 414C550.71 414 550.196 414.015 549.786 414.044C549.404 414.073 548.979 414.103 548.51 414.132C548.04 414.191 547.41 414.22 546.618 414.22C546.236 414.22 545.928 414.161 545.694 414.044C545.459 413.956 545.342 413.824 545.342 413.648C545.342 413.443 545.444 413.296 545.65 413.208C545.884 413.12 546.251 413.032 546.75 412.944C547.688 412.768 548.422 412.431 548.95 411.932C549.507 411.404 549.786 410.671 549.786 409.732V401.152C549.786 401.005 549.786 400.859 549.786 400.712C549.786 400.565 549.712 400.492 549.566 400.492H532.758C532.611 400.492 532.538 400.653 532.538 400.976V409.336C532.538 410.245 532.875 411.037 533.55 411.712C534.224 412.357 535.06 412.768 536.058 412.944C536.556 413.032 536.908 413.12 537.114 413.208C537.348 413.296 537.466 413.443 537.466 413.648C537.466 413.824 537.348 413.956 537.114 414.044C536.879 414.161 536.571 414.22 536.19 414.22C535.398 414.22 534.738 414.191 534.21 414.132C533.711 414.103 533.227 414.073 532.758 414.044C532.288 414.015 531.716 414 531.042 414C530.426 414 529.898 414.015 529.458 414.044C529.047 414.073 528.592 414.103 528.094 414.132C527.624 414.191 526.994 414.22 526.202 414.22Z" fill="white"/>
<path d="M707.183 413.423C706.627 413.423 706.256 413.051 706.256 412.495C706.256 412.309 706.256 412.124 706.441 411.938C709.41 408.783 711.08 404.515 710.895 400.062C710.709 395.979 709.039 391.897 705.884 389.113C702.915 386.33 699.019 385.031 694.936 385.216C691.225 385.402 687.513 387.072 685.101 389.67C682.689 392.268 681.39 395.794 681.575 399.505C681.761 402.845 683.245 406 685.658 408.412C688.07 410.639 691.225 411.567 694.379 411.381C697.348 411.196 700.132 409.897 702.173 407.67C704.029 405.629 704.957 402.845 704.771 399.876C704.586 397.278 703.472 394.866 701.431 393.196C699.575 391.526 697.163 390.783 694.75 390.969C692.524 391.154 690.482 392.082 688.998 393.752C687.699 395.237 687.142 397.278 687.328 399.319C687.513 401.175 688.441 402.845 689.74 403.959C691.039 405.072 692.709 405.443 694.379 405.258C695.864 405.072 697.163 404.33 697.905 403.216C698.647 402.289 699.019 400.99 698.833 399.691C698.647 398.577 698.091 397.835 697.163 397.093C696.421 396.536 695.493 396.35 694.565 396.722C694.008 396.907 693.451 397.278 693.08 397.835C692.895 398.206 692.895 398.763 693.08 399.319C693.08 399.505 693.266 399.691 693.637 399.691C693.637 399.319 693.637 399.134 693.823 398.948C694.194 398.577 694.75 398.577 695.122 398.948C695.493 399.319 695.678 400.062 695.307 400.618C694.75 401.361 694.008 401.732 693.08 401.546C692.338 401.361 691.596 400.804 691.41 400.062C691.039 399.134 691.039 398.02 691.596 397.093C692.153 396.165 693.08 395.423 694.194 395.051C695.493 394.68 696.977 395.051 698.091 395.794C699.39 396.722 700.132 398.02 700.503 399.505C700.689 401.175 700.317 403.031 699.204 404.515C698.091 406 696.235 406.928 694.379 407.299C692.338 407.484 690.111 406.928 688.441 405.629C686.586 404.144 685.472 402.103 685.287 399.876C685.101 397.278 685.843 394.866 687.513 392.825C689.183 390.783 691.781 389.484 694.379 389.299C697.348 389.113 700.132 390.041 702.359 391.897C704.771 393.938 706.07 396.722 706.256 399.876C706.441 403.216 705.328 406.371 703.287 408.969C701.06 411.567 697.72 413.051 694.194 413.237C690.482 413.423 686.957 412.124 684.173 409.711C681.39 407.113 679.534 403.402 679.534 399.691C679.348 395.608 680.833 391.526 683.431 388.557C686.4 385.402 690.297 383.546 694.565 383.361C699.019 383.175 703.472 384.66 706.812 387.814C710.153 390.969 712.194 395.423 712.379 400.062C712.565 404.886 710.895 409.711 707.555 413.237C707.555 413.423 707.369 413.423 707.183 413.423Z" fill="#C26436"/>
<path d="M623.896 416C619.257 416 615.732 408.021 615.732 398C615.732 387.979 619.257 380 623.896 380C628.536 380 632.061 387.979 632.061 398C632.061 408.021 628.35 416 623.896 416ZM623.896 381.299C620.742 381.299 617.402 387.979 617.402 397.814C617.402 401.897 617.958 405.979 619.443 409.691C620.742 412.66 622.226 414.33 623.896 414.33C627.051 414.33 630.391 407.649 630.391 397.814C630.391 393.732 629.835 389.649 628.35 385.938C627.051 382.969 625.381 381.299 623.896 381.299Z" fill="#EA1068"/>
<path d="M633.546 408.948C628.721 408.763 624.082 407.278 620 405.051C616.103 403.196 612.763 400.412 609.979 397.258C607.567 394.103 606.825 391.319 607.938 389.464C609.051 387.608 611.649 386.495 615.546 386.866C619.814 387.422 623.897 388.721 627.608 390.763C636.515 395.587 641.897 402.453 639.855 406.35C638.928 408.206 636.701 408.948 633.546 408.948ZM614.062 388.165C611.649 388.165 609.979 388.907 609.237 390.02C608.495 391.505 609.237 393.732 611.278 396.144C616.845 402.268 624.268 406.165 632.433 407.278C635.587 407.464 637.814 406.907 638.556 405.422C640.041 402.639 635.773 396.515 627.051 391.876C623.526 389.835 619.629 388.536 615.546 388.165C614.989 388.35 614.433 388.165 614.062 388.165Z" fill="#EA1068"/>
<path d="M614.062 408.948C611.093 408.948 608.681 408.021 607.753 406.351C605.712 402.268 611.093 395.402 620 390.577C623.712 388.536 627.794 387.237 632.062 386.68C635.959 386.309 638.743 387.237 639.67 389.278C640.598 391.32 640.042 394.103 637.629 397.072C634.846 400.227 631.32 403.01 627.609 404.866C623.526 407.464 618.887 408.763 614.062 408.948ZM633.547 388.165H632.248C624.083 389.278 616.66 393.175 611.093 399.299C609.237 401.897 608.495 404.124 609.237 405.608C610.722 408.392 618.145 408.392 626.866 403.753C630.578 401.897 633.732 399.299 636.516 396.33C638.557 393.918 639.299 391.691 638.557 390.206C637.815 388.907 636.145 388.165 633.547 388.165Z" fill="#EA1068"/>
<rect x="240.607" y="365" width="494.787" height="66" rx="15" stroke="#DEACD8" stroke-width="2"/>
<defs>
<linearGradient id="paint0_linear_408_3309" x1="-82.1963" y1="64.3556" x2="988.094" y2="64.3556" gradientUnits="userSpaceOnUse">
<stop stop-color="#ED2224"/>
<stop offset="0.2353" stop-color="#EDE811"/>
<stop offset="0.25129" stop-color="#D4E217"/>
<stop offset="0.30123" stop-color="#8BD029"/>
<stop offset="0.34602" stop-color="#51C238"/>
<stop offset="0.38404" stop-color="#27B842"/>
<stop offset="0.41381" stop-color="#0DB149"/>
<stop offset="0.43165" stop-color="#04AF4B"/>
<stop offset="0.46192" stop-color="#159C67"/>
<stop offset="0.50462" stop-color="#288687"/>
<stop offset="0.54565" stop-color="#37769F"/>
<stop offset="0.5839" stop-color="#3F6CAD"/>
<stop offset="0.61658" stop-color="#4269B2"/>
<stop offset="0.78396" stop-color="#D74498"/>
<stop offset="1" stop-color="#ED1F2F"/>
</linearGradient>
<linearGradient id="paint1_linear_408_3309" x1="-82.2278" y1="65.3971" x2="988.061" y2="65.3971" gradientUnits="userSpaceOnUse">
<stop stop-color="#ED2224"/>
<stop offset="0.2353" stop-color="#EDE811"/>
<stop offset="0.25129" stop-color="#D4E217"/>
<stop offset="0.30123" stop-color="#8BD029"/>
<stop offset="0.34602" stop-color="#51C238"/>
<stop offset="0.38404" stop-color="#27B842"/>
<stop offset="0.41381" stop-color="#0DB149"/>
<stop offset="0.43165" stop-color="#04AF4B"/>
<stop offset="0.46192" stop-color="#159C67"/>
<stop offset="0.50462" stop-color="#288687"/>
<stop offset="0.54565" stop-color="#37769F"/>
<stop offset="0.5839" stop-color="#3F6CAD"/>
<stop offset="0.61658" stop-color="#4269B2"/>
<stop offset="0.78396" stop-color="#D74498"/>
<stop offset="1" stop-color="#ED1F2F"/>
</linearGradient>
<linearGradient id="paint2_linear_408_3309" x1="-82.2191" y1="66.3368" x2="988.071" y2="66.3368" gradientUnits="userSpaceOnUse">
<stop stop-color="#ED2224"/>
<stop offset="0.2353" stop-color="#EDE811"/>
<stop offset="0.25129" stop-color="#D4E217"/>
<stop offset="0.30123" stop-color="#8BD029"/>
<stop offset="0.34602" stop-color="#51C238"/>
<stop offset="0.38404" stop-color="#27B842"/>
<stop offset="0.41381" stop-color="#0DB149"/>
<stop offset="0.43165" stop-color="#04AF4B"/>
<stop offset="0.46192" stop-color="#159C67"/>
<stop offset="0.50462" stop-color="#288687"/>
<stop offset="0.54565" stop-color="#37769F"/>
<stop offset="0.5839" stop-color="#3F6CAD"/>
<stop offset="0.61658" stop-color="#4269B2"/>
<stop offset="0.78396" stop-color="#D74498"/>
<stop offset="1" stop-color="#ED1F2F"/>
</linearGradient>
<linearGradient id="paint3_linear_408_3309" x1="-82.2022" y1="66.4707" x2="988.087" y2="66.4707" gradientUnits="userSpaceOnUse">
<stop stop-color="#ED2224"/>
<stop offset="0.2353" stop-color="#EDE811"/>
<stop offset="0.25129" stop-color="#D4E217"/>
<stop offset="0.30123" stop-color="#8BD029"/>
<stop offset="0.34602" stop-color="#51C238"/>
<stop offset="0.38404" stop-color="#27B842"/>
<stop offset="0.41381" stop-color="#0DB149"/>
<stop offset="0.43165" stop-color="#04AF4B"/>
<stop offset="0.46192" stop-color="#159C67"/>
<stop offset="0.50462" stop-color="#288687"/>
<stop offset="0.54565" stop-color="#37769F"/>
<stop offset="0.5839" stop-color="#3F6CAD"/>
<stop offset="0.61658" stop-color="#4269B2"/>
<stop offset="0.78396" stop-color="#D74498"/>
<stop offset="1" stop-color="#ED1F2F"/>
</linearGradient>
<linearGradient id="paint4_linear_408_3309" x1="-82.1879" y1="66.9219" x2="988.102" y2="66.9219" gradientUnits="userSpaceOnUse">
<stop stop-color="#ED2224"/>
<stop offset="0.2353" stop-color="#EDE811"/>
<stop offset="0.25129" stop-color="#D4E217"/>
<stop offset="0.30123" stop-color="#8BD029"/>
<stop offset="0.34602" stop-color="#51C238"/>
<stop offset="0.38404" stop-color="#27B842"/>
<stop offset="0.41381" stop-color="#0DB149"/>
<stop offset="0.43165" stop-color="#04AF4B"/>
<stop offset="0.46192" stop-color="#159C67"/>
<stop offset="0.50462" stop-color="#288687"/>
<stop offset="0.54565" stop-color="#37769F"/>
<stop offset="0.5839" stop-color="#3F6CAD"/>
<stop offset="0.61658" stop-color="#4269B2"/>
<stop offset="0.78396" stop-color="#D74498"/>
<stop offset="1" stop-color="#ED1F2F"/>
</linearGradient>
<linearGradient id="paint5_linear_408_3309" x1="-82.1914" y1="66.3624" x2="988.099" y2="66.3624" gradientUnits="userSpaceOnUse">
<stop stop-color="#ED2224"/>
<stop offset="0.2353" stop-color="#EDE811"/>
<stop offset="0.25129" stop-color="#D4E217"/>
<stop offset="0.30123" stop-color="#8BD029"/>
<stop offset="0.34602" stop-color="#51C238"/>
<stop offset="0.38404" stop-color="#27B842"/>
<stop offset="0.41381" stop-color="#0DB149"/>
<stop offset="0.43165" stop-color="#04AF4B"/>
<stop offset="0.46192" stop-color="#159C67"/>
<stop offset="0.50462" stop-color="#288687"/>
<stop offset="0.54565" stop-color="#37769F"/>
<stop offset="0.5839" stop-color="#3F6CAD"/>
<stop offset="0.61658" stop-color="#4269B2"/>
<stop offset="0.78396" stop-color="#D74498"/>
<stop offset="1" stop-color="#ED1F2F"/>
</linearGradient>
<linearGradient id="paint6_linear_408_3309" x1="-82.192" y1="67.7837" x2="988.097" y2="67.7837" gradientUnits="userSpaceOnUse">
<stop stop-color="#ED2224"/>
<stop offset="0.2353" stop-color="#EDE811"/>
<stop offset="0.25129" stop-color="#D4E217"/>
<stop offset="0.30123" stop-color="#8BD029"/>
<stop offset="0.34602" stop-color="#51C238"/>
<stop offset="0.38404" stop-color="#27B842"/>
<stop offset="0.41381" stop-color="#0DB149"/>
<stop offset="0.43165" stop-color="#04AF4B"/>
<stop offset="0.46192" stop-color="#159C67"/>
<stop offset="0.50462" stop-color="#288687"/>
<stop offset="0.54565" stop-color="#37769F"/>
<stop offset="0.5839" stop-color="#3F6CAD"/>
<stop offset="0.61658" stop-color="#4269B2"/>
<stop offset="0.78396" stop-color="#D74498"/>
<stop offset="1" stop-color="#ED1F2F"/>
</linearGradient>
<linearGradient id="paint7_linear_408_3309" x1="-82.205" y1="65.6319" x2="988.084" y2="65.6319" gradientUnits="userSpaceOnUse">
<stop stop-color="#ED2224"/>
<stop offset="0.2353" stop-color="#EDE811"/>
<stop offset="0.25129" stop-color="#D4E217"/>
<stop offset="0.30123" stop-color="#8BD029"/>
<stop offset="0.34602" stop-color="#51C238"/>
<stop offset="0.38404" stop-color="#27B842"/>
<stop offset="0.41381" stop-color="#0DB149"/>
<stop offset="0.43165" stop-color="#04AF4B"/>
<stop offset="0.46192" stop-color="#159C67"/>
<stop offset="0.50462" stop-color="#288687"/>
<stop offset="0.54565" stop-color="#37769F"/>
<stop offset="0.5839" stop-color="#3F6CAD"/>
<stop offset="0.61658" stop-color="#4269B2"/>
<stop offset="0.78396" stop-color="#D74498"/>
<stop offset="1" stop-color="#ED1F2F"/>
</linearGradient>
</defs>
</svg>
