<svg width="976" height="432" viewBox="0 0 976 432" fill="none" xmlns="http://www.w3.org/2000/svg">
<path d="M0.41173 64.7737C0.10996 55.3497 2.02414 45.9863 6.00029 37.4368C9.97644 28.8872 15.9036 21.3902 23.305 15.5486C37.276 4.95805 54.4585 -0.516946 71.9811 0.0384542C82.7734 0.134461 93.5019 1.70651 103.868 4.71097C105.469 5.29572 107.171 5.5549 108.874 5.47326C109.085 11.0219 109.895 20.0998 111.305 32.7068C111.028 33.0105 110.686 33.2486 110.305 33.4039C109.923 33.5591 109.513 33.6275 109.102 33.6043C108.157 33.7204 107.201 33.5245 106.378 33.0464C105.888 29.7041 104.924 26.4486 103.517 23.3777C101.947 20.0124 99.7171 16.9972 96.9584 14.5117C93.8624 11.6032 90.1855 9.38349 86.1697 7.99848C80.7942 6.32286 75.1827 5.52892 69.5534 5.64757C62.9961 5.44854 56.4648 6.55532 50.3392 8.9035C44.2136 11.2517 38.6161 14.7944 33.8722 19.3256C23.8627 28.4439 18.6994 42.7099 18.3822 62.1237C18.5312 81.7219 23.7428 96.6998 34.0169 107.057C38.785 112.24 44.6022 116.347 51.0814 119.106C57.5606 121.865 64.5531 123.212 71.5934 123.057C76.8249 123.197 82.0316 122.291 86.9088 120.394C90.8797 118.881 94.5522 116.679 97.7571 113.889C100.673 111.394 103.179 108.457 105.184 105.185C106.823 102.436 108.219 99.5492 109.355 96.5572C109.738 96.2653 110.184 96.0656 110.657 95.9733C111.13 95.881 111.618 95.8987 112.083 96.0249C112.499 96.055 112.899 96.1987 113.24 96.4405C113.58 96.6822 113.848 97.0127 114.014 97.3961C113.408 102.469 112.175 107.447 110.343 112.215C109.156 115.974 107.454 119.55 105.286 122.841C103.107 123.188 100.98 123.802 98.9514 124.67C95.2237 125.717 91.4322 126.522 87.6006 127.079C81.9662 128.073 76.2602 128.606 70.5393 128.673C54.7063 128.902 39.1494 124.515 25.7684 116.048C17.7784 110.125 11.3119 102.386 6.90291 93.4703C2.49394 84.5548 0.268968 74.7188 0.41173 64.7737Z" fill="url(#paint0_linear_408_2357)"/>
<path d="M291.454 31.744C291.907 25.4334 291.459 19.0905 290.126 12.9059C288.791 9.80788 285.366 8.24647 279.85 8.22165L275.362 7.74681C275.095 7.40549 274.908 7.00832 274.816 6.58494C274.724 6.16155 274.729 5.72285 274.83 5.30146C274.834 4.19637 275.135 3.52849 275.732 3.29785C284.973 3.7011 292.754 3.91684 299.075 3.94511C305.452 3.97279 312.825 3.82341 321.195 3.49695C321.789 3.73225 322.145 4.40361 322.262 5.51108C322.306 5.94697 322.264 6.38736 322.138 6.80687C322.011 7.22639 321.803 7.61678 321.525 7.95552L317.222 8.3728C312.186 8.35156 309.047 9.88528 307.805 12.974C306.273 19.1267 305.712 25.481 306.144 31.8068L305.861 96.6113C305.772 100.991 305.988 105.371 306.508 109.72C306.793 112.314 307.855 114.762 309.555 116.742C311.081 118.111 312.917 119.087 314.906 119.586C316.757 120.024 318.636 120.337 320.529 120.522C323.376 120.994 326.258 121.22 329.144 121.196C334.431 121.356 339.723 121.105 344.972 120.447C347.113 120.319 349.207 119.771 351.136 118.835C356.8 113.962 360.947 107.568 363.087 100.41C363.969 99.9132 365.013 99.7872 365.987 100.06C366.924 100.307 367.449 100.792 367.563 101.517C367.429 102.832 367.188 104.135 366.843 105.411C366.249 107.766 365.595 110.362 364.88 113.198C363.552 118.073 361.886 122.851 359.896 127.495C355.269 127.232 348.972 127.084 341.005 127.05C333.215 126.894 324.603 126.796 315.172 126.755L298.566 126.683C292.121 126.655 284.33 126.803 275.194 127.126C274.888 126.863 274.649 126.533 274.495 126.161C274.341 125.788 274.277 125.385 274.308 124.984C274.23 124.567 274.238 124.139 274.333 123.726C274.428 123.313 274.607 122.924 274.86 122.584L280.236 122.072C285.28 121.851 288.425 120.256 289.671 117.289C291.057 111.237 291.559 105.015 291.161 98.8191L291.454 31.744Z" fill="url(#paint1_linear_408_2357)"/>
<path d="M398.39 28.4568C398.608 23.8726 398.212 19.2797 397.214 14.8001C396.565 13.4449 395.543 12.3027 394.268 11.5074C392.993 10.7121 391.518 10.2965 390.015 10.3096L386.055 9.74644C385.701 9.46118 385.419 9.09671 385.232 8.68247C385.045 8.26823 384.958 7.81582 384.978 7.3617C384.965 6.92523 385.079 6.49441 385.304 6.12067C385.53 5.74692 385.859 5.44607 386.251 5.25404C401.379 4.32575 416.447 3.89422 431.454 3.95949C444.852 3.68585 458.206 5.58265 470.997 9.57631C482.285 13.6094 491.946 21.2181 498.513 31.2455C504.546 41.3269 507.605 52.9091 507.337 64.6548C507.678 75.907 504.894 87.0336 499.294 96.7996C493.695 106.566 485.499 114.589 475.616 119.979C463.024 126.03 449.182 129.023 435.216 128.713C429.354 128.566 423.845 128.3 418.689 127.916C413.415 127.408 409.136 127.147 405.852 127.133C398.76 127.102 391.256 127.251 383.34 127.58C383.035 127.318 382.795 126.987 382.642 126.615C382.488 126.243 382.424 125.84 382.455 125.438C382.376 125.022 382.385 124.593 382.48 124.18C382.575 123.767 382.755 123.378 383.008 123.037L387.149 122.52C392.196 122.179 395.343 120.525 396.59 117.556C397.972 111.564 398.473 105.403 398.079 99.2669L398.39 28.4568ZM412.787 95.053C412.026 102.02 413.247 109.061 416.309 115.366C419.988 120.721 427.376 123.301 438.474 123.107C455.914 123.063 468.798 117.719 477.126 107.075C485.758 94.7907 490.068 79.9871 489.377 64.9884C489.342 59.1335 488.658 53.3005 487.339 47.596C485.701 41.1056 482.859 34.9804 478.961 29.5382C474.479 23.4815 468.611 18.5866 461.849 15.2629C452.691 11.297 442.783 9.35984 432.806 9.5844C430.279 9.57371 427.988 9.62443 425.933 9.73659C424.133 9.81789 422.339 9.99238 420.557 10.2593C418.603 10.4837 416.714 11.0946 415 12.0564C413.641 13.204 413.004 17.934 413.088 26.2465L412.787 95.053Z" fill="url(#paint2_linear_408_2357)"/>
<path d="M557.764 99.97C557.229 106.126 557.83 112.328 559.536 118.267C560.698 121.245 564.041 122.927 569.562 123.315L574.406 123.874C574.696 124.163 574.918 124.512 575.058 124.897C575.198 125.282 575.252 125.693 575.215 126.101C575.196 126.548 575.08 126.985 574.877 127.383C574.673 127.782 574.386 128.132 574.036 128.41C564.72 128.013 556.929 127.801 550.661 127.775C543.571 127.744 536.247 127.89 528.69 128.213C528.385 127.951 528.146 127.62 527.992 127.249C527.838 126.877 527.774 126.474 527.805 126.073C527.726 125.656 527.734 125.228 527.829 124.814C527.925 124.401 528.105 124.012 528.358 123.672L532.148 123.152C537.194 122.81 540.341 121.155 541.587 118.186C542.968 112.195 543.47 106.034 543.075 99.8986L543.375 31.0912C543.724 25.7907 543.393 20.4673 542.39 15.251C541.402 12.6384 538.942 11.2619 535.012 11.1214L528.501 10.3666C528.004 9.60834 527.754 8.71454 527.785 7.80834C527.75 7.41418 527.835 7.01856 528.029 6.67354C528.223 6.32851 528.516 6.05024 528.871 5.87528C540.745 4.81618 552.665 4.36987 564.584 4.53814C576.575 3.82905 588.527 6.45761 599.114 12.1318C603.744 15.1103 607.5 19.2666 609.996 24.1746C612.491 29.0827 613.637 34.566 613.315 40.0627C613.64 47.0677 611.496 53.9644 607.258 59.5513C605.58 61.7528 603.655 63.7549 601.522 65.5184C599.517 67.0341 597.397 68.3903 595.181 69.5745C587.39 73.1963 578.895 75.05 570.303 75.0029C570.009 74.7746 569.774 74.4788 569.619 74.1407C569.463 73.8025 569.391 73.4319 569.409 73.06C569.37 72.7412 569.417 72.4178 569.546 72.1236C569.675 71.8294 569.881 71.5751 570.141 71.3875C578.198 70.3554 585.607 66.4341 590.991 60.3519C595.021 54.3956 597.058 47.314 596.808 40.1266C596.776 20.7284 587.154 10.7438 567.942 10.1729C565.104 9.89739 562.241 10.2593 559.561 11.2322C558.499 12.0785 558.021 13.9309 558.128 16.7894L557.764 99.97Z" fill="url(#paint3_linear_408_2357)"/>
<path d="M648.912 33.2685C649.364 26.9583 648.917 20.6158 647.583 14.4315C646.248 11.3324 642.822 9.77056 637.306 9.74612L632.817 9.27137C632.55 8.9302 632.364 8.5332 632.272 8.10997C632.18 7.68674 632.184 7.24816 632.285 6.82693C632.289 5.72183 632.59 5.05361 633.188 4.82227C642.431 5.2258 650.212 5.44159 656.532 5.46957C662.909 5.49726 670.283 5.34783 678.653 5.02137C679.247 5.25662 679.602 5.92803 679.719 7.03554C679.764 7.47143 679.722 7.91177 679.595 8.33129C679.469 8.7508 679.261 9.14119 678.983 9.47993L674.68 9.89831C669.644 9.87598 666.505 11.4094 665.262 14.4985C663.73 20.6515 663.17 27.0062 663.601 33.3323L663.318 98.1369C663.229 102.516 663.445 106.896 663.965 111.245C664.25 113.839 665.312 116.287 667.012 118.266C668.538 119.636 670.375 120.612 672.363 121.111C674.214 121.548 676.093 121.861 677.986 122.047C680.833 122.518 683.715 122.744 686.601 122.722C691.889 122.881 697.181 122.63 702.43 121.971C704.57 121.843 706.664 121.296 708.594 120.36C714.257 115.487 718.404 109.092 720.545 101.934C721.427 101.438 722.47 101.312 723.445 101.584C724.382 101.831 724.907 102.317 725.02 103.043C724.886 104.358 724.645 105.66 724.301 106.936C723.707 109.291 723.052 111.886 722.338 114.722C721.009 119.598 719.344 124.376 717.353 129.021C712.726 128.758 706.429 128.609 698.463 128.575C690.672 128.418 682.061 128.32 672.629 128.28L656.023 128.207C649.578 128.18 641.787 128.327 632.649 128.65C632.344 128.388 632.104 128.057 631.95 127.686C631.797 127.314 631.733 126.911 631.764 126.509C631.685 126.093 631.693 125.664 631.788 125.251C631.883 124.838 632.062 124.449 632.315 124.109L637.691 123.596C642.737 123.376 645.883 121.782 647.128 118.814C648.514 112.762 649.016 106.54 648.618 100.343L648.912 33.2685Z" fill="url(#paint4_linear_408_2357)"/>
<path d="M819.955 85.7308C819.731 84.2053 819.064 82.7789 818.039 81.6277C816.294 81.159 814.486 80.9668 812.681 81.0581L785.447 80.9389C783.934 80.8403 782.416 81.0189 780.967 81.4659C779.764 82.4695 778.925 83.8409 778.578 85.3687L772.254 104.908C770.384 109.907 769.036 115.086 768.232 120.362C768.19 120.814 768.265 121.269 768.448 121.684C768.631 122.099 768.916 122.46 769.278 122.734C770.429 123.697 771.901 124.191 773.399 124.117L779.37 124.68C779.722 124.93 780.003 125.266 780.186 125.657C780.369 126.047 780.448 126.478 780.415 126.908C780.389 127.38 780.245 127.838 779.998 128.241C779.751 128.644 779.408 128.98 778.999 129.218C774.666 128.96 768.43 128.755 760.29 128.602C754.022 128.575 748.253 128.727 742.984 129.06C742.667 128.768 742.422 128.407 742.268 128.005C742.114 127.602 742.056 127.17 742.098 126.741C742.01 126.353 742.014 125.95 742.111 125.564C742.207 125.179 742.392 124.821 742.652 124.519L748.628 124.008C750.865 123.893 753 123.039 754.699 121.58C756.895 119.861 758.527 117.524 759.383 114.87C762.581 107.183 767.942 93.3822 775.465 73.4672L793.957 23.3393C796.038 19.2369 797.113 14.6978 797.091 10.0978C799.19 9.41727 801.155 8.3808 802.902 7.03381C804.173 5.79952 805.381 4.5019 806.522 3.1459C807.088 3.11099 807.652 3.25001 808.138 3.54434C808.623 3.83866 809.007 4.27427 809.238 4.79284C810.39 8.91819 811.69 13.013 813.137 17.0772C814.404 21.4442 815.703 25.6593 817.033 29.7226L841.306 104.697C842.772 110.169 845.059 115.388 848.09 120.173C849.129 121.423 850.411 122.448 851.859 123.188C853.306 123.928 854.888 124.367 856.509 124.479L861.423 125.039C861.779 125.277 862.056 125.616 862.216 126.014C862.376 126.411 862.413 126.847 862.322 127.266C862.36 127.696 862.297 128.129 862.137 128.53C861.978 128.932 861.727 129.29 861.404 129.577C854.554 129.189 847.293 128.98 839.62 128.948C830.952 128.91 824.041 129.058 818.886 129.391C818.527 129.127 818.242 128.775 818.058 128.369C817.875 127.962 817.8 127.516 817.84 127.072C817.775 126.267 818.031 125.469 818.551 124.851L823.827 124.336C827.866 123.991 829.95 122.878 830.077 120.996C829.819 117.595 829.065 114.249 827.839 111.066L819.955 85.7308ZM784.446 69.0516C783.711 70.9892 783.585 72.2312 784.067 72.7777C784.423 73.2641 785.802 73.5125 788.204 73.523L810.341 73.6198C812.977 73.7539 814.54 73.3969 815.028 72.5488C815.513 71.7631 815.278 70.1857 814.321 67.8167L804.701 37.4958C804.009 35.1303 803.317 32.8244 802.625 30.578C802.055 28.9008 801.387 27.2582 800.626 25.6584L800.275 25.6574C799.735 26.8101 799.261 27.9918 798.852 29.1971C797.962 31.3157 796.985 33.7966 795.92 36.6398L784.446 69.0516Z" fill="url(#paint5_linear_408_2357)"/>
<path d="M925.449 101.051C924.932 107.45 925.53 113.889 927.214 120.083C928.064 121.673 929.373 122.97 930.971 123.805C932.569 124.639 934.381 124.973 936.172 124.763L943.032 125.331C943.545 126.024 943.799 126.876 943.749 127.737C943.718 128.146 943.606 128.545 943.419 128.911C943.232 129.277 942.975 129.602 942.661 129.867C932.59 129.467 924.422 129.254 918.156 129.227C911.304 129.197 903.456 129.341 894.612 129.657C894.306 129.396 894.067 129.066 893.913 128.694C893.759 128.322 893.695 127.92 893.726 127.519C893.647 127.102 893.656 126.674 893.751 126.26C893.846 125.847 894.026 125.458 894.279 125.118L899.83 124.605C904.876 124.383 908.023 122.789 909.269 119.823C910.649 113.646 911.151 107.306 910.759 100.99L910.802 91.4349C910.884 87.5703 910.666 83.7051 910.148 79.8744C908.959 75.8307 907.292 71.9431 905.183 68.2937L884.078 25.338C882.339 21.1096 879.919 17.1949 876.913 13.7498C874.899 12.1748 872.44 11.2729 869.885 11.1714L864.873 10.1472C864.388 9.43079 864.197 8.556 864.338 7.70283C864.292 7.31811 864.352 6.92814 864.512 6.57502C864.671 6.22191 864.924 5.91907 865.243 5.69922C870.751 6.08583 877.727 6.29769 886.169 6.33482C894.432 6.37099 900.852 6.21732 905.428 5.87382C905.846 6.01457 906.209 6.28653 906.461 6.64933C906.713 7.01214 906.841 7.44646 906.827 7.88794C906.835 8.78164 906.519 9.64803 905.937 10.3261L903.558 10.7605C901.539 10.9803 899.558 11.4612 897.663 12.1913C896.428 12.6714 895.868 13.2758 895.983 14.0044C896.131 14.9257 896.424 15.8178 896.851 16.6477C897.546 18.0793 898.1 19.5755 898.504 21.1148C899.894 24.6397 900.909 27.0713 901.549 28.4095C908.049 42.7582 914.759 56.5909 921.678 69.9076C927.467 59.8653 933.17 49.3956 938.786 38.4987C941.563 33.4152 944.222 28.391 946.764 23.4261C948.446 20.4259 949.731 17.2202 950.588 13.8894C950.591 13.2824 949.919 12.6727 948.574 12.0603C946.807 11.3711 944.934 10.9936 943.038 10.9446L939.787 10.4741C939.312 9.74872 939.07 8.89553 939.093 8.02872C939.05 7.62682 939.129 7.22137 939.319 6.86452C939.508 6.50767 939.801 6.2157 940.158 6.0262C946.368 6.41581 952.113 6.62237 957.391 6.64581C962.723 6.66918 968.321 6.51197 974.186 6.17421C974.933 6.68732 975.447 7.47299 975.619 8.36193C975.628 8.79944 975.532 9.23264 975.341 9.62618C975.149 10.0197 974.868 10.3624 974.519 10.6263L969.498 11.5941C967 12.2137 964.655 13.3356 962.605 14.8914C960.555 16.4472 958.843 18.4042 957.574 20.6432C953.194 27.1695 949.169 33.9271 945.517 40.8866L934.074 61.1354C931.078 65.7364 928.634 70.6738 926.792 75.846C925.698 80.9249 925.261 86.1234 925.491 91.3138L925.449 101.051Z" fill="url(#paint6_linear_408_2357)"/>
<path d="M196.141 129.952C187.393 130.302 178.673 128.753 170.581 125.411C162.489 122.069 155.217 117.013 149.266 110.592C138.091 98.7292 132.005 82.963 132.309 66.6685C132.083 58.0239 133.596 49.4219 136.759 41.3732C139.921 33.3245 144.668 25.9931 150.718 19.8143C156.701 13.7375 163.871 8.95841 171.783 5.77519C179.694 2.59197 188.176 1.07288 196.701 1.31263C217.626 1.64686 233.28 8.22141 243.66 21.0362C253.884 33.4946 259.306 49.2037 258.944 65.3161C259.136 73.8729 257.623 82.3823 254.493 90.3486C251.364 98.3149 246.68 105.579 240.715 111.717C234.916 117.628 227.972 122.294 220.308 125.43C212.644 128.565 204.42 130.104 196.141 129.952ZM198.542 124.342C204.084 124.382 209.572 123.255 214.649 121.035C219.727 118.815 224.281 115.551 228.015 111.456C236.331 102.817 240.647 89.3665 240.96 71.1047C241.409 55.8365 237.733 40.7297 230.318 27.3751C226.715 20.8788 221.366 15.5201 214.876 11.9052C208.386 8.29036 201.014 6.56341 193.594 6.9197C191.264 6.91718 188.938 7.08944 186.634 7.43498C184.11 7.81862 181.63 8.44796 179.228 9.31404C173.949 11.3284 169.14 14.405 165.099 18.3535C160.431 23.0001 156.882 28.6492 154.723 34.872C151.602 43.1481 150.098 51.9467 150.295 60.7898C150.115 75.5028 153.851 89.9989 161.122 102.791C164.685 109.553 170.091 115.166 176.714 118.98C183.337 122.794 190.906 124.654 198.542 124.342Z" fill="url(#paint7_linear_408_2357)"/>
<rect y="190" width="976" height="2" fill="#AB8EFC"/>
<path d="M403.882 248.969C404.422 246.895 404.828 245.338 405.153 244.379H414.673C415.159 244.088 415.512 243.618 415.656 243.069C415.8 242.521 415.722 241.938 415.441 241.446H405.848C407.197 234.94 409.608 228.701 412.984 222.977C414.752 220.283 416.82 218.701 418.515 218.701C420.435 218.701 422.582 220.124 422.808 224.486C422.893 225.04 423.198 225.751 423.887 225.751C425.113 225.751 427.187 223.299 427.187 221.237C427.074 219.769 426.394 218.401 425.291 217.425C424.188 216.449 422.749 215.94 421.277 216.006C418.857 216.057 416.483 216.68 414.348 217.822C412.214 218.965 410.38 220.596 408.995 222.582C404.81 228.182 401.878 234.615 400.396 241.446H393.791C393.554 241.596 393.351 241.792 393.193 242.024C393.036 242.256 392.929 242.518 392.878 242.794C392.827 243.069 392.833 243.352 392.897 243.625C392.961 243.898 393.081 244.154 393.249 244.379H399.622C397.728 251.021 396.097 257.851 394.481 264.623C392.952 271.023 391.437 277.371 389.724 283.458C387.955 289.559 386.345 290.113 384.808 290.113C382.525 289.804 380.441 288.646 378.972 286.87C378.882 286.728 378.762 286.606 378.622 286.512C378.482 286.418 378.324 286.354 378.158 286.323C377.992 286.293 377.822 286.297 377.658 286.336C377.493 286.375 377.339 286.447 377.204 286.548C376.666 286.976 376.229 287.517 375.924 288.134C375.62 288.75 375.455 289.426 375.441 290.113C375.441 291.305 376.899 294 381.046 294C384.541 293.765 387.823 292.239 390.255 289.718C393.214 285.977 395.29 281.616 396.328 276.96C398.786 268.237 400.854 260.627 403.153 251.751C403.421 250.742 403.663 249.813 403.882 248.969Z" fill="white"/>
<path d="M320.006 223.743C311.479 223.494 303.13 226.207 296.378 231.421C292.86 234.327 290.041 237.989 288.132 242.134C286.223 246.279 285.272 250.801 285.35 255.364C285.212 260.209 286.274 265.013 288.443 269.347C290.611 273.682 293.819 277.412 297.78 280.206C304.243 284.424 311.852 286.54 319.565 286.262C324.25 286.22 328.905 285.52 333.395 284.183C334.386 283.788 335.411 283.485 336.458 283.279C338.631 279.457 340.058 275.256 340.661 270.901C340.384 270.585 340.005 270.376 339.591 270.31C339.176 270.244 338.751 270.325 338.39 270.539C337.138 274.376 334.68 277.707 331.383 280.035C328.086 282.363 324.125 283.564 320.09 283.46C305.74 283.46 294.102 272.98 294.102 254.008C294.102 235.302 305.474 226.545 318.87 226.545C331.559 226.545 335.491 233.59 336.808 239.731C337.156 239.994 337.588 240.12 338.023 240.087C338.457 240.053 338.865 239.863 339.169 239.551C338.474 234.042 338.034 228.353 337.943 226.268C337.11 226.313 336.276 226.19 335.491 225.907C330.434 224.572 325.235 223.846 320.006 223.743Z" fill="white"/>
<path d="M201.961 282.922C206.134 285.232 210.848 286.385 215.616 286.26C226.989 286.26 234.255 279.486 234.255 269.549C234.127 265.948 233.047 262.446 231.126 259.398C229.204 256.351 226.51 253.867 223.317 252.198L216.317 247.679C214.259 246.581 212.504 244.994 211.206 243.056C209.908 241.119 209.108 238.892 208.876 236.571C208.761 235.191 208.955 233.803 209.444 232.507C209.932 231.211 210.703 230.041 211.701 229.08C212.699 228.12 213.898 227.394 215.211 226.955C216.525 226.516 217.92 226.375 219.294 226.543C222.196 226.445 225.028 227.44 227.231 229.331C229.435 231.221 230.848 233.869 231.193 236.752C231.628 237.294 233.029 237.023 233.379 236.481C233.359 232.752 232.83 229.044 231.808 225.458C230.766 225.418 229.734 225.235 228.741 224.916C226.089 224.184 223.355 223.789 220.605 223.741C209.226 223.741 202.752 230.701 202.752 239.283C202.931 242.45 203.887 245.523 205.536 248.233C207.184 250.943 209.474 253.205 212.204 254.82L220.52 260.419C222.784 261.64 224.657 263.475 225.926 265.712C227.195 267.949 227.808 270.499 227.695 273.068C227.743 274.493 227.488 275.911 226.948 277.23C226.408 278.549 225.594 279.739 224.561 280.721C223.527 281.702 222.297 282.454 220.952 282.926C219.607 283.398 218.178 283.579 216.758 283.458C213.091 283.264 209.6 281.824 206.863 279.377C204.125 276.93 202.304 273.623 201.701 270.001C201.351 269.458 200.04 269.639 199.599 270.272C199.749 274.583 200.545 278.847 201.961 282.922Z" fill="white"/>
<path d="M177.12 247.278C177.444 240.997 176.885 234.702 175.459 228.577C174.926 227.943 174.253 227.442 173.493 227.112C172.733 226.783 171.907 226.635 171.08 226.679L168.894 226.498C168.658 226.175 168.546 225.779 168.578 225.381C168.61 224.982 168.784 224.609 169.069 224.328C172.391 224.509 175.628 224.6 179.041 224.6C182.719 224.6 185.08 224.509 188.233 224.328C188.53 224.601 188.713 224.976 188.746 225.379C188.778 225.781 188.658 226.181 188.408 226.498L186.306 226.679C185.454 226.643 184.607 226.822 183.842 227.2C183.078 227.579 182.422 228.143 181.933 228.842C180.842 234.923 180.431 241.106 180.707 247.278V257.487C181.323 265.184 179.149 272.846 174.583 279.074C172.395 281.257 169.782 282.969 166.907 284.104C164.032 285.239 160.955 285.773 157.865 285.673C151.99 286.052 146.177 284.288 141.504 280.707C136.865 276.729 134.673 270.131 134.673 259.385V238.063C134.673 228.667 134.504 227.131 129.425 226.679L127.233 226.498C126.713 226.136 126.888 224.6 127.414 224.328C131.786 224.509 134.758 224.6 138.267 224.6C141.849 224.6 144.741 224.509 149.029 224.328C149.555 224.6 149.724 226.136 149.204 226.498L147.103 226.679C142.029 227.131 141.849 228.667 141.849 238.063V257.577C141.849 272.125 146.227 281.701 159.617 281.701C172.3 281.701 177.12 271.402 177.12 257.667V247.278Z" fill="white"/>
<path d="M71.8506 260.376C72.1604 261.029 72.4682 261.681 72.7749 262.33C74.4594 265.897 76.1113 269.394 77.8845 272.754H78.0596C80.2071 268.9 82.2058 264.678 84.1907 260.486L84.7997 259.2L93.0257 241.946C96.2327 236.593 98.4829 230.722 99.6754 224.596C101.857 224.803 104.049 224.895 106.24 224.873C108.427 224.873 111.314 224.777 114.026 224.596C114.275 224.916 114.419 225.306 114.435 225.711C114.451 226.117 114.34 226.517 114.116 226.856L112.28 227.042C106.766 227.579 106.065 229.302 106.156 235.624C106.194 237.74 106.229 240.206 106.266 242.904L106.266 242.913C106.398 252.414 106.571 264.794 107.116 274.924L107.154 275.595C107.378 279.68 107.5 281.897 111.404 282.24L114.206 282.511C114.458 282.845 114.578 283.259 114.545 283.675C114.512 284.092 114.327 284.482 114.026 284.771C110.444 284.59 106.851 284.5 103.704 284.5C100.642 284.5 96.7037 284.59 93.1105 284.771C92.8129 284.479 92.6312 284.089 92.599 283.674C92.5668 283.258 92.6863 282.845 92.9353 282.511L95.4777 282.24C99.7658 281.794 99.7658 280.347 99.7658 274.562L99.5059 236.884H99.3251C98.9817 237.447 97.7788 239.983 96.4805 242.72C95.4729 244.844 94.4067 247.092 93.6415 248.63L85.8506 264.443C81.9127 272.393 77.9749 280.884 76.3986 285.042C76.2939 285.17 76.1591 285.27 76.0063 285.333C75.8535 285.396 75.6874 285.421 75.5229 285.404C75.3738 285.403 75.2267 285.37 75.0913 285.308C74.9558 285.245 74.8353 285.155 74.7376 285.042C73.4769 280.977 70.26 273.992 68.082 269.263C67.693 268.419 67.3371 267.646 67.0314 266.974L59.1613 249.539C58.3906 247.794 57.6188 245.953 56.8407 244.097C55.765 241.531 54.677 238.935 53.5625 236.522H53.3873C53.037 242.127 52.7715 247.364 52.506 252.607C52.2461 258.121 51.8958 266.161 51.8958 273.839C51.8958 280.522 52.4212 281.969 55.8337 282.24L59.1613 282.511C59.7715 283.054 59.6811 284.5 59.0709 284.771C56.0935 284.59 52.6811 284.5 49.3591 284.5C46.5568 284.5 43.4043 284.59 40.4325 284.771C40.1524 284.47 39.9826 284.082 39.9508 283.672C39.919 283.261 40.027 282.852 40.2574 282.511L42.1839 282.24C45.8563 281.698 47.0822 281.155 47.6077 274.833C48.1331 268.867 48.5681 263.901 49.0935 254.958C49.5342 247.455 49.8845 239.777 50.0596 234.811C50.2348 229.116 49.5342 227.76 44.1952 227.042L42.7941 226.856C42.5681 226.501 42.479 226.076 42.5435 225.66C42.6079 225.244 42.8215 224.866 43.1444 224.596C45.7715 224.777 47.8676 224.873 50.0596 224.873C52.4846 224.903 54.9096 224.811 57.3252 224.596C57.7127 229.842 59.2645 234.935 61.8675 239.506L71.8506 260.376Z" fill="white"/>
<path d="M256.564 238.919C256.564 229.343 256.389 227.806 251.225 227.354L249.039 227.173C248.513 226.811 248.688 225.184 249.214 224.913C253.592 225.1 256.564 225.184 260.242 225.184C263.739 225.184 266.717 225.1 271.089 224.913C271.615 225.184 271.79 226.811 271.265 227.173L269.078 227.354C263.914 227.806 263.739 229.343 263.739 238.919V271.083C263.739 280.659 263.914 281.924 269.078 282.557L271.265 282.828C271.79 283.19 271.615 284.817 271.089 285.088C266.717 284.908 263.739 284.817 260.242 284.817C256.564 284.817 253.592 284.908 249.214 285.088C248.93 284.789 248.757 284.401 248.725 283.989C248.693 283.578 248.804 283.168 249.039 282.828L251.225 282.557C256.389 281.924 256.564 280.659 256.564 271.083V238.919Z" fill="white"/>
<path fill-rule="evenodd" clip-rule="evenodd" d="M388.317 250.323C387.668 257.056 384.805 263.385 380.175 268.317C378.856 269.975 377.19 271.324 375.293 272.269C373.397 273.214 371.316 273.732 369.198 273.786C364.288 273.786 361.062 270.057 361.52 263.244C362.257 256.558 365.203 250.309 369.893 245.487C371.21 243.946 372.83 242.693 374.653 241.807C376.475 240.92 378.461 240.419 380.486 240.334C385.938 240.334 388.622 244.537 388.317 250.323ZM374.339 246.52C370.295 252.449 367.67 259.228 366.667 266.334C366.514 269.108 367.588 271.407 369.814 271.407C371.503 271.407 373.418 270.696 375.876 267.283C379.578 261.405 382.01 254.818 383.017 247.944C383.096 245.487 382.633 242.713 379.949 242.713C378.413 242.713 376.571 243.43 374.339 246.52Z" fill="white"/>
<path d="M452.583 244.539L445.441 266.098C444.984 267.606 445.362 268.081 445.978 268.081C449.347 266.318 452.325 263.891 454.73 260.945C455.498 260.945 455.961 261.42 455.803 262.375C452.512 267.908 447.244 271.987 441.063 273.787C440.522 273.728 440.018 273.482 439.639 273.091C439.261 272.7 439.031 272.189 438.989 271.646C439.123 270.096 439.487 268.575 440.069 267.132L447.515 244.539H441.526C441.415 244.127 441.436 243.691 441.588 243.292C441.739 242.893 442.012 242.553 442.368 242.318L448.509 241.211L452.814 233.363C453.288 233.123 453.825 233.04 454.349 233.125C454.873 233.21 455.357 233.46 455.73 233.838L453.504 241.606H461.871C462.099 242.124 462.131 242.706 461.962 243.246C461.792 243.785 461.433 244.245 460.95 244.539H452.583Z" fill="white"/>
<path d="M477.662 232.647L483.193 216.477L482.888 216.008C479.833 216.274 476.818 216.885 473.9 217.827C473.742 217.941 473.632 218.109 473.59 218.298C473.548 218.488 473.578 218.687 473.673 218.856L475.289 219.963C476.493 220.827 476.141 221.915 474.512 226.967L474.442 227.183L459.849 271.726C459.238 273.551 461.233 273.788 462.08 273.788C462.382 273.799 462.68 273.712 462.928 273.54C463.177 273.368 463.363 273.12 463.459 272.833C466.15 267.118 469.256 261.608 472.753 256.347C475.47 252.377 478.754 248.826 482.498 245.805C483.648 244.708 485.09 243.964 486.651 243.664C487.719 243.664 488.261 244.539 488.261 246.042C487.296 253.067 485.437 259.94 482.73 266.494C481.577 269.268 480.815 270.46 479.662 270.46C478.918 270.296 478.229 269.942 477.662 269.432C477.37 269.154 476.991 268.985 476.589 268.952C475.995 269.053 475.459 269.366 475.078 269.832C474.697 270.299 474.497 270.887 474.515 271.488C474.515 272.121 474.826 273.788 477.357 273.788C478.449 273.668 479.506 273.333 480.468 272.802C481.43 272.272 482.277 271.557 482.962 270.698C484.937 268.789 486.618 266.597 487.95 264.195C491.236 258.505 493.277 252.183 493.939 245.647C493.939 242.873 492.713 240.336 489.334 240.336C486.64 240.58 484.09 241.661 482.041 243.426C477.241 247.018 473.132 251.449 469.911 256.505L469.758 256.347L477.662 232.647Z" fill="white"/>
<path fill-rule="evenodd" clip-rule="evenodd" d="M522.76 245.094C522.76 251.116 515.161 255.083 504.105 258.252C503.338 260.524 502.974 262.912 503.031 265.309C502.962 265.849 503.004 266.398 503.154 266.923C503.303 267.447 503.558 267.935 503.903 268.357C504.248 268.779 504.675 269.127 505.158 269.379C505.642 269.631 506.171 269.782 506.715 269.823C509.478 269.823 511.398 268.241 514.777 265.224C514.939 265.226 515.099 265.267 515.244 265.341C515.388 265.415 515.513 265.522 515.61 265.652C515.707 265.783 515.772 265.934 515.801 266.094C515.83 266.254 515.822 266.418 515.777 266.574C514.452 268.669 512.645 270.416 510.508 271.671C508.37 272.926 505.964 273.652 503.489 273.789C498.879 273.789 497.274 269.348 497.274 265.467C497.601 261.314 498.786 257.275 500.755 253.604C502.725 249.934 505.435 246.713 508.715 244.145C511.239 241.825 514.504 240.475 517.93 240.337C519.193 240.351 520.403 240.855 521.303 241.742C522.204 242.629 522.726 243.83 522.76 245.094ZM510.557 246.597C508.143 249.339 506.22 252.478 504.873 255.874C508.771 254.888 512.327 252.861 515.161 250.009C516.759 248.618 517.819 246.711 518.156 244.619C518.178 244.379 518.149 244.137 518.069 243.91C517.99 243.682 517.862 243.474 517.694 243.301C517.527 243.128 517.324 242.992 517.099 242.905C516.874 242.818 516.633 242.78 516.393 242.794C515.314 242.794 513.319 243.506 510.557 246.597Z" fill="white"/>
<path d="M545.435 282.922C549.605 285.233 554.318 286.386 559.085 286.26C570.463 286.26 577.729 279.486 577.729 269.549C577.602 265.947 576.522 262.444 574.599 259.396C572.677 256.348 569.981 253.864 566.785 252.198L559.785 247.679C557.728 246.581 555.974 244.993 554.677 243.056C553.38 241.118 552.581 238.891 552.35 236.571C552.235 235.192 552.428 233.804 552.917 232.508C553.405 231.213 554.175 230.042 555.173 229.082C556.17 228.122 557.368 227.396 558.681 226.956C559.994 226.517 561.388 226.376 562.763 226.543C565.664 226.444 568.497 227.439 570.701 229.329C572.904 231.22 574.317 233.869 574.661 236.752C575.102 237.294 576.503 237.023 576.853 236.481C576.837 232.752 576.306 229.043 575.277 225.458C574.234 225.418 573.202 225.235 572.209 224.916C569.557 224.184 566.824 223.789 564.073 223.741C552.7 223.741 546.226 230.701 546.226 239.283C546.405 242.449 547.361 245.522 549.008 248.231C550.656 250.941 552.944 253.203 555.672 254.82L563.988 260.419C566.252 261.64 568.125 263.475 569.394 265.712C570.663 267.949 571.276 270.499 571.164 273.068C571.212 274.493 570.957 275.912 570.417 277.231C569.877 278.55 569.063 279.74 568.03 280.722C566.996 281.703 565.766 282.455 564.421 282.927C563.076 283.398 561.646 283.58 560.226 283.458C556.559 283.265 553.069 281.825 550.332 279.378C547.595 276.931 545.776 273.623 545.175 270.001C544.825 269.458 543.508 269.639 543.073 270.272C543.218 274.583 544.014 278.848 545.435 282.922Z" fill="white"/>
<path d="M607.214 271.264C607.214 280.75 607.389 281.925 612.988 282.557L615.35 282.823C615.584 283.162 615.695 283.572 615.664 283.983C615.633 284.394 615.463 284.782 615.18 285.083C610.191 284.908 607.304 284.812 603.802 284.812C600.129 284.812 596.977 284.908 593.124 285.083C592.839 284.784 592.667 284.395 592.636 283.983C592.605 283.571 592.717 283.161 592.954 282.823L594.79 282.557C599.864 281.834 600.039 280.75 600.039 271.264V237.925C600.039 230.247 599.864 228.71 595.926 228.258L592.773 227.896C592.629 227.74 592.519 227.555 592.449 227.354C592.38 227.153 592.353 226.939 592.37 226.727C592.387 226.515 592.447 226.308 592.548 226.121C592.648 225.933 592.787 225.768 592.954 225.637C598.706 225.02 604.493 224.779 610.276 224.913C616.108 224.499 621.938 225.753 627.084 228.529C629.304 230.01 631.112 232.03 632.336 234.401C633.561 236.772 634.162 239.416 634.084 242.083C634.184 245.07 633.409 248.021 631.853 250.573C630.297 253.125 628.028 255.166 625.327 256.444C621.546 258.216 617.424 259.141 613.248 259.156C612.643 258.885 612.643 257.529 613.169 257.348C615.017 257.216 616.82 256.715 618.472 255.877C620.124 255.038 621.591 253.878 622.789 252.465C623.987 251.051 624.89 249.413 625.446 247.646C626.002 245.878 626.2 244.018 626.028 242.173C626.23 240.257 626.009 238.32 625.378 236.499C624.747 234.678 623.723 233.019 622.379 231.638C621.034 230.258 619.402 229.191 617.598 228.513C615.795 227.835 613.864 227.563 611.943 227.716C607.304 227.716 607.214 228.077 607.214 230.97V271.264Z" fill="white"/>
<path d="M660.764 258.526C660.764 255.814 660.94 255.633 665.143 255.633H690.171C694.369 255.633 694.544 255.814 694.544 258.526V271.266C694.544 280.746 694.544 281.65 689.211 282.554L687.544 282.826C687.31 283.165 687.199 283.575 687.231 283.987C687.263 284.398 687.435 284.786 687.719 285.085C691.572 284.905 694.719 284.814 698.307 284.814C701.719 284.814 704.697 284.905 708.894 285.085C709.425 284.814 709.595 283.187 709.07 282.826L706.968 282.554C701.894 281.927 701.719 280.746 701.719 271.266V238.741C701.719 229.249 701.894 227.899 706.968 227.357L708.81 227.176C709.335 226.814 709.16 225.181 708.635 224.916C704.697 225.097 701.719 225.181 698.307 225.181C694.719 225.181 691.747 225.097 687.719 224.916C687.194 225.181 687.019 226.814 687.544 227.176L689.211 227.357C694.369 227.899 694.544 229.249 694.544 238.741V249.131C694.544 251.927 694.369 252.018 690.171 252.018H665.143C660.94 252.018 660.764 251.927 660.764 249.131V238.741C660.764 229.249 660.94 227.899 666.013 227.357L667.68 227.176C668.205 226.814 668.03 225.181 667.505 224.916C663.742 225.097 660.764 225.181 657.352 225.181C655.052 225.181 653.047 225.116 650.856 225.044C649.464 224.999 647.996 224.951 646.329 224.916C645.798 225.181 645.623 226.814 646.154 227.176L648.426 227.357C652.979 227.718 653.589 229.249 653.589 238.741V271.266C653.589 280.746 653.414 281.65 648.516 282.554L647.03 282.826C646.795 283.164 646.683 283.574 646.714 283.986C646.745 284.397 646.916 284.785 647.2 285.085C648.352 285.055 649.455 285.014 650.553 284.973C652.712 284.894 654.859 284.814 657.352 284.814C660.764 284.814 663.742 284.905 668.465 285.085C668.996 284.814 669.171 283.187 668.646 282.826L666.103 282.554C661.205 282.012 660.764 280.746 660.764 271.266V258.526Z" fill="white"/>
<path d="M730.68 238.741C730.68 229.345 730.511 227.989 725.347 227.357L723.946 227.176C723.42 226.814 723.595 225.193 724.121 224.916C727.878 225.097 730.855 225.193 734.443 225.193H750.9C754.84 225.309 758.784 225.217 762.714 224.916C763.41 228.891 763.876 232.904 764.109 236.933C763.827 237.22 763.451 237.397 763.05 237.43C762.648 237.463 762.248 237.351 761.923 237.114L761.765 236.6C760.542 232.611 759.636 229.659 755.273 228.526C752.471 228.053 749.627 227.873 746.787 227.989H740.482C737.861 227.989 737.861 228.17 737.861 231.605V249.673C737.861 252.198 738.121 252.198 740.742 252.198H745.827C748.316 252.314 750.81 252.134 753.256 251.662C754.313 251.3 754.923 250.752 755.364 248.498L756.059 244.792C756.382 244.523 756.794 244.383 757.214 244.4C757.635 244.416 758.034 244.588 758.335 244.882C758.335 245.843 758.267 247.069 758.19 248.436C758.094 250.155 757.985 252.099 757.985 254.012C757.985 255.836 758.095 257.718 758.192 259.37C758.268 260.66 758.335 261.809 758.335 262.679C758.037 262.977 757.637 263.152 757.216 263.17C756.794 263.188 756.381 263.047 756.059 262.775L755.273 259.249C755.225 258.468 754.94 257.721 754.455 257.107C753.971 256.493 753.31 256.042 752.561 255.814C750.343 255.396 748.082 255.244 745.827 255.362H740.742C738.121 255.362 737.861 255.453 737.861 257.803V270.537C737.861 275.328 738.121 278.407 739.522 279.939C740.573 281.023 742.409 282.018 750.109 282.018C753.898 282.43 757.732 281.966 761.313 280.662C764.056 278.282 766.186 275.276 767.522 271.899C767.706 271.793 767.911 271.725 768.122 271.7C768.333 271.674 768.548 271.691 768.752 271.75C768.957 271.809 769.147 271.909 769.312 272.043C769.478 272.177 769.614 272.344 769.714 272.532C768.744 276.816 767.427 281.014 765.776 285.085C757.895 284.905 750.109 284.82 742.324 284.82H734.443C730.68 284.82 727.708 284.905 722.544 285.085C722.26 284.786 722.088 284.399 722.055 283.987C722.022 283.576 722.131 283.166 722.364 282.826L725.256 282.56C730.245 282.102 730.68 280.752 730.68 271.266V238.741Z" fill="white"/>
<path fill-rule="evenodd" clip-rule="evenodd" d="M784.494 227.895C788.082 228.347 788.348 229.884 788.348 238.466V270.901C788.348 280.386 788.172 281.562 783.093 282.194L780.912 282.466C780.675 282.804 780.562 283.214 780.592 283.626C780.623 284.038 780.796 284.427 781.082 284.725C785.195 284.545 788.348 284.449 792.026 284.449C795.528 284.449 798.5 284.545 802.438 284.725C802.72 284.425 802.891 284.037 802.923 283.626C802.954 283.215 802.845 282.806 802.613 282.466L800.771 282.194C795.698 281.471 795.528 280.386 795.528 270.901V259.522C795.528 257.618 795.698 257.528 799.636 257.528C800.842 257.345 802.075 257.522 803.182 258.037C804.288 258.551 805.218 259.38 805.856 260.42C807.198 262.437 808.757 264.985 810.266 267.45L810.269 267.456L810.274 267.464C811.806 269.966 813.284 272.381 814.427 274.064C820.641 283.189 825.105 285.443 832.54 285.443C833.839 285.483 835.137 285.333 836.393 284.997C836.49 284.919 836.568 284.818 836.618 284.704C836.668 284.589 836.689 284.465 836.68 284.34C836.671 284.215 836.632 284.095 836.566 283.989C836.501 283.883 836.41 283.794 836.302 283.731C834.069 283.566 831.951 282.677 830.268 281.2C823.205 274.141 817.272 266.034 812.681 257.166C812.24 256.443 811.799 255.539 812.24 254.997C815.361 253.862 818.071 251.819 820.02 249.13C821.97 246.442 823.069 243.231 823.178 239.912C823.303 237.33 822.686 234.767 821.399 232.525C820.112 230.283 818.21 228.457 815.918 227.262C811.348 225.157 806.324 224.226 801.302 224.556C792.72 224.556 786.687 224.821 781.788 225.273C781.626 225.411 781.494 225.581 781.401 225.772C781.308 225.963 781.255 226.171 781.247 226.384C781.238 226.596 781.274 226.808 781.352 227.006C781.429 227.204 781.547 227.383 781.698 227.533L784.494 227.895ZM795.788 254.369C795.5 253.403 795.411 252.388 795.528 251.386V230.245C795.528 227.714 795.788 227.353 801.206 227.353C803.072 227.22 804.945 227.488 806.698 228.139C808.452 228.79 810.046 229.809 811.373 231.127C812.701 232.445 813.73 234.032 814.393 235.781C815.057 237.53 815.338 239.401 815.218 241.268C815.431 243.349 815.145 245.451 814.384 247.399C813.622 249.348 812.407 251.086 810.839 252.471C808.181 254.238 805.01 255.065 801.828 254.821C797.365 254.821 796.048 254.635 795.788 254.369Z" fill="white"/>
<path d="M851.349 238.741C851.349 229.345 851.174 227.989 846.016 227.357L844.615 227.176C844.083 226.814 844.264 225.193 844.79 224.916C848.552 225.097 851.524 225.193 855.112 225.193H871.564C875.504 225.31 879.447 225.217 883.377 224.916C884.078 228.891 884.546 232.903 884.778 236.933C884.495 237.22 884.118 237.397 883.716 237.43C883.313 237.463 882.913 237.351 882.586 237.114L882.432 236.611C881.212 232.616 880.309 229.66 875.942 228.526C873.138 228.053 870.292 227.874 867.451 227.989H861.151C858.53 227.989 858.53 228.17 858.53 231.605V249.673C858.53 252.198 858.79 252.198 861.411 252.198H866.49C868.981 252.314 871.477 252.134 873.925 251.662C874.976 251.3 875.592 250.752 876.027 248.498L876.727 244.792C877.051 244.523 877.463 244.383 877.883 244.4C878.304 244.416 878.703 244.588 879.004 244.882C879.004 245.842 878.936 247.069 878.859 248.435C878.763 250.155 878.654 252.098 878.654 254.012C878.654 255.834 878.764 257.716 878.861 259.366C878.937 260.656 879.004 261.809 879.004 262.679C878.706 262.977 878.306 263.152 877.885 263.17C877.463 263.188 877.05 263.047 876.727 262.775L875.942 259.249C875.893 258.468 875.607 257.72 875.121 257.106C874.635 256.493 873.974 256.042 873.225 255.814C871.006 255.396 868.745 255.244 866.49 255.362H861.411C858.79 255.362 858.53 255.453 858.53 257.803V270.537C858.53 275.328 858.79 278.407 860.185 279.939C861.236 281.023 863.078 282.018 870.773 282.018C874.563 282.43 878.398 281.966 881.982 280.662C884.723 278.28 886.853 275.275 888.191 271.899C888.375 271.793 888.578 271.725 888.789 271.699C889 271.674 889.214 271.691 889.419 271.75C889.623 271.809 889.813 271.909 889.978 272.043C890.142 272.177 890.278 272.344 890.377 272.532C889.411 276.817 888.096 281.015 886.445 285.085C878.564 284.905 870.773 284.82 862.987 284.82H855.112C851.349 284.82 848.377 284.905 843.213 285.085C842.929 284.786 842.756 284.399 842.724 283.987C842.691 283.576 842.8 283.166 843.033 282.826L845.925 282.56C850.908 282.102 851.349 280.752 851.349 271.266V238.741Z" fill="white"/>
<path d="M903.761 282.922C907.934 285.233 912.648 286.386 917.417 286.26C928.789 286.26 936.055 279.486 936.055 269.549C935.927 265.948 934.847 262.445 932.924 259.397C931.002 256.349 928.306 253.865 925.112 252.198L918.112 247.679C916.055 246.581 914.3 244.993 913.003 243.056C911.707 241.118 910.907 238.891 910.677 236.571C910.561 235.192 910.755 233.804 911.243 232.508C911.731 231.213 912.502 230.042 913.499 229.082C914.496 228.122 915.695 227.396 917.008 226.956C918.32 226.517 919.715 226.376 921.089 226.543C923.991 226.444 926.825 227.439 929.029 229.329C931.234 231.22 932.648 233.869 932.993 236.752C933.428 237.294 934.829 237.023 935.179 236.481C935.16 232.752 934.63 229.043 933.603 225.458C932.562 225.418 931.532 225.236 930.541 224.916C927.887 224.184 925.152 223.79 922.4 223.741C911.021 223.741 904.552 230.701 904.552 239.283C904.732 242.45 905.688 245.523 907.336 248.233C908.985 250.943 911.275 253.205 914.004 254.82L922.315 260.419C924.579 261.64 926.453 263.475 927.723 265.712C928.993 267.949 929.607 270.498 929.496 273.068C929.543 274.493 929.288 275.912 928.747 277.232C928.207 278.551 927.392 279.74 926.358 280.722C925.324 281.704 924.094 282.455 922.749 282.927C921.403 283.398 919.973 283.58 918.552 283.458C914.886 283.263 911.396 281.823 908.659 279.376C905.921 276.929 904.1 273.622 903.496 270.001C903.151 269.458 901.835 269.639 901.4 270.272C901.547 274.583 902.343 278.848 903.761 282.922Z" fill="white"/>
<rect y="318" width="976" height="2" fill="#AB8EFC"/>
<path d="M364.821 414.068H326.714L345.855 381.054L364.821 414.068ZM329.875 412.312H361.66L345.855 384.741L329.875 412.312Z" fill="#4240E5"/>
<path d="M335.322 400.02H356.22V401.776H335.322V400.02Z" fill="#4240E5"/>
<path d="M291.6 392.293C288.614 392.117 286.156 389.658 285.98 386.673L285.629 380H285.453L285.102 386.673C284.927 389.658 282.468 392.117 279.483 392.293L272.81 392.644V392.819L279.483 393.171C282.468 393.346 284.927 395.805 285.102 398.79L285.453 408.975H285.629L285.98 398.79C286.156 395.805 288.614 393.346 291.6 393.171L298.273 392.819V392.644L291.6 392.293Z" fill="#1CCBA8"/>
<path d="M279.126 404.936C277.194 404.761 275.614 403.18 275.438 401.249L275.087 396.858H274.911L274.56 401.249C274.384 403.18 272.804 404.761 270.872 404.936L266.482 405.112V405.288L270.872 405.639C272.804 405.814 274.384 407.395 274.56 409.327L274.911 416H275.087L275.438 409.327C275.614 407.395 277.194 405.814 279.126 405.639L283.516 405.288V405.112L279.126 404.936ZM271.575 389.132C269.643 388.956 268.062 387.376 267.887 385.444L267.536 381.054L267.184 385.444C267.009 387.376 265.428 388.956 263.497 389.132L259.106 389.307V389.483L263.497 389.834C265.428 390.01 267.009 391.59 267.184 393.522L267.536 400.195H267.711L268.062 393.522C268.238 391.59 269.819 390.01 271.75 389.834L275.965 389.483V389.307L271.575 389.132Z" fill="#1CCBA8"/>
<path d="M422.606 414.22C422.225 414.22 421.917 414.176 421.682 414.088C421.448 414.029 421.33 413.912 421.33 413.736C421.33 413.531 421.448 413.369 421.682 413.252C421.917 413.135 422.284 413.032 422.782 412.944C423.897 412.739 424.748 412.387 425.334 411.888C425.921 411.36 426.214 410.568 426.214 409.512V392.44C426.214 391.091 426.185 390.064 426.126 389.36C426.068 388.627 425.965 388.113 425.818 387.82C425.701 387.527 425.525 387.365 425.29 387.336C424.88 387.248 424.44 387.204 423.97 387.204C423.53 387.175 422.929 387.16 422.166 387.16H420.098C419.394 387.16 418.69 387.307 417.986 387.6C417.312 387.864 416.813 388.289 416.49 388.876C416.402 389.023 416.256 389.243 416.05 389.536C415.845 389.8 415.625 390.035 415.39 390.24C415.156 390.445 414.921 390.548 414.686 390.548C414.569 390.548 414.481 390.489 414.422 390.372C414.393 390.255 414.378 390.123 414.378 389.976C414.378 389.683 414.452 389.389 414.598 389.096C415.009 388.245 415.302 387.497 415.478 386.852C415.684 386.177 415.845 385.385 415.962 384.476C416.021 383.977 416.124 383.684 416.27 383.596C416.446 383.508 416.593 383.464 416.71 383.464C416.828 383.464 417.004 383.64 417.238 383.992C417.502 384.344 417.693 384.637 417.81 384.872C417.986 385.165 418.382 385.385 418.998 385.532C419.644 385.679 420.274 385.752 420.89 385.752H436.378C437.405 385.752 438.241 385.693 438.886 385.576C439.532 385.459 440.089 385.297 440.558 385.092C440.91 384.916 441.189 384.725 441.394 384.52C441.629 384.315 441.922 384.212 442.274 384.212C442.362 384.212 442.436 384.329 442.494 384.564C442.553 384.769 442.582 384.989 442.582 385.224C442.582 385.371 442.553 385.576 442.494 385.84C442.465 386.104 442.436 386.309 442.406 386.456C442.318 386.984 442.23 387.365 442.142 387.6C442.084 387.835 442.04 388.04 442.01 388.216C441.981 388.392 441.966 388.671 441.966 389.052V389.58C441.966 389.844 441.908 390.152 441.79 390.504C441.673 390.827 441.497 390.988 441.262 390.988C441.057 390.988 440.896 390.827 440.778 390.504C440.661 390.181 440.544 389.741 440.426 389.184C440.309 388.568 439.957 388.084 439.37 387.732C438.784 387.351 437.786 387.16 436.378 387.16H431.934C431.289 387.16 430.805 387.248 430.482 387.424C430.16 387.6 429.954 388.04 429.866 388.744C429.778 389.448 429.734 390.607 429.734 392.22V409.512C429.734 410.568 430.042 411.36 430.658 411.888C431.274 412.387 432.125 412.739 433.21 412.944C433.709 413.032 434.076 413.135 434.31 413.252C434.545 413.369 434.662 413.531 434.662 413.736C434.662 413.912 434.545 414.029 434.31 414.088C434.076 414.176 433.768 414.22 433.386 414.22C432.594 414.22 431.934 414.191 431.406 414.132C430.908 414.103 430.424 414.073 429.954 414.044C429.485 414.015 428.913 414 428.238 414C427.505 414 426.86 414.015 426.302 414.044C425.774 414.073 425.217 414.103 424.63 414.132C424.073 414.191 423.398 414.22 422.606 414.22ZM458.396 414.616C456.46 414.616 454.612 414.279 452.852 413.604C451.092 412.9 449.537 411.917 448.188 410.656C446.838 409.365 445.768 407.84 444.976 406.08C444.184 404.291 443.788 402.311 443.788 400.14C443.788 398.145 444.11 396.239 444.756 394.42C445.401 392.572 446.354 390.929 447.616 389.492C448.877 388.055 450.446 386.911 452.324 386.06C454.201 385.209 456.357 384.784 458.792 384.784C460.728 384.784 462.576 385.136 464.336 385.84C466.096 386.515 467.65 387.497 469 388.788C470.349 390.049 471.42 391.575 472.212 393.364C473.004 395.124 473.4 397.089 473.4 399.26C473.4 401.225 473.077 403.132 472.432 404.98C471.786 406.828 470.833 408.471 469.572 409.908C468.31 411.345 466.741 412.489 464.864 413.34C462.986 414.191 460.83 414.616 458.396 414.616ZM459.056 412.856C461.314 412.856 463.192 412.387 464.688 411.448C466.184 410.48 467.298 409.145 468.032 407.444C468.794 405.713 469.176 403.704 469.176 401.416C469.176 399.392 468.941 397.485 468.472 395.696C468.002 393.907 467.298 392.337 466.36 390.988C465.45 389.609 464.306 388.539 462.928 387.776C461.549 387.013 459.936 386.632 458.088 386.632C455.888 386.632 454.04 387.101 452.544 388.04C451.048 388.979 449.918 390.299 449.156 392C448.393 393.672 448.012 395.652 448.012 397.94C448.012 399.993 448.232 401.915 448.672 403.704C449.141 405.493 449.83 407.077 450.74 408.456C451.678 409.835 452.837 410.92 454.216 411.712C455.594 412.475 457.208 412.856 459.056 412.856ZM478.006 414.22C477.625 414.22 477.317 414.176 477.082 414.088C476.848 414.029 476.73 413.912 476.73 413.736C476.73 413.384 477.214 413.12 478.182 412.944C479.297 412.739 480.06 412.401 480.47 411.932C480.91 411.433 481.13 410.641 481.13 409.556V389.756C481.13 388.729 480.91 388.011 480.47 387.6C480.06 387.16 479.297 386.837 478.182 386.632C477.214 386.456 476.73 386.163 476.73 385.752C476.73 385.576 476.848 385.459 477.082 385.4C477.317 385.312 477.625 385.268 478.006 385.268C478.798 385.268 479.429 385.283 479.898 385.312C480.397 385.312 480.866 385.327 481.306 385.356C481.746 385.356 482.289 385.356 482.934 385.356C483.492 385.356 483.932 385.356 484.254 385.356C484.606 385.327 484.988 385.312 485.398 385.312C485.809 385.283 486.41 385.268 487.202 385.268C487.584 385.268 487.892 385.312 488.126 385.4C488.361 385.459 488.478 385.576 488.478 385.752C488.478 385.957 488.361 386.133 488.126 386.28C487.892 386.427 487.525 386.544 487.026 386.632C485.941 386.837 485.266 387.204 485.002 387.732C484.768 388.231 484.65 388.905 484.65 389.756V397.984C484.65 398.101 484.65 398.277 484.65 398.512C484.68 398.717 484.753 398.82 484.87 398.82C485.017 398.82 485.208 398.732 485.442 398.556C485.706 398.38 485.912 398.204 486.058 398.028L494.858 389.052C495.093 388.817 495.254 388.597 495.342 388.392C495.46 388.157 495.518 387.937 495.518 387.732C495.518 387.204 495.24 386.867 494.682 386.72C494.184 386.573 493.832 386.441 493.626 386.324C493.421 386.207 493.318 386.045 493.318 385.84C493.318 385.664 493.436 385.547 493.67 385.488C493.905 385.4 494.213 385.356 494.594 385.356H496.97C497.821 385.356 498.76 385.341 499.786 385.312C500.813 385.283 501.737 385.253 502.558 385.224C503.409 385.195 503.922 385.18 504.098 385.18C504.392 385.18 504.626 385.224 504.802 385.312C504.978 385.4 505.066 385.517 505.066 385.664C505.066 385.869 504.949 386.045 504.714 386.192C504.48 386.339 504.113 386.456 503.614 386.544C502.529 386.749 501.4 387.072 500.226 387.512C499.053 387.952 497.953 388.597 496.926 389.448C495.87 390.328 494.888 391.193 493.978 392.044C493.098 392.865 492.218 393.731 491.338 394.64C490.458 395.52 489.505 396.532 488.478 397.676C488.302 397.852 488.376 398.116 488.698 398.468L499.346 409.82C499.992 410.524 500.505 411.067 500.886 411.448C501.297 411.829 501.737 412.137 502.206 412.372C502.705 412.577 503.365 412.768 504.186 412.944C504.685 413.061 505.052 413.179 505.286 413.296C505.521 413.384 505.638 413.531 505.638 413.736C505.638 413.912 505.521 414.029 505.286 414.088C505.052 414.176 504.744 414.22 504.362 414.22C503.512 414.22 502.778 414.191 502.162 414.132C501.546 414.103 500.945 414.073 500.358 414.044C499.772 414.015 499.068 414 498.246 414C497.689 414 497.205 414 496.794 414C496.384 414.029 495.68 414.044 494.682 414.044C494.301 414.044 493.993 414.015 493.758 413.956C493.524 413.868 493.406 413.736 493.406 413.56C493.406 413.237 493.802 412.988 494.594 412.812C495.416 412.607 495.826 412.313 495.826 411.932C495.826 411.756 495.753 411.58 495.606 411.404C495.489 411.228 495.342 411.037 495.166 410.832L485.838 400.536C485.662 400.36 485.472 400.199 485.266 400.052C485.09 399.876 484.944 399.788 484.826 399.788C484.709 399.788 484.65 399.905 484.65 400.14C484.65 400.375 484.65 400.565 484.65 400.712C484.65 402.091 484.665 403.411 484.694 404.672C484.753 405.904 484.812 407.4 484.87 409.16C484.9 409.776 484.988 410.348 485.134 410.876C485.31 411.404 485.589 411.844 485.97 412.196C486.381 412.548 486.953 412.797 487.686 412.944C488.185 413.032 488.552 413.135 488.786 413.252C489.021 413.369 489.138 413.531 489.138 413.736C489.138 413.912 489.021 414.029 488.786 414.088C488.552 414.176 488.244 414.22 487.862 414.22C487.07 414.22 486.454 414.191 486.014 414.132C485.604 414.073 485.222 414.029 484.87 414C484.548 413.941 484.108 413.912 483.55 413.912C482.846 413.912 482.216 413.941 481.658 414C481.13 414.029 480.588 414.073 480.03 414.132C479.473 414.191 478.798 414.22 478.006 414.22ZM513.323 414.22C512.942 414.22 512.634 414.176 512.399 414.088C512.165 414.029 512.047 413.912 512.047 413.736C512.047 413.531 512.165 413.369 512.399 413.252C512.634 413.135 513.001 413.032 513.499 412.944C514.614 412.739 515.465 412.343 516.051 411.756C516.638 411.14 516.931 410.304 516.931 409.248V402.736C516.931 402.149 516.77 401.519 516.447 400.844C516.154 400.14 515.949 399.685 515.831 399.48L510.683 391.032C510.478 390.68 510.155 390.196 509.715 389.58C509.275 388.935 508.791 388.333 508.263 387.776C507.765 387.219 507.266 386.867 506.767 386.72C506.298 386.573 505.931 386.427 505.667 386.28C505.433 386.133 505.315 385.957 505.315 385.752C505.315 385.576 505.433 385.459 505.667 385.4C505.902 385.312 506.21 385.268 506.591 385.268C507.266 385.268 508.043 385.297 508.923 385.356C509.803 385.385 510.742 385.4 511.739 385.4C512.414 385.4 513.045 385.385 513.631 385.356C514.247 385.327 514.79 385.312 515.259 385.312C515.641 385.312 515.949 385.356 516.183 385.444C516.418 385.503 516.535 385.62 516.535 385.796C516.535 386.001 516.418 386.177 516.183 386.324C515.949 386.441 515.582 386.559 515.083 386.676C514.673 386.793 514.335 386.925 514.071 387.072C513.807 387.219 513.675 387.453 513.675 387.776C513.675 388.157 513.866 388.685 514.247 389.36L518.295 396.84C518.882 397.955 519.293 398.512 519.527 398.512C519.703 398.512 519.894 398.395 520.099 398.16C520.305 397.896 520.598 397.456 520.979 396.84C521.654 395.813 522.255 394.831 522.783 393.892C523.311 392.953 523.942 391.824 524.675 390.504C524.969 390.005 525.174 389.58 525.291 389.228C525.409 388.847 525.467 388.524 525.467 388.26C525.467 387.703 525.262 387.321 524.851 387.116C524.47 386.911 524.074 386.779 523.663 386.72C523.37 386.661 523.047 386.559 522.695 386.412C522.373 386.236 522.211 386.045 522.211 385.84C522.211 385.664 522.329 385.547 522.563 385.488C522.798 385.4 523.106 385.356 523.487 385.356C524.162 385.356 524.719 385.371 525.159 385.4C525.599 385.4 526.142 385.4 526.787 385.4C527.697 385.4 528.562 385.385 529.383 385.356C530.205 385.297 530.865 385.268 531.363 385.268C531.745 385.268 532.053 385.312 532.287 385.4C532.522 385.459 532.639 385.576 532.639 385.752C532.639 385.957 532.405 386.148 531.935 386.324C531.466 386.5 530.923 386.676 530.307 386.852C529.545 387.057 528.899 387.483 528.371 388.128C527.873 388.744 527.227 389.653 526.435 390.856C525.849 391.765 525.35 392.528 524.939 393.144C524.558 393.76 524.191 394.332 523.839 394.86C523.517 395.388 523.179 395.945 522.827 396.532C522.475 397.089 522.05 397.779 521.551 398.6C521.17 399.216 520.906 399.715 520.759 400.096C520.613 400.477 520.525 400.844 520.495 401.196C520.466 401.519 520.451 401.973 520.451 402.56V409.248C520.451 410.245 520.759 411.067 521.375 411.712C521.991 412.328 522.842 412.739 523.927 412.944C524.426 413.032 524.793 413.135 525.027 413.252C525.262 413.369 525.379 413.531 525.379 413.736C525.379 413.912 525.262 414.029 525.027 414.088C524.793 414.176 524.485 414.22 524.103 414.22C523.311 414.22 522.651 414.191 522.123 414.132C521.625 414.103 521.141 414.073 520.671 414.044C520.202 414.015 519.63 414 518.955 414C518.222 414 517.577 414.015 517.019 414.044C516.491 414.073 515.934 414.103 515.347 414.132C514.79 414.191 514.115 414.22 513.323 414.22ZM546.482 414.616C544.546 414.616 542.698 414.279 540.938 413.604C539.178 412.9 537.623 411.917 536.274 410.656C534.924 409.365 533.854 407.84 533.062 406.08C532.27 404.291 531.874 402.311 531.874 400.14C531.874 398.145 532.196 396.239 532.842 394.42C533.487 392.572 534.44 390.929 535.702 389.492C536.963 388.055 538.532 386.911 540.41 386.06C542.287 385.209 544.443 384.784 546.878 384.784C548.814 384.784 550.662 385.136 552.422 385.84C554.182 386.515 555.736 387.497 557.086 388.788C558.435 390.049 559.506 391.575 560.298 393.364C561.09 395.124 561.486 397.089 561.486 399.26C561.486 401.225 561.163 403.132 560.518 404.98C559.872 406.828 558.919 408.471 557.658 409.908C556.396 411.345 554.827 412.489 552.95 413.34C551.072 414.191 548.916 414.616 546.482 414.616ZM547.142 412.856C549.4 412.856 551.278 412.387 552.774 411.448C554.27 410.48 555.384 409.145 556.118 407.444C556.88 405.713 557.262 403.704 557.262 401.416C557.262 399.392 557.027 397.485 556.558 395.696C556.088 393.907 555.384 392.337 554.446 390.988C553.536 389.609 552.392 388.539 551.014 387.776C549.635 387.013 548.022 386.632 546.174 386.632C543.974 386.632 542.126 387.101 540.63 388.04C539.134 388.979 538.004 390.299 537.242 392C536.479 393.672 536.098 395.652 536.098 397.94C536.098 399.993 536.318 401.915 536.758 403.704C537.227 405.493 537.916 407.077 538.826 408.456C539.764 409.835 540.923 410.92 542.302 411.712C543.68 412.475 545.294 412.856 547.142 412.856Z" fill="white"/>
<path d="M711.684 413.423C711.127 413.423 710.756 413.052 710.756 412.495C710.756 412.31 710.756 412.124 710.941 411.938C713.91 408.784 715.581 404.516 715.395 400.062C715.209 395.98 713.539 391.897 710.385 389.114C707.416 386.33 703.519 385.031 699.436 385.217C695.725 385.402 692.013 387.073 689.601 389.67C687.189 392.268 685.89 395.794 686.075 399.505C686.261 402.846 687.745 406 690.158 408.413C692.57 410.64 695.725 411.567 698.879 411.382C701.849 411.196 704.632 409.897 706.673 407.67C708.529 405.629 709.457 402.846 709.271 399.877C709.086 397.279 707.972 394.866 705.931 393.196C704.075 391.526 701.663 390.784 699.251 390.969C697.024 391.155 694.983 392.083 693.498 393.753C692.199 395.237 691.642 397.279 691.828 399.32C692.013 401.176 692.941 402.846 694.24 403.959C695.539 405.073 697.209 405.444 698.879 405.258C700.364 405.073 701.663 404.33 702.405 403.217C703.148 402.289 703.519 400.99 703.333 399.691C703.148 398.578 702.591 397.835 701.663 397.093C700.921 396.536 699.993 396.351 699.065 396.722C698.508 396.908 697.952 397.279 697.581 397.835C697.395 398.207 697.395 398.763 697.581 399.32C697.581 399.505 697.766 399.691 698.137 399.691C698.137 399.32 698.137 399.134 698.323 398.949C698.694 398.578 699.251 398.578 699.622 398.949C699.993 399.32 700.178 400.062 699.807 400.619C699.251 401.361 698.508 401.732 697.581 401.547C696.838 401.361 696.096 400.804 695.91 400.062C695.539 399.134 695.539 398.021 696.096 397.093C696.653 396.165 697.581 395.423 698.694 395.052C699.993 394.681 701.477 395.052 702.591 395.794C703.89 396.722 704.632 398.021 705.003 399.505C705.189 401.176 704.818 403.031 703.704 404.516C702.591 406 700.735 406.928 698.879 407.299C696.838 407.485 694.611 406.928 692.941 405.629C691.086 404.145 689.972 402.103 689.787 399.877C689.601 397.279 690.343 394.866 692.014 392.825C693.684 390.784 696.282 389.485 698.879 389.299C701.849 389.114 704.632 390.042 706.859 391.897C709.271 393.938 710.57 396.722 710.756 399.877C710.941 403.217 709.828 406.371 707.787 408.969C705.56 411.567 702.22 413.052 698.694 413.237C694.983 413.423 691.457 412.124 688.673 409.712C685.89 407.114 684.034 403.402 684.034 399.691C683.849 395.609 685.333 391.526 687.931 388.557C690.9 385.402 694.797 383.547 699.065 383.361C703.519 383.176 707.972 384.66 711.312 387.815C714.653 390.969 716.694 395.423 716.879 400.062C717.065 404.887 715.395 409.712 712.055 413.237C712.055 413.423 711.869 413.423 711.684 413.423Z" fill="#C26436"/>
<path d="M628.396 416C623.757 416 620.231 408.021 620.231 398C620.231 387.979 623.757 380 628.396 380C633.036 380 636.561 387.979 636.561 398C636.561 408.021 632.85 416 628.396 416ZM628.396 381.299C625.242 381.299 621.902 387.979 621.902 397.814C621.902 401.897 622.458 405.979 623.943 409.691C625.242 412.66 626.726 414.33 628.396 414.33C631.551 414.33 634.891 407.649 634.891 397.814C634.891 393.732 634.335 389.649 632.85 385.938C631.551 382.969 629.881 381.299 628.396 381.299Z" fill="#EA1068"/>
<path d="M638.046 408.949C633.221 408.763 628.582 407.278 624.5 405.052C620.603 403.196 617.263 400.412 614.479 397.258C612.067 394.103 611.324 391.32 612.438 389.464C613.551 387.608 616.149 386.495 620.046 386.866C624.314 387.423 628.397 388.722 632.108 390.763C641.015 395.588 646.397 402.454 644.355 406.351C643.427 408.206 641.201 408.949 638.046 408.949ZM618.562 388.165C616.149 388.165 614.479 388.907 613.737 390.021C612.994 391.505 613.737 393.732 615.778 396.144C621.345 402.268 628.768 406.165 636.933 407.278C640.087 407.464 642.314 406.907 643.056 405.423C644.541 402.639 640.273 396.516 631.551 391.876C628.025 389.835 624.129 388.536 620.046 388.165C619.489 388.351 618.933 388.165 618.562 388.165Z" fill="#EA1068"/>
<path d="M618.562 408.949C615.593 408.949 613.181 408.021 612.253 406.351C610.212 402.268 615.593 395.402 624.5 390.578C628.212 388.536 632.294 387.237 636.562 386.681C640.459 386.31 643.243 387.237 644.171 389.279C645.098 391.32 644.542 394.103 642.129 397.072C639.346 400.227 635.82 403.011 632.109 404.866C628.026 407.464 623.387 408.763 618.562 408.949ZM638.047 388.165H636.748C628.583 389.279 621.16 393.176 615.593 399.299C613.738 401.897 612.995 404.124 613.738 405.609C615.222 408.392 622.645 408.392 631.366 403.753C635.078 401.897 638.232 399.299 641.016 396.33C643.057 393.918 643.799 391.691 643.057 390.206C642.315 388.907 640.645 388.165 638.047 388.165Z" fill="#EA1068"/>
<rect x="236.106" y="365" width="503.787" height="66" rx="15" stroke="#DEACD8" stroke-width="2"/>
<defs>
<linearGradient id="paint0_linear_408_2357" x1="-82.1961" y1="64.3556" x2="988.094" y2="64.3556" gradientUnits="userSpaceOnUse">
<stop stop-color="#ED2224"/>
<stop offset="0.2353" stop-color="#EDE811"/>
<stop offset="0.25129" stop-color="#D4E217"/>
<stop offset="0.30123" stop-color="#8BD029"/>
<stop offset="0.34602" stop-color="#51C238"/>
<stop offset="0.38404" stop-color="#27B842"/>
<stop offset="0.41381" stop-color="#0DB149"/>
<stop offset="0.43165" stop-color="#04AF4B"/>
<stop offset="0.46192" stop-color="#159C67"/>
<stop offset="0.50462" stop-color="#288687"/>
<stop offset="0.54565" stop-color="#37769F"/>
<stop offset="0.5839" stop-color="#3F6CAD"/>
<stop offset="0.61658" stop-color="#4269B2"/>
<stop offset="0.78396" stop-color="#D74498"/>
<stop offset="1" stop-color="#ED1F2F"/>
</linearGradient>
<linearGradient id="paint1_linear_408_2357" x1="-82.2276" y1="65.3966" x2="988.061" y2="65.3966" gradientUnits="userSpaceOnUse">
<stop stop-color="#ED2224"/>
<stop offset="0.2353" stop-color="#EDE811"/>
<stop offset="0.25129" stop-color="#D4E217"/>
<stop offset="0.30123" stop-color="#8BD029"/>
<stop offset="0.34602" stop-color="#51C238"/>
<stop offset="0.38404" stop-color="#27B842"/>
<stop offset="0.41381" stop-color="#0DB149"/>
<stop offset="0.43165" stop-color="#04AF4B"/>
<stop offset="0.46192" stop-color="#159C67"/>
<stop offset="0.50462" stop-color="#288687"/>
<stop offset="0.54565" stop-color="#37769F"/>
<stop offset="0.5839" stop-color="#3F6CAD"/>
<stop offset="0.61658" stop-color="#4269B2"/>
<stop offset="0.78396" stop-color="#D74498"/>
<stop offset="1" stop-color="#ED1F2F"/>
</linearGradient>
<linearGradient id="paint2_linear_408_2357" x1="-82.219" y1="66.3368" x2="988.071" y2="66.3368" gradientUnits="userSpaceOnUse">
<stop stop-color="#ED2224"/>
<stop offset="0.2353" stop-color="#EDE811"/>
<stop offset="0.25129" stop-color="#D4E217"/>
<stop offset="0.30123" stop-color="#8BD029"/>
<stop offset="0.34602" stop-color="#51C238"/>
<stop offset="0.38404" stop-color="#27B842"/>
<stop offset="0.41381" stop-color="#0DB149"/>
<stop offset="0.43165" stop-color="#04AF4B"/>
<stop offset="0.46192" stop-color="#159C67"/>
<stop offset="0.50462" stop-color="#288687"/>
<stop offset="0.54565" stop-color="#37769F"/>
<stop offset="0.5839" stop-color="#3F6CAD"/>
<stop offset="0.61658" stop-color="#4269B2"/>
<stop offset="0.78396" stop-color="#D74498"/>
<stop offset="1" stop-color="#ED1F2F"/>
</linearGradient>
<linearGradient id="paint3_linear_408_2357" x1="-82.2017" y1="66.4709" x2="988.087" y2="66.4709" gradientUnits="userSpaceOnUse">
<stop stop-color="#ED2224"/>
<stop offset="0.2353" stop-color="#EDE811"/>
<stop offset="0.25129" stop-color="#D4E217"/>
<stop offset="0.30123" stop-color="#8BD029"/>
<stop offset="0.34602" stop-color="#51C238"/>
<stop offset="0.38404" stop-color="#27B842"/>
<stop offset="0.41381" stop-color="#0DB149"/>
<stop offset="0.43165" stop-color="#04AF4B"/>
<stop offset="0.46192" stop-color="#159C67"/>
<stop offset="0.50462" stop-color="#288687"/>
<stop offset="0.54565" stop-color="#37769F"/>
<stop offset="0.5839" stop-color="#3F6CAD"/>
<stop offset="0.61658" stop-color="#4269B2"/>
<stop offset="0.78396" stop-color="#D74498"/>
<stop offset="1" stop-color="#ED1F2F"/>
</linearGradient>
<linearGradient id="paint4_linear_408_2357" x1="-82.1878" y1="66.9217" x2="988.102" y2="66.9217" gradientUnits="userSpaceOnUse">
<stop stop-color="#ED2224"/>
<stop offset="0.2353" stop-color="#EDE811"/>
<stop offset="0.25129" stop-color="#D4E217"/>
<stop offset="0.30123" stop-color="#8BD029"/>
<stop offset="0.34602" stop-color="#51C238"/>
<stop offset="0.38404" stop-color="#27B842"/>
<stop offset="0.41381" stop-color="#0DB149"/>
<stop offset="0.43165" stop-color="#04AF4B"/>
<stop offset="0.46192" stop-color="#159C67"/>
<stop offset="0.50462" stop-color="#288687"/>
<stop offset="0.54565" stop-color="#37769F"/>
<stop offset="0.5839" stop-color="#3F6CAD"/>
<stop offset="0.61658" stop-color="#4269B2"/>
<stop offset="0.78396" stop-color="#D74498"/>
<stop offset="1" stop-color="#ED1F2F"/>
</linearGradient>
<linearGradient id="paint5_linear_408_2357" x1="-82.1916" y1="66.3619" x2="988.099" y2="66.3619" gradientUnits="userSpaceOnUse">
<stop stop-color="#ED2224"/>
<stop offset="0.2353" stop-color="#EDE811"/>
<stop offset="0.25129" stop-color="#D4E217"/>
<stop offset="0.30123" stop-color="#8BD029"/>
<stop offset="0.34602" stop-color="#51C238"/>
<stop offset="0.38404" stop-color="#27B842"/>
<stop offset="0.41381" stop-color="#0DB149"/>
<stop offset="0.43165" stop-color="#04AF4B"/>
<stop offset="0.46192" stop-color="#159C67"/>
<stop offset="0.50462" stop-color="#288687"/>
<stop offset="0.54565" stop-color="#37769F"/>
<stop offset="0.5839" stop-color="#3F6CAD"/>
<stop offset="0.61658" stop-color="#4269B2"/>
<stop offset="0.78396" stop-color="#D74498"/>
<stop offset="1" stop-color="#ED1F2F"/>
</linearGradient>
<linearGradient id="paint6_linear_408_2357" x1="-82.1913" y1="67.7832" x2="988.098" y2="67.7832" gradientUnits="userSpaceOnUse">
<stop stop-color="#ED2224"/>
<stop offset="0.2353" stop-color="#EDE811"/>
<stop offset="0.25129" stop-color="#D4E217"/>
<stop offset="0.30123" stop-color="#8BD029"/>
<stop offset="0.34602" stop-color="#51C238"/>
<stop offset="0.38404" stop-color="#27B842"/>
<stop offset="0.41381" stop-color="#0DB149"/>
<stop offset="0.43165" stop-color="#04AF4B"/>
<stop offset="0.46192" stop-color="#159C67"/>
<stop offset="0.50462" stop-color="#288687"/>
<stop offset="0.54565" stop-color="#37769F"/>
<stop offset="0.5839" stop-color="#3F6CAD"/>
<stop offset="0.61658" stop-color="#4269B2"/>
<stop offset="0.78396" stop-color="#D74498"/>
<stop offset="1" stop-color="#ED1F2F"/>
</linearGradient>
<linearGradient id="paint7_linear_408_2357" x1="-82.205" y1="65.6322" x2="988.084" y2="65.6322" gradientUnits="userSpaceOnUse">
<stop stop-color="#ED2224"/>
<stop offset="0.2353" stop-color="#EDE811"/>
<stop offset="0.25129" stop-color="#D4E217"/>
<stop offset="0.30123" stop-color="#8BD029"/>
<stop offset="0.34602" stop-color="#51C238"/>
<stop offset="0.38404" stop-color="#27B842"/>
<stop offset="0.41381" stop-color="#0DB149"/>
<stop offset="0.43165" stop-color="#04AF4B"/>
<stop offset="0.46192" stop-color="#159C67"/>
<stop offset="0.50462" stop-color="#288687"/>
<stop offset="0.54565" stop-color="#37769F"/>
<stop offset="0.5839" stop-color="#3F6CAD"/>
<stop offset="0.61658" stop-color="#4269B2"/>
<stop offset="0.78396" stop-color="#D74498"/>
<stop offset="1" stop-color="#ED1F2F"/>
</linearGradient>
</defs>
</svg>
