<svg width="81" height="48" viewBox="0 0 81 48" fill="none" xmlns="http://www.w3.org/2000/svg">
<g id="Logo / AWS">
<g id="Vector">
<path fill-rule="evenodd" clip-rule="evenodd" d="M22.7869 17.4239C22.7601 18.2291 22.8634 19.0334 23.0928 19.8062C23.3279 20.4679 23.6191 21.1087 23.9633 21.7216C24.078 21.9043 24.1429 22.1135 24.1516 22.3287C24.1361 22.4927 24.0809 22.6505 23.9907 22.7888C23.9006 22.9271 23.7781 23.0417 23.6338 23.1229L21.9397 24.2438C21.7312 24.3858 21.4866 24.4667 21.2339 24.4774C21.082 24.4721 20.9328 24.4363 20.7953 24.3721C20.6578 24.3079 20.5349 24.2166 20.434 24.1038C20.0603 23.734 19.736 23.3179 19.4693 22.8659C19.2024 22.415 18.9279 21.8934 18.6458 21.3011C16.5437 23.7616 13.9085 24.9917 10.7403 24.9914C8.48147 24.9914 6.69326 24.353 5.37571 23.076C4.05802 21.7995 3.39918 20.0867 3.39918 17.9377C3.39918 15.6649 4.21487 13.8353 5.84629 12.449C7.47703 11.0638 9.67301 10.3709 12.4343 10.3704C13.387 10.3736 14.3384 10.4438 15.2811 10.5805C16.2695 10.7207 17.2969 10.9154 18.3635 11.1644V9.20258C18.3635 7.17861 17.94 5.75386 17.093 4.92836C16.2459 4.1036 14.7871 3.69101 12.7166 3.69056C11.7414 3.69463 10.7701 3.81222 9.82253 4.0409C8.83664 4.2737 7.86934 4.57816 6.92847 4.95182C6.62317 5.08978 6.30873 5.20684 5.98731 5.30216C5.84928 5.34103 5.70728 5.36451 5.564 5.37214C5.18748 5.37214 4.99918 5.09188 4.99918 4.53135V3.22344C4.97358 2.90072 5.03876 2.5773 5.18747 2.2892C5.38818 2.04375 5.64677 1.85121 5.94031 1.72862C7.0249 1.20981 8.16028 0.802846 9.32857 0.514164C10.6966 0.165369 12.1041 -0.00736397 13.5165 0.000240541C16.7165 0.000240541 19.0615 0.724293 20.5516 2.17241C22.0414 3.62044 22.7864 5.80812 22.7869 8.73546V17.4239ZM11.8695 21.488C12.8157 21.4761 13.7536 21.3104 14.6459 20.9974C15.6302 20.6626 16.5071 20.0742 17.187 19.2924C17.6218 18.8023 17.9359 18.2186 18.1045 17.5873C18.2909 16.8309 18.3779 16.0538 18.3635 15.2752V14.154C17.5486 13.962 16.7239 13.8139 15.893 13.7104C15.0581 13.6034 14.2172 13.5488 13.3754 13.5469C11.5872 13.5469 10.2539 13.905 9.37558 14.6212C8.49693 15.338 8.0577 16.3657 8.0579 17.7041C8.0579 18.9501 8.38729 19.8922 9.04603 20.5303C9.70491 21.169 10.646 21.4882 11.8695 21.488Z" fill="white"/>
<path d="M33.4688 24.3841C33.1047 24.413 32.7411 24.3227 32.4336 24.127C32.1463 23.8387 31.95 23.4734 31.8688 23.076L25.5633 2.42931C25.4431 2.08148 25.3641 1.72093 25.328 1.35495C25.3152 1.26613 25.3234 1.17556 25.3519 1.09042C25.3805 1.00529 25.4287 0.927909 25.4925 0.864452C25.5565 0.800996 25.6344 0.753167 25.7201 0.724791C25.8059 0.696415 25.8971 0.688231 25.9866 0.700916H28.622C28.994 0.666285 29.3669 0.756752 29.6808 0.957813C29.9525 1.25386 30.1393 1.6168 30.2217 2.00884L34.7394 19.6662L38.9273 2.00884C39.0523 1.47968 39.2249 1.12934 39.4451 0.957813C39.7687 0.759051 40.1482 0.66897 40.5273 0.700916H42.6919C43.0711 0.669163 43.4506 0.759228 43.7743 0.957813C43.9933 1.12934 44.1658 1.47968 44.2919 2.00884L48.527 19.8997L53.1858 2.00884C53.2675 1.6165 53.4545 1.25336 53.7269 0.957813C54.0407 0.756479 54.4137 0.66598 54.7857 0.700916H57.2796C57.3691 0.688279 57.4603 0.696463 57.5461 0.724871C57.6318 0.753263 57.7097 0.801077 57.7737 0.864518C57.8376 0.927974 57.8858 1.00532 57.9143 1.09043C57.943 1.17555 57.9512 1.26611 57.9385 1.35495C57.9365 1.49624 57.9207 1.63699 57.8915 1.77527C57.8415 1.99674 57.7787 2.21511 57.7032 2.42931L51.2094 23.076C51.1276 23.4732 50.9314 23.8383 50.6446 24.127C50.3371 24.3226 49.9735 24.4129 49.6094 24.3841H47.3036C46.921 24.418 46.5384 24.319 46.2212 24.1038C45.9437 23.8055 45.7633 23.4311 45.7036 23.0294L41.5155 5.83927L37.3746 23.0294C37.3142 23.4308 37.1339 23.8051 36.857 24.1038C36.5398 24.3188 36.1572 24.4178 35.7746 24.3841H33.4688Z" fill="white"/>
<path d="M63.8676 24.6176C65.2255 24.9299 66.6149 25.0866 68.0088 25.0847C69.2976 25.0971 70.5815 24.9241 71.8203 24.571C72.9037 24.2674 73.9182 23.7599 74.8084 23.076C75.6246 22.4403 76.2911 21.6353 76.7613 20.7172C77.2427 19.7524 77.4847 18.6873 77.4672 17.6108C77.4843 16.2617 77.0452 14.9459 76.2201 13.8738C75.3886 12.7843 74.0004 11.9279 72.0556 11.3046L68.244 10.0902C66.8006 9.62297 65.8124 9.13247 65.2793 8.61869C65.0204 8.37618 64.8155 8.08258 64.6778 7.75677C64.54 7.43095 64.4725 7.08013 64.4795 6.72685C64.4795 5.63713 64.903 4.84299 65.7499 4.34446C66.5968 3.84622 67.7889 3.59711 69.3264 3.59711C71.1058 3.57039 72.8705 3.92074 74.5027 4.62481C74.8234 4.79881 75.1749 4.90984 75.5379 4.95182C75.9458 4.95177 76.1497 4.67147 76.1497 4.11089V2.84978C76.1665 2.53679 76.0842 2.22645 75.9144 1.96219C75.6952 1.69252 75.423 1.47 75.1143 1.30815C74.7525 1.1196 74.3745 0.963279 73.9849 0.841028C73.5139 0.685546 73.0041 0.545433 72.4555 0.420706C71.9067 0.296333 71.3264 0.195095 70.7145 0.117024C70.1137 0.0401753 69.5086 0.00117302 68.9029 0.000240541C67.7567 -0.00594918 66.6157 0.151366 65.5146 0.467363C64.5037 0.751334 63.5544 1.21854 62.7148 1.8454C61.9273 2.4386 61.2707 3.18582 60.7855 4.0409C60.2858 4.94952 60.0344 5.97211 60.0561 7.00708C60.057 8.41141 60.5288 9.77548 61.3971 10.8842C62.2913 12.0677 63.7266 12.9708 65.7029 13.5936L69.6087 14.8081C70.9257 15.2444 71.8277 15.7116 72.3145 16.2094C72.5555 16.4568 72.7442 16.7496 72.8694 17.0705C72.9946 17.3914 73.0539 17.7339 73.0437 18.0779C73.0603 18.5831 72.9403 19.0835 72.6962 19.527C72.4521 19.9706 72.0928 20.3412 71.6557 20.6004C70.7302 21.1922 69.4205 21.488 67.7264 21.488C66.6514 21.4872 65.5791 21.3776 64.5265 21.1609C63.5068 20.9583 62.5127 20.645 61.562 20.2266C61.279 20.1026 61.0515 20.0092 60.8796 19.9464C60.7216 19.887 60.5544 19.8555 60.3856 19.8531C59.9777 19.8531 59.7738 20.1333 59.7738 20.6937V22.0485C59.7627 22.3684 59.8518 22.6839 60.0288 22.9515C60.2057 23.2192 60.4618 23.4258 60.7619 23.5431C61.7427 24.0407 62.7877 24.4023 63.8676 24.6176Z" fill="white"/>
<path d="M73.0947 38.0654C64.2412 44.5512 51.406 48 40.3532 48C24.8631 48 10.9137 42.316 0.358017 32.8547C-0.470826 32.1115 0.268306 31.0971 1.26474 31.6724C12.6534 38.2508 26.7373 42.2127 41.2834 42.2127C51.7704 42.1616 62.1438 40.0544 71.8079 36.012C73.3043 35.3819 74.5593 36.9909 73.0947 38.0654Z" fill="white"/>
<path d="M76.779 33.8899C75.6471 32.4522 69.3044 33.2068 66.4466 33.5468L66.4396 33.5476C65.575 33.6505 65.4409 32.9004 66.22 32.3574C71.2884 28.8241 79.5919 29.8441 80.5572 31.0273C81.5294 32.2204 80.3016 40.485 75.5527 44.4289C74.8219 45.0351 74.1272 44.7117 74.4511 43.9108C75.52 41.2614 77.9124 35.3302 76.779 33.8899Z" fill="white"/>
</g>
</g>
</svg>
