<svg xmlns="http://www.w3.org/2000/svg" width="511" height="160" fill="none"><path fill="#232F3E" fill-rule="evenodd" d="M452.4 79.781v.058c0 5.96 4.847 10.66 11.189 10.66 6.343 0 11.248-4.758 11.248-10.718v-.06c0-5.947-4.847-10.66-11.189-10.66-6.343 0-11.248 4.758-11.248 10.72Zm15.507 0v.058c0 2.407-1.608 4.582-4.259 4.582-2.652 0-4.315-2.202-4.315-4.64v-.06c0-2.408 1.602-4.582 4.256-4.582s4.318 2.205 4.318 4.642ZM420.45 69.354h-6.813l-8.347 19.954V69.501h-6.806v9.074l-7.313-9.074h-6.43v20.557h6.813v-9.487l7.635 9.487h5.787l-.003.006h7.344l1.056-2.76h7.194l1.084 2.754h7.463l-8.664-20.704Zm-3.449 8.078 1.877 4.992h-3.758l1.881-4.992Z" clip-rule="evenodd"/><path fill="#232F3E" d="M430.228 75.316h-6.048v-5.823h18.971v5.823H437.1v14.742h-6.872V75.316ZM444.177 69.501h6.869v20.557h-6.869V69.501ZM481.972 69.501h-6.43v20.557h6.813v-9.487l7.643 9.487h6.101V69.501h-6.814v9.074l-7.313-9.074ZM309.533 69.501h6.872v14.684h9.661v5.873h-16.533V69.501ZM327.625 69.501h6.869v20.557h-6.869V69.501ZM335.406 69.501h7.693l3.993 11.542 3.994-11.542h7.579l-8.342 20.704h-6.578l-8.339-20.704ZM358.928 69.501h17.521v5.638h-10.765v2.085h10.041v4.964h-10.041v2.233h10.923v5.637h-17.679V69.501Z"/><path fill="#232F3E" fill-rule="evenodd" d="M501.171 70.178h-.763v1.71h.38v-.554h.3l.366.555h.444l-.422-.616a.535.535 0 0 0 .372-.532.516.516 0 0 0-.145-.375.715.715 0 0 0-.532-.188Zm.291.588c0 .14-.102.244-.294.244l-.38.01v-.504h.372c.186 0 .302.086.302.25Z" clip-rule="evenodd"/><path fill="#232F3E" fill-rule="evenodd" d="M499.46 71.096a1.622 1.622 0 0 1 1.619-1.62 1.62 1.62 0 0 1 1.146 2.765 1.621 1.621 0 0 1-2.765-1.145Zm3.05 0a1.428 1.428 0 0 0-1.431-1.431 1.43 1.43 0 0 0-1.43 1.43 1.428 1.428 0 0 0 1.43 1.431 1.43 1.43 0 0 0 1.431-1.43Z" clip-rule="evenodd"/><path fill="#232F3E" fill-rule="evenodd" d="M294.27 102.937h216.721V56.8H294.27v46.137Zm212.162-4.556H298.826V61.348h207.606v37.033ZM51.17 65.526c-.061 1.808.17 3.614.686 5.35a27.787 27.787 0 0 0 1.955 4.3c.257.411.403.881.423 1.364a2.306 2.306 0 0 1-1.163 1.784l-3.804 2.517c-.469.319-1.018.5-1.585.524a2.534 2.534 0 0 1-1.796-.839 13.723 13.723 0 0 1-2.167-2.78 44.695 44.695 0 0 1-1.849-3.513c-4.72 5.525-10.638 8.287-17.752 8.286-5.072 0-9.088-1.433-12.047-4.3-2.959-2.867-4.438-6.713-4.438-11.54 0-5.103 1.832-9.211 5.495-12.324 3.662-3.11 8.593-4.667 14.794-4.668 2.14.007 4.275.165 6.393.472a79.77 79.77 0 0 1 6.921 1.311v-4.405c0-4.545-.95-7.744-2.853-9.598-1.902-1.852-5.178-2.779-9.827-2.78-2.19.01-4.371.273-6.499.787a46.645 46.645 0 0 0-6.499 2.046c-.685.31-1.391.572-2.113.786a4.36 4.36 0 0 1-.95.157c-.846 0-1.27-.629-1.27-1.888v-2.937a3.9 3.9 0 0 1 .424-2.098 4.347 4.347 0 0 1 1.69-1.258 39.7 39.7 0 0 1 7.609-2.727 37.254 37.254 0 0 1 9.404-1.155c7.186 0 12.452 1.626 15.798 4.878 3.345 3.252 5.018 8.164 5.02 14.738v19.51Zm-24.517 9.126a19.577 19.577 0 0 0 6.235-1.101 13.19 13.19 0 0 0 5.706-3.83 9.439 9.439 0 0 0 2.06-3.828c.419-1.698.614-3.444.582-5.192v-2.517a52.47 52.47 0 0 0-5.548-.997 45.256 45.256 0 0 0-5.653-.367c-4.015 0-7.01.804-8.982 2.412-1.973 1.61-2.959 3.918-2.959 6.923 0 2.798.74 4.914 2.22 6.347 1.479 1.434 3.592 2.15 6.34 2.15Z" clip-rule="evenodd"/><path fill="#232F3E" d="M75.156 81.156a3.775 3.775 0 0 1-2.325-.578 4.67 4.67 0 0 1-1.268-2.36l-14.16-46.363c-.27-.781-.447-1.59-.528-2.413a1.289 1.289 0 0 1 .37-1.1 1.309 1.309 0 0 1 1.11-.368h5.917a3.763 3.763 0 0 1 2.378.577c.61.665 1.03 1.48 1.214 2.36L78.01 70.56l9.404-39.65c.28-1.188.669-1.975 1.163-2.36a4.003 4.003 0 0 1 2.43-.577h4.86a4.01 4.01 0 0 1 2.431.577c.492.385.88 1.172 1.163 2.36l9.51 40.175 10.461-40.175a4.985 4.985 0 0 1 1.216-2.36 3.752 3.752 0 0 1 2.377-.577h5.6a1.321 1.321 0 0 1 1.11.367 1.301 1.301 0 0 1 .37 1.101c-.005.318-.04.634-.106.944-.112.498-.253.988-.423 1.469l-14.582 46.363a4.687 4.687 0 0 1-1.268 2.36 3.779 3.779 0 0 1-2.325.578h-5.177a3.742 3.742 0 0 1-2.431-.63 4.518 4.518 0 0 1-1.162-2.412l-9.405-38.602-9.298 38.602a4.544 4.544 0 0 1-1.163 2.412 3.747 3.747 0 0 1-2.43.63h-5.178ZM143.418 81.68a41.25 41.25 0 0 0 9.299 1.049c2.894.028 5.777-.36 8.559-1.154a19.77 19.77 0 0 0 6.71-3.357 15.894 15.894 0 0 0 4.385-5.297 15.064 15.064 0 0 0 1.585-6.975 13.472 13.472 0 0 0-2.8-8.392c-1.867-2.446-4.984-4.37-9.352-5.769l-8.559-2.727c-3.241-1.05-5.46-2.15-6.657-3.304a5.651 5.651 0 0 1-1.796-4.248c0-2.448.951-4.23 2.853-5.35 1.901-1.12 4.578-1.679 8.031-1.679 3.996-.06 7.958.727 11.624 2.308.72.39 1.509.64 2.324.735.916 0 1.374-.63 1.374-1.889V32.8a3.354 3.354 0 0 0-.528-1.993 5.778 5.778 0 0 0-1.797-1.469 15.558 15.558 0 0 0-2.536-1.049 37.571 37.571 0 0 0-3.434-.943 41.454 41.454 0 0 0-3.91-.682 32.452 32.452 0 0 0-4.068-.263 27.057 27.057 0 0 0-7.609 1.05 19.185 19.185 0 0 0-6.287 3.094 16.152 16.152 0 0 0-4.332 4.93 13.242 13.242 0 0 0-1.638 6.66 14.132 14.132 0 0 0 3.011 8.707c2.008 2.658 5.231 4.686 9.669 6.084l8.771 2.727c2.957.98 4.983 2.029 6.076 3.147a5.754 5.754 0 0 1 1.637 4.196 6.321 6.321 0 0 1-.78 3.254 6.376 6.376 0 0 1-2.337 2.41c-2.078 1.329-5.019 1.993-8.823 1.993a35.764 35.764 0 0 1-7.186-.734 32.016 32.016 0 0 1-6.656-2.098 28.155 28.155 0 0 0-1.533-.63 3.287 3.287 0 0 0-1.109-.209c-.916 0-1.374.63-1.374 1.888v3.042a3.454 3.454 0 0 0 .573 2.028 3.497 3.497 0 0 0 1.646 1.328 27.144 27.144 0 0 0 6.974 2.413ZM164.138 111.878c-19.881 14.564-48.703 22.308-73.523 22.308-34.784 0-66.108-12.763-89.811-34.009-1.861-1.67-.202-3.947 2.036-2.655 25.574 14.772 57.2 23.669 89.864 23.669a179.926 179.926 0 0 0 68.544-13.924c3.36-1.415 6.179 2.198 2.89 4.611Z"/><path fill="#232F3E" d="M172.411 102.501c-2.542-3.228-16.785-1.534-23.202-.77l-.016.002c-1.941.231-2.242-1.454-.493-2.673 11.382-7.934 30.028-5.644 32.195-2.987 2.183 2.68-.574 21.238-11.238 30.094-1.641 1.361-3.201.635-2.473-1.163 2.4-5.95 7.772-19.268 5.227-22.503ZM239.704 0h2.07v160h-2.07V0Z"/></svg>