<svg xmlns="http://www.w3.org/2000/svg" width="226" height="48" fill="none"><path fill="#fff" fill-rule="evenodd" d="M164.516 23.91v.06c0 6.2 5.043 11.09 11.642 11.09 6.598 0 11.702-4.95 11.702-11.15v-.064c0-6.186-5.043-11.09-11.642-11.09-6.598 0-11.702 4.95-11.702 11.153Zm16.134 0v.06c0 2.504-1.673 4.766-4.432 4.766-2.758 0-4.489-2.29-4.489-4.827v-.063c0-2.505 1.668-4.767 4.429-4.767s4.492 2.294 4.492 4.83ZM131.277 13.061h-7.089l-8.684 20.76V13.214h-7.081v9.44l-7.608-9.44h-6.69v21.388h7.088v-9.87l7.943 9.87h6.021l-.002.005h7.639l1.1-2.87h7.484l1.128 2.864h7.764l-9.013-21.54Zm-3.59 8.404 1.954 5.194h-3.91l1.956-5.194Z" clip-rule="evenodd"/><path fill="#fff" d="M141.449 19.264h-6.292v-6.059h19.737v6.059h-6.295v15.337h-7.15V19.264ZM155.962 13.214h7.146V34.6h-7.146V13.214ZM195.283 13.214h-6.69V34.6h7.088v-9.87l7.952 9.87h6.347V13.214h-7.089v9.44l-7.608-9.44ZM15.88 13.214h7.15v15.277H33.08v6.11H15.88V13.215ZM34.702 13.214h7.147v21.388h-7.147V13.213ZM42.798 13.214h8.003l4.155 12.008 4.155-12.008h7.885l-8.679 21.54h-6.843l-8.676-21.54ZM67.27 13.214h18.228v5.865h-11.2v2.17h10.447v5.165H74.298v2.322h11.365v5.866H67.27V13.213Z"/><path fill="#fff" fill-rule="evenodd" d="M215.257 13.918h-.793v1.78h.395v-.577h.312l.38.577h.462l-.439-.64a.563.563 0 0 0 .387-.554.537.537 0 0 0-.15-.39.747.747 0 0 0-.554-.196Zm.303.611c0 .148-.107.254-.306.254l-.395.012v-.525h.386c.194 0 .315.09.315.26Z" clip-rule="evenodd"/><path fill="#fff" fill-rule="evenodd" d="M213.477 14.873a1.684 1.684 0 1 1 3.369-.002 1.684 1.684 0 0 1-3.369.002Zm3.174 0a1.49 1.49 0 1 0-2.979 0 1.49 1.49 0 0 0 2.979 0Z" clip-rule="evenodd"/><path fill="#fff" fill-rule="evenodd" d="M0 48h225.473V0H0v48Zm220.73-4.74H4.74V4.732h215.99V43.26Z" clip-rule="evenodd"/></svg>