<svg xmlns="http://www.w3.org/2000/svg" width="227" height="135" fill="none"><path fill="#000" fill-rule="evenodd" d="M63.961 48.908c-.075 2.26.215 4.517.859 6.687a34.738 34.738 0 0 0 2.443 5.376c.322.513.504 1.1.529 1.704-.043.46-.198.904-.451 1.292-.254.388-.597.71-1.002.938l-4.755 3.146a3.807 3.807 0 0 1-1.982.656 3.17 3.17 0 0 1-2.245-1.049 17.154 17.154 0 0 1-2.708-3.475 55.882 55.882 0 0 1-2.312-4.392c-5.9 6.906-13.297 10.36-22.19 10.358-6.34 0-11.36-1.792-15.058-5.376-3.698-3.583-5.548-8.39-5.548-14.423 0-6.38 2.29-11.515 6.87-15.407 4.576-3.888 10.74-5.832 18.491-5.834 2.675.009 5.345.206 7.991.59 2.774.393 5.658.94 8.652 1.639V25.83c0-5.681-1.189-9.68-3.566-11.997-2.378-2.315-6.472-3.474-12.284-3.475a35.255 35.255 0 0 0-8.124.984 58.308 58.308 0 0 0-8.123 2.556c-.857.388-1.74.716-2.642.984-.387.109-.786.175-1.188.196-1.057 0-1.586-.786-1.586-2.36V9.048a4.875 4.875 0 0 1 .529-2.622 5.434 5.434 0 0 1 2.113-1.574 49.63 49.63 0 0 1 9.51-3.409A46.567 46.567 0 0 1 37.94.001c8.982 0 15.565 2.032 19.747 6.097 4.182 4.064 6.273 10.205 6.274 18.422v24.388ZM33.317 60.315a24.474 24.474 0 0 0 7.793-1.377 16.488 16.488 0 0 0 7.133-4.785 11.8 11.8 0 0 0 2.575-4.786c.523-2.124.768-4.305.727-6.49v-3.148a65.605 65.605 0 0 0-6.934-1.245 56.575 56.575 0 0 0-7.067-.459c-5.02 0-8.762 1.006-11.227 3.016-2.467 2.012-3.7 4.896-3.699 8.653 0 3.498.925 6.142 2.774 7.933 1.85 1.793 4.49 2.689 7.925 2.688Z" clip-rule="evenodd"/><path fill="#000" d="M93.945 68.445a4.717 4.717 0 0 1-2.906-.722 5.84 5.84 0 0 1-1.585-2.95l-17.7-57.954a13.203 13.203 0 0 1-.66-3.016 1.61 1.61 0 0 1 .462-1.377 1.636 1.636 0 0 1 1.387-.459h7.397a4.703 4.703 0 0 1 2.972.722 6.272 6.272 0 0 1 1.519 2.95l12.68 49.563 11.756-49.563c.35-1.486.835-2.469 1.453-2.95a5.002 5.002 0 0 1 3.038-.722h6.076a5.013 5.013 0 0 1 3.038.722c.614.481 1.099 1.464 1.453 2.95l11.887 50.218L149.289 5.64a6.22 6.22 0 0 1 1.519-2.95 4.693 4.693 0 0 1 2.972-.722h7a1.646 1.646 0 0 1 1.387.46 1.612 1.612 0 0 1 .463 1.376c-.006.397-.05.792-.132 1.18-.14.622-.317 1.235-.529 1.836l-18.227 57.954a5.869 5.869 0 0 1-1.586 2.95 4.719 4.719 0 0 1-2.905.722h-6.473a4.676 4.676 0 0 1-3.038-.787 5.65 5.65 0 0 1-1.453-3.016l-11.756-48.251-11.623 48.251a5.67 5.67 0 0 1-1.453 3.016 4.682 4.682 0 0 1-3.038.787h-6.472ZM179.272 69.1a51.569 51.569 0 0 0 11.624 1.311 37.71 37.71 0 0 0 10.699-1.442 24.717 24.717 0 0 0 8.388-4.196 19.884 19.884 0 0 0 5.481-6.621 18.847 18.847 0 0 0 1.982-8.72 16.847 16.847 0 0 0-3.501-10.49c-2.334-3.057-6.23-5.461-11.689-7.21l-10.699-3.41c-4.052-1.31-6.826-2.688-8.322-4.13a7.094 7.094 0 0 1-2.245-5.31c0-3.059 1.189-5.288 3.566-6.687s5.723-2.098 10.039-2.098a35.342 35.342 0 0 1 14.529 2.885c.901.488 1.887.8 2.906.918 1.145 0 1.718-.787 1.718-2.361v-3.54a4.198 4.198 0 0 0-.661-2.491 7.197 7.197 0 0 0-2.246-1.836 19.44 19.44 0 0 0-3.17-1.311 46.836 46.836 0 0 0-4.293-1.18 51.716 51.716 0 0 0-4.887-.853 40.568 40.568 0 0 0-5.085-.327 33.822 33.822 0 0 0-9.511 1.31 23.967 23.967 0 0 0-7.858 3.869 20.19 20.19 0 0 0-5.416 6.163 16.56 16.56 0 0 0-2.047 8.325 17.665 17.665 0 0 0 3.764 10.883c2.51 3.322 6.539 5.857 12.086 7.605l10.963 3.41c3.697 1.224 6.229 2.535 7.595 3.933a7.194 7.194 0 0 1 2.047 5.245 7.894 7.894 0 0 1-.975 4.067 7.98 7.98 0 0 1-2.921 3.013c-2.598 1.661-6.274 2.492-11.029 2.492a44.692 44.692 0 0 1-8.982-.919 40.024 40.024 0 0 1-8.321-2.622 34.95 34.95 0 0 0-1.916-.787 4.1 4.1 0 0 0-1.386-.262c-1.145 0-1.718.787-1.718 2.36v3.803a4.323 4.323 0 0 0 .716 2.535 4.379 4.379 0 0 0 2.058 1.66 33.934 33.934 0 0 0 8.717 3.016ZM205.172 106.847c-24.851 18.205-60.879 27.886-91.903 27.886-43.48 0-82.635-15.955-112.264-42.512-2.327-2.086-.252-4.934 2.545-3.319 31.967 18.466 71.5 29.586 112.33 29.586a224.898 224.898 0 0 0 85.68-17.404c4.201-1.77 7.723 2.747 3.612 5.763Z"/><path fill="#000" d="M215.514 95.127c-3.177-4.036-20.981-1.918-29.003-.963l-.019.002c-2.427.289-2.803-1.817-.616-3.34 14.226-9.919 37.534-7.056 40.243-3.734 2.729 3.349-.717 26.547-14.047 37.617-2.051 1.702-4.002.794-3.092-1.454 3-7.437 9.715-24.085 6.534-28.128Z"/></svg>