<svg xmlns="http://www.w3.org/2000/svg" width="900" height="900" fill="none"><g fill="#000000" clip-path="url(#a)"><path fill-rule="evenodd" d="M314.556 400.633a57.505 57.505 0 0 0 2.348 18.285 94.91 94.91 0 0 0 6.681 14.702 9.485 9.485 0 0 1 1.446 4.66 7.816 7.816 0 0 1-1.235 3.532 7.884 7.884 0 0 1-2.74 2.564l-13.002 8.604a10.4 10.4 0 0 1-5.418 1.792 8.652 8.652 0 0 1-6.14-2.867 46.941 46.941 0 0 1-7.405-9.501c-2.048-3.462-4.154-7.465-6.32-12.011-16.135 18.885-36.361 28.327-60.679 28.325-17.337 0-31.063-4.901-41.176-14.702-10.113-9.797-15.17-22.944-15.17-39.439 0-17.445 6.26-31.488 18.782-42.128 12.517-10.633 29.372-15.951 50.567-15.955 7.312.025 14.614.564 21.85 1.613 7.587 1.076 15.473 2.57 23.659 4.482v-15.058c0-15.535-3.251-26.471-9.752-32.807-6.502-6.33-17.698-9.497-33.59-9.501a96.465 96.465 0 0 0-22.214 2.689 159.479 159.479 0 0 0-22.213 6.992 56.604 56.604 0 0 1-7.224 2.689c-1.06.299-2.15.479-3.249.537-2.89 0-4.336-2.151-4.336-6.453v-10.039a13.334 13.334 0 0 1 1.446-7.171 14.856 14.856 0 0 1 5.778-4.303 135.723 135.723 0 0 1 26.007-9.321 127.36 127.36 0 0 1 32.144-3.945c24.561 0 42.561 5.558 53.998 16.673 11.435 11.114 17.153 27.906 17.157 50.374v66.688Zm-83.797 31.195a66.962 66.962 0 0 0 21.311-3.766 45.083 45.083 0 0 0 19.504-13.087 32.272 32.272 0 0 0 7.042-13.087 68.814 68.814 0 0 0 1.988-17.747v-8.605a179.346 179.346 0 0 0-18.963-3.406 154.68 154.68 0 0 0-19.323-1.254c-13.725 0-23.959 2.748-30.701 8.245-6.744 5.502-10.115 13.39-10.113 23.663 0 9.564 2.528 16.795 7.584 21.693 5.057 4.902 12.281 7.352 21.671 7.351Z" clip-rule="evenodd"/><path d="M396.544 454.056a12.899 12.899 0 0 1-7.945-1.973 15.96 15.96 0 0 1-4.335-8.067l-48.398-158.473a36.079 36.079 0 0 1-1.806-8.247 4.413 4.413 0 0 1 1.263-3.764 4.502 4.502 0 0 1 3.792-1.256h20.228a12.87 12.87 0 0 1 8.127 1.972 17.147 17.147 0 0 1 4.152 8.067l34.676 135.529 32.144-135.529c.959-4.061 2.284-6.75 3.974-8.067a13.685 13.685 0 0 1 8.306-1.972h16.615c2.91-.243 5.823.448 8.308 1.972 1.681 1.317 3.005 4.006 3.972 8.067l32.507 137.322 35.758-137.322a17.029 17.029 0 0 1 4.154-8.067 12.835 12.835 0 0 1 8.127-1.972h19.141a4.482 4.482 0 0 1 3.793 1.256c.49.487.86 1.081 1.079 1.734.22.653.283 1.348.185 2.03a16.754 16.754 0 0 1-.36 3.227 44.722 44.722 0 0 1-1.445 5.02l-49.843 158.473a16.036 16.036 0 0 1-4.335 8.067 12.908 12.908 0 0 1-7.946 1.973h-17.698a12.782 12.782 0 0 1-8.308-2.151 15.438 15.438 0 0 1-3.973-8.247l-32.146-131.942-31.783 131.942a15.535 15.535 0 0 1-3.973 8.247 12.807 12.807 0 0 1-8.308 2.151h-17.699ZM629.871 455.849a141.049 141.049 0 0 0 31.785 3.585 103.14 103.14 0 0 0 29.256-3.943 67.592 67.592 0 0 0 22.935-11.475 54.357 54.357 0 0 0 14.989-18.105 51.522 51.522 0 0 0 5.418-23.843 46.06 46.06 0 0 0-9.572-28.683c-6.382-8.363-17.037-14.936-31.964-19.72l-29.256-9.322c-11.079-3.586-18.664-7.35-22.756-11.294a19.436 19.436 0 0 1-4.617-6.615 19.319 19.319 0 0 1-1.522-7.906c0-8.364 3.251-14.459 9.751-18.286 6.5-3.824 15.651-5.736 27.452-5.736a96.66 96.66 0 0 1 39.73 7.888 21.937 21.937 0 0 0 7.946 2.51c3.13 0 4.696-2.152 4.696-6.454v-9.68a11.475 11.475 0 0 0-1.806-6.813 19.705 19.705 0 0 0-6.141-5.02 53.232 53.232 0 0 0-8.669-3.585c-3.616-1.194-7.528-2.269-11.739-3.226-4.212-.955-8.667-1.732-13.363-2.331-4.611-.59-9.256-.89-13.905-.897a92.467 92.467 0 0 0-26.007 3.586 65.538 65.538 0 0 0-21.49 10.577 55.224 55.224 0 0 0-14.808 16.851 45.268 45.268 0 0 0-5.599 22.767 48.314 48.314 0 0 0 10.293 29.759c6.864 9.084 17.88 16.016 33.049 20.796l29.979 9.322c10.109 3.349 17.032 6.934 20.769 10.756a19.786 19.786 0 0 1 4.259 6.609 19.671 19.671 0 0 1 1.338 7.732 21.597 21.597 0 0 1-2.668 11.123 21.795 21.795 0 0 1-7.986 8.239c-7.104 4.542-17.157 6.813-30.159 6.813a122.27 122.27 0 0 1-24.561-2.511 109.501 109.501 0 0 1-22.754-7.171c-2.172-.952-3.918-1.669-5.238-2.151a11.214 11.214 0 0 0-3.792-.716c-3.13 0-4.696 2.15-4.696 6.452v10.398c-.084 2.456.6 4.877 1.958 6.932a11.97 11.97 0 0 0 5.627 4.541 92.812 92.812 0 0 0 23.838 8.247ZM700.693 559.067c-67.955 49.782-166.472 76.253-251.307 76.253-118.895 0-225.963-43.627-306.983-116.247-6.362-5.705-.688-13.491 6.96-9.076C236.777 560.49 344.877 590.9 456.526 590.9c80.492-.392 160.113-16.566 234.29-47.594 11.486-4.836 21.119 7.514 9.877 15.761Z"/><path d="M728.971 527.018c-8.687-11.035-57.37-5.243-79.305-2.634l-.054.007c-6.636.789-7.666-4.968-1.685-9.135 38.902-27.12 102.636-19.292 110.045-10.209 7.462 9.157-1.962 72.592-38.412 102.863-5.609 4.653-10.942 2.171-8.456-3.976 8.204-20.336 26.567-65.861 17.867-76.916Z"/></g><defs><clipPath id="a"><path fill="#fff" d="M0 0h900v900H0z"/></clipPath></defs></svg>