<svg xmlns="http://www.w3.org/2000/svg" width="900" height="900" fill="none"><g clip-path="url(#a)"><g fill="#000"><path fill-rule="evenodd" d="M737.011 448.36v.085c0 8.686 7.065 15.538 16.31 15.538 9.244 0 16.395-6.937 16.395-15.623v-.089c0-8.667-7.066-15.538-16.31-15.538-9.245 0-16.395 6.936-16.395 15.627Zm22.603 0v.085c0 3.508-2.344 6.677-6.208 6.677-3.865 0-6.29-3.209-6.29-6.762v-.089c0-3.509 2.336-6.678 6.205-6.678 3.868 0 6.293 3.214 6.293 6.767ZM690.441 433.161h-9.932l-12.167 29.086v-28.871h-9.919v13.226l-10.66-13.226h-9.374v29.964h9.932v-13.828l11.128 13.828h8.436l-.004.008h10.704l1.54-4.022h10.485l1.581 4.014h10.877l-12.627-30.179Zm-5.029 11.775 2.737 7.276h-5.477l2.74-7.276Z" clip-rule="evenodd"/><path d="M704.693 441.852h-8.816v-8.489h27.653v8.489h-8.82v21.488h-10.017v-21.488ZM725.025 433.375h10.013v29.965h-10.013v-29.965ZM780.116 433.375h-9.374v29.965h9.932v-13.828l11.14 13.828h8.893v-29.965h-9.932v13.226l-10.659-13.226ZM528.766 433.376h10.016v21.403h14.083v8.561h-24.099v-29.964ZM555.137 433.376h10.012v29.964h-10.012v-29.964ZM566.479 433.376h11.213l5.821 16.823 5.821-16.823h11.047l-12.159 30.178h-9.588l-12.155-30.178ZM600.765 433.376h25.538v8.217h-15.691v3.04h14.636v7.236h-14.636v3.253h15.922v8.218h-25.769v-29.964Z"/><path fill-rule="evenodd" d="M808.1 434.362h-1.111v2.494h.553v-.809h.437l.534.809h.646l-.614-.898a.783.783 0 0 0 .541-.776.74.74 0 0 0-.21-.545 1.036 1.036 0 0 0-.776-.275Zm.425.857c0 .206-.15.355-.429.355l-.554.016v-.735h.542c.271 0 .441.125.441.364Z" clip-rule="evenodd"/><path fill-rule="evenodd" d="M805.606 435.7a2.362 2.362 0 0 1 4.03-1.67 2.361 2.361 0 1 1-4.03 1.67Zm4.447 0a2.085 2.085 0 1 0-4.17 0 2.085 2.085 0 0 0 4.17 0Z" clip-rule="evenodd"/><path fill-rule="evenodd" d="M506.518 482.112h315.896v-67.25H506.518v67.25Zm309.25-6.641H513.159v-53.98h302.609v53.98Z" clip-rule="evenodd"/></g><g fill="#000"><path fill-rule="evenodd" d="M152.171 427.582a24.516 24.516 0 0 0 1.001 7.797 40.58 40.58 0 0 0 2.849 6.27c.376.598.588 1.283.617 1.987a3.337 3.337 0 0 1-.527 1.506 3.364 3.364 0 0 1-1.168 1.094l-5.545 3.668a4.438 4.438 0 0 1-2.31.765 3.693 3.693 0 0 1-2.619-1.223 19.98 19.98 0 0 1-3.157-4.052c-.874-1.476-1.772-3.183-2.696-5.122-6.88 8.054-15.505 12.08-25.876 12.079-7.393 0-13.246-2.089-17.559-6.269-4.313-4.178-6.47-9.784-6.47-16.819 0-7.439 2.67-13.427 8.01-17.965 5.338-4.534 12.526-6.802 21.564-6.803 3.119.01 6.232.24 9.318.687a116.32 116.32 0 0 1 10.089 1.911v-6.421c0-6.625-1.386-11.288-4.158-13.99-2.773-2.7-7.548-4.05-14.325-4.051a41.11 41.11 0 0 0-9.472 1.146 67.994 67.994 0 0 0-9.473 2.982c-1 .451-2.029.835-3.08 1.147a6.375 6.375 0 0 1-1.386.229c-1.233 0-1.849-.918-1.849-2.752v-4.281a5.684 5.684 0 0 1 .616-3.058 6.328 6.328 0 0 1 2.464-1.835 57.881 57.881 0 0 1 11.091-3.975 54.273 54.273 0 0 1 13.707-1.682c10.474 0 18.15 2.369 23.027 7.109 4.877 4.74 7.315 11.901 7.317 21.482v28.439Zm-35.735 13.302a28.523 28.523 0 0 0 9.088-1.606 19.219 19.219 0 0 0 8.318-5.58 13.77 13.77 0 0 0 3.003-5.581c.61-2.476.895-5.02.847-7.568v-3.67a76.368 76.368 0 0 0-8.086-1.452 66 66 0 0 0-8.24-.535c-5.853 0-10.218 1.172-13.092 3.516-2.876 2.346-4.314 5.71-4.313 10.091 0 4.078 1.078 7.162 3.234 9.251 2.157 2.09 5.237 3.135 9.241 3.134Z" clip-rule="evenodd"/><path d="M187.134 450.363a5.493 5.493 0 0 1-3.388-.841 6.809 6.809 0 0 1-1.849-3.44l-20.639-67.58a15.395 15.395 0 0 1-.77-3.516 1.886 1.886 0 0 1 1.284-2.063c.28-.093.579-.12.872-.078h8.626a5.486 5.486 0 0 1 3.465.841 7.31 7.31 0 0 1 1.771 3.44l14.787 57.795 13.708-57.795c.409-1.732.974-2.879 1.695-3.44a5.827 5.827 0 0 1 3.542-.841h7.085a5.846 5.846 0 0 1 3.543.841c.716.561 1.281 1.708 1.694 3.44l13.862 58.56 15.249-58.56a7.252 7.252 0 0 1 1.771-3.44 5.475 5.475 0 0 1 3.466-.841h8.163a1.926 1.926 0 0 1 1.617.535 1.886 1.886 0 0 1 .539 1.606 7.083 7.083 0 0 1-.154 1.376 18.998 18.998 0 0 1-.616 2.14l-21.255 67.58a6.84 6.84 0 0 1-1.849 3.44 5.5 5.5 0 0 1-3.388.841h-7.547a5.449 5.449 0 0 1-3.543-.917 6.575 6.575 0 0 1-1.694-3.517l-13.709-56.265-13.554 56.265a6.614 6.614 0 0 1-1.694 3.517 5.454 5.454 0 0 1-3.542.917h-7.548ZM286.634 451.128a60.13 60.13 0 0 0 13.555 1.529c4.218.04 8.42-.526 12.475-1.682a28.818 28.818 0 0 0 9.781-4.893 23.182 23.182 0 0 0 6.392-7.721 21.97 21.97 0 0 0 2.31-10.168 19.64 19.64 0 0 0-4.081-12.231c-2.722-3.566-7.266-6.369-13.631-8.409l-12.476-3.976c-4.725-1.529-7.959-3.134-9.704-4.816a8.288 8.288 0 0 1-1.969-2.821 8.236 8.236 0 0 1-.649-3.371c0-3.567 1.386-6.166 4.158-7.798 2.772-1.631 6.674-2.446 11.707-2.446a41.213 41.213 0 0 1 16.942 3.363c1.05.57 2.2.933 3.389 1.071 1.335 0 2.002-.918 2.002-2.753v-4.127a4.888 4.888 0 0 0-.77-2.906 8.409 8.409 0 0 0-2.619-2.14 22.593 22.593 0 0 0-3.697-1.529 54.5 54.5 0 0 0-5.005-1.376 60.26 60.26 0 0 0-5.699-.994 47.208 47.208 0 0 0-5.93-.382 39.382 39.382 0 0 0-11.09 1.529 27.936 27.936 0 0 0-9.164 4.51 23.544 23.544 0 0 0-6.315 7.186 19.3 19.3 0 0 0-2.388 9.709 20.6 20.6 0 0 0 4.39 12.69c2.927 3.874 7.624 6.83 14.093 8.869l12.785 3.975c4.31 1.428 7.262 2.957 8.856 4.587a8.426 8.426 0 0 1 1.816 2.818 8.39 8.39 0 0 1 .571 3.297 9.215 9.215 0 0 1-1.138 4.744 9.293 9.293 0 0 1-3.406 3.513c-3.029 1.937-7.316 2.905-12.86 2.905a52.04 52.04 0 0 1-10.474-1.071 46.686 46.686 0 0 1-9.704-3.057 40.712 40.712 0 0 0-2.233-.918 4.8 4.8 0 0 0-1.617-.305c-1.335 0-2.003.917-2.003 2.751v4.435a5.044 5.044 0 0 0 .835 2.955 5.1 5.1 0 0 0 2.4 1.937 39.557 39.557 0 0 0 10.165 3.517ZM316.836 495.145c-28.979 21.228-70.991 32.517-107.168 32.517-50.702 0-96.36-18.605-130.91-49.573-2.713-2.433-.294-5.753 2.968-3.87 37.276 21.532 83.375 34.5 130.987 34.5a262.232 262.232 0 0 0 99.911-20.296c4.898-2.062 9.006 3.205 4.212 6.722Z"/><path d="M328.895 481.477c-3.705-4.705-24.466-2.236-33.82-1.123l-.023.003c-2.829.337-3.268-2.118-.718-3.896 16.589-11.565 43.768-8.226 46.928-4.353 3.182 3.905-.837 30.956-16.381 43.865-2.392 1.984-4.666.926-3.606-1.696 3.499-8.672 11.33-28.085 7.62-32.8Z"/></g><path fill="#000" d="M426.982 332.069H430v233.219h-3.018V332.069Z"/></g><defs><clipPath id="a"><path fill="#fff" d="M0 0h900v900H0z"/></clipPath></defs></svg>