<svg width="378" height="40" viewBox="0 0 378 40" fill="none" xmlns="http://www.w3.org/2000/svg">
<path d="M359.516 38.8595C356.841 38.8595 354.3 38.401 351.893 37.4839C349.524 36.5669 347.403 35.2677 345.531 33.5865C343.697 31.9053 342.245 29.9184 341.175 27.6258C340.105 25.3332 339.57 22.8495 339.57 20.1748C339.57 17.4237 340.105 14.8254 341.175 12.38C342.245 9.93453 343.754 7.79477 345.703 5.9607C347.652 4.12662 349.906 2.69374 352.466 1.66207C355.064 0.59219 357.873 0.057251 360.892 0.057251C361.579 0.057251 362.458 0.114566 363.528 0.229197C364.636 0.343828 365.782 0.496668 366.967 0.687718C368.151 0.878767 369.221 1.08892 370.177 1.31818C371.17 1.54744 371.896 1.7767 372.355 2.00596C372.584 2.08238 372.756 2.19701 372.87 2.34985C372.985 2.46448 373.061 2.65553 373.1 2.923C373.252 4.10751 373.386 5.27291 373.501 6.41921C373.615 7.5273 373.673 8.46345 373.673 9.22765C373.673 9.53333 373.577 9.8008 373.386 10.0301C373.233 10.2593 373.042 10.3739 372.813 10.3739C372.393 10.3739 372.087 10.2211 371.896 9.91543C371.705 9.60975 371.533 9.28496 371.38 8.94107C371.113 8.2915 370.826 7.69925 370.52 7.16431C370.215 6.59116 369.794 6.01801 369.259 5.44486C368.954 5.06276 368.438 4.66155 367.712 4.24124C367.024 3.78272 366.107 3.38152 364.961 3.03763C363.853 2.69374 362.477 2.5218 360.834 2.5218C358.656 2.5218 356.688 2.98032 354.931 3.89736C353.173 4.77619 351.683 5.99891 350.46 7.56552C349.237 9.13212 348.301 10.9089 347.652 12.8958C347.002 14.8827 346.677 16.9652 346.677 19.1431C346.677 21.8178 347.021 24.2251 347.709 26.3648C348.435 28.5046 349.409 30.3196 350.632 31.8097C351.893 33.2999 353.364 34.4462 355.045 35.2486C356.727 36.0128 358.503 36.3949 360.376 36.3949C362.172 36.3949 363.509 36.1657 364.388 35.7072C365.305 35.2486 365.935 34.8665 366.279 34.5609C366.699 34.1788 367.062 33.6247 367.368 32.8987C367.712 32.1345 367.884 31.2939 367.884 30.3769C367.884 30.033 367.884 29.6318 367.884 29.1733C367.922 28.7147 367.941 28.2562 367.941 27.7977C367.979 27.301 367.999 26.8807 367.999 26.5368C367.999 26.1165 367.941 25.7535 367.827 25.4478C367.75 25.1421 367.597 24.8937 367.368 24.7027C367.024 24.3588 366.527 24.0913 365.878 23.9003C365.228 23.671 364.579 23.4991 363.929 23.3844C363.318 23.2698 362.821 23.1934 362.439 23.1552C362.21 23.1552 361.942 23.0597 361.637 22.8686C361.331 22.6394 361.178 22.3719 361.178 22.0662C361.178 21.7987 361.331 21.5886 361.637 21.4357C361.942 21.2447 362.191 21.1492 362.382 21.1492C363.299 21.1492 364.158 21.1683 364.961 21.2065C365.801 21.2447 366.642 21.2829 367.483 21.3211C368.323 21.3593 369.221 21.3784 370.177 21.3784C371.17 21.3784 372.106 21.3402 372.985 21.2638C373.902 21.1874 374.895 21.1492 375.965 21.1492C376.156 21.1492 376.386 21.2256 376.653 21.3784C376.921 21.4931 377.054 21.7223 377.054 22.0662C377.054 22.3719 376.901 22.6202 376.596 22.8113C376.328 23.0023 376.099 23.117 375.908 23.1552C374.991 23.4227 374.341 23.7665 373.959 24.1869C373.615 24.6072 373.386 25.1994 373.272 25.9636C373.157 26.8042 373.08 27.5493 373.042 28.1989C373.004 28.8485 372.985 29.5363 372.985 30.2622V31.9244C372.985 32.1154 373.023 32.2874 373.1 32.4402C373.214 32.5548 373.329 32.7077 373.443 32.8987C373.558 33.0898 373.692 33.2808 373.845 33.4719C374.036 33.6247 374.131 33.7967 374.131 33.9877C374.131 34.1406 374.074 34.3507 373.959 34.6182C373.883 34.8474 373.635 35.0003 373.214 35.0767C372.947 35.1149 372.412 35.3442 371.609 35.7645C370.845 36.1466 369.871 36.586 368.686 37.0827C367.54 37.5412 366.184 37.9425 364.617 38.2863C363.089 38.6684 361.388 38.8595 359.516 38.8595Z" fill="white"/>
<path d="M327.543 39.0888C327.161 39.0888 326.435 38.7831 325.365 38.1718C324.334 37.5986 323.321 36.6434 322.328 35.306C321.907 34.8475 321.258 34.1215 320.379 33.128C319.538 32.0964 318.526 30.9119 317.341 29.5745C316.195 28.2372 314.953 26.8043 313.616 25.2759C312.317 23.7475 310.998 22.2382 309.661 20.748C308.362 19.2196 307.12 17.7867 305.936 16.4494C304.789 15.112 303.758 13.9275 302.841 12.8959C301.962 11.8642 301.293 11.1191 300.835 10.6606C300.644 10.3931 300.453 10.1829 300.261 10.0301C300.109 9.87726 299.956 9.80084 299.803 9.80084C299.65 9.80084 299.535 9.95368 299.459 10.2594C299.383 10.5268 299.344 10.7752 299.344 11.0045C299.306 12.8385 299.287 14.9592 299.287 17.3664C299.287 19.7737 299.268 22.2573 299.23 24.8174C299.23 27.3392 299.23 29.7082 299.23 31.9244C299.23 33.0325 299.535 34.0069 300.147 34.8475C300.758 35.6499 301.79 36.2039 303.242 36.5096C303.777 36.6243 304.197 36.758 304.503 36.9108C304.847 37.0637 305.019 37.2929 305.019 37.5986C305.019 37.8279 304.866 37.9998 304.56 38.1144C304.254 38.2291 303.872 38.2864 303.414 38.2864C302.382 38.2864 301.58 38.2482 301.007 38.1718C300.472 38.1335 299.975 38.0953 299.516 38.0571C299.058 38.0571 298.447 38.0571 297.682 38.0571C296.956 38.0571 296.326 38.0762 295.791 38.1144C295.294 38.1526 294.797 38.1909 294.301 38.2291C293.804 38.2673 293.193 38.2864 292.467 38.2864C292.046 38.2864 291.664 38.2291 291.32 38.1144C291.015 38.038 290.862 37.8661 290.862 37.5986C290.862 37.3311 291.015 37.121 291.32 36.9681C291.626 36.7771 292.065 36.6051 292.639 36.4523C293.67 36.1466 294.434 35.5926 294.931 34.7902C295.428 33.9496 295.714 32.9561 295.791 31.8098C295.944 30.3578 296.097 28.4473 296.249 26.0783C296.44 23.7093 296.593 21.0537 296.708 18.1115C296.823 15.1693 296.88 12.1317 296.88 8.99844C296.88 6.97331 296.364 5.52133 295.332 4.6425C294.301 3.76367 292.982 3.05678 291.378 2.52184C291.187 2.44542 290.843 2.29258 290.346 2.06332C289.887 1.83406 289.658 1.54749 289.658 1.2036C289.658 0.85971 289.83 0.630449 290.174 0.515819C290.518 0.401188 290.804 0.343872 291.034 0.343872C292.027 0.382084 292.887 0.420294 293.613 0.458504C294.377 0.458504 295.103 0.477609 295.791 0.515819C296.479 0.554028 297.205 0.592237 297.969 0.630447C298.733 0.630447 299.631 0.630447 300.663 0.630447C301.007 0.630447 301.274 0.725973 301.465 0.917025C301.656 1.06986 301.828 1.26091 301.981 1.49017C302.401 1.9869 303.051 2.77021 303.93 3.84009C304.847 4.90997 305.897 6.1709 307.082 7.62288C308.305 9.07485 309.604 10.6224 310.979 12.2654C312.355 13.8702 313.73 15.4941 315.106 17.1372C316.482 18.7802 317.781 20.3277 319.003 21.7797C320.226 23.2317 321.277 24.4926 322.156 25.5625C323.073 26.5941 323.722 27.3392 324.105 27.7977C324.257 27.9506 324.448 28.1607 324.678 28.4282C324.945 28.6957 325.174 28.8294 325.365 28.8294C325.709 28.8294 325.9 28.4664 325.939 27.7404C325.939 26.9762 325.939 25.8299 325.939 24.3015C325.939 22.7731 325.939 20.9964 325.939 18.9712C325.977 16.9461 325.996 14.8255 325.996 12.6093C325.996 10.3549 325.977 8.1196 325.939 5.90342C325.9 5.06281 325.499 4.35592 324.735 3.78277C323.971 3.17141 323.149 2.77021 322.27 2.57916C321.735 2.50274 321.239 2.369 320.78 2.17795C320.322 1.9869 320.092 1.73854 320.092 1.43286C320.092 1.2036 320.322 1.03165 320.78 0.917025C321.239 0.802394 321.678 0.745079 322.098 0.745079C322.672 0.745079 323.168 0.745079 323.589 0.745079C324.047 0.745079 324.487 0.745079 324.907 0.745079C325.327 0.745079 325.748 0.745079 326.168 0.745079C327.047 0.745079 327.754 0.745079 328.289 0.745079C328.823 0.706869 329.397 0.668659 330.008 0.630447C330.658 0.592237 331.536 0.573133 332.644 0.573133C333.103 0.573133 333.466 0.630448 333.733 0.745079C334.039 0.85971 334.192 1.05076 334.192 1.31823C334.192 1.85317 333.6 2.23527 332.415 2.46453C331.04 2.732 330.103 3.09499 329.607 3.55351C329.11 3.97382 328.843 4.68071 328.804 5.67417C328.804 6.28553 328.785 7.29809 328.747 8.71186C328.709 10.0874 328.671 11.7113 328.632 13.5836C328.632 15.4559 328.613 17.4237 328.575 19.4871C328.537 21.5504 328.518 23.5755 328.518 25.5625C328.518 27.5494 328.518 29.3452 328.518 30.9501C328.518 31.8671 328.556 32.765 328.632 33.6439C328.709 34.4845 328.766 35.2296 328.804 35.8792C328.881 36.4905 328.919 36.949 328.919 37.2547C328.919 37.9807 328.785 38.4583 328.518 38.6876C328.25 38.9551 327.926 39.0888 327.543 39.0888Z" fill="white"/>
<path d="M264.341 38.8596C261.78 38.8596 259.335 38.4201 257.004 37.5413C254.712 36.6243 252.667 35.3442 250.872 33.7012C249.076 32.02 247.643 30.033 246.573 27.7404C245.541 25.4096 245.025 22.8305 245.025 20.0029C245.025 17.4046 245.446 14.921 246.286 12.552C247.165 10.1448 248.426 8.00499 250.069 6.1327C251.75 4.26041 253.833 2.77022 256.316 1.66213C258.8 0.554045 261.647 0 264.856 0C267.455 0 269.9 0.45852 272.193 1.37556C274.524 2.25439 276.587 3.53442 278.383 5.21566C280.179 6.85869 281.592 8.84561 282.624 11.1764C283.694 13.469 284.229 16.0291 284.229 18.8566C284.229 21.4167 283.789 23.9003 282.911 26.3076C282.07 28.7148 280.809 30.8546 279.128 32.7269C277.485 34.5991 275.421 36.0893 272.938 37.1974C270.454 38.3055 267.588 38.8596 264.341 38.8596ZM265.258 36.4523C267.932 36.4523 270.148 35.841 271.906 34.6182C273.702 33.3573 275.039 31.6188 275.918 29.4026C276.835 27.1864 277.294 24.6263 277.294 21.7224C277.294 19.1623 277.007 16.736 276.434 14.4434C275.899 12.1508 275.078 10.1065 273.969 8.31067C272.861 6.47659 271.467 5.06282 269.785 4.06936C268.104 3.03769 266.136 2.52186 263.882 2.52186C261.284 2.52186 259.087 3.13322 257.291 4.35594C255.533 5.57866 254.196 7.279 253.279 9.45697C252.4 11.6349 251.961 14.1759 251.961 17.0799C251.961 19.6781 252.228 22.1236 252.763 24.4162C253.298 26.7088 254.119 28.7721 255.227 30.6062C256.336 32.4021 257.711 33.8349 259.354 34.9048C261.035 35.9365 263.003 36.4523 265.258 36.4523Z" fill="white"/>
<path d="M203.68 38.3438C203.221 38.3438 202.82 38.2864 202.476 38.1718C202.17 38.0572 202.018 37.8661 202.018 37.5987C202.018 37.1019 202.61 36.7389 203.794 36.5097C205.246 36.2422 206.221 35.8219 206.717 35.2487C207.252 34.6374 207.52 33.663 207.52 32.3257V6.47663C207.52 5.17749 207.252 4.26045 206.717 3.72551C206.182 3.19057 205.17 2.77026 203.68 2.46458C202.572 2.23532 202.018 1.85322 202.018 1.31828C202.018 1.05081 202.151 0.85976 202.419 0.745129C202.724 0.630498 203.087 0.573183 203.508 0.573183C204.501 0.573183 205.361 0.592288 206.087 0.630497C206.851 0.668709 207.577 0.70692 208.265 0.745129C208.991 0.745129 209.755 0.745129 210.558 0.745129C211.283 0.745129 211.952 0.745129 212.564 0.745129C213.213 0.70692 213.882 0.687815 214.57 0.687815C215.296 0.649603 216.136 0.630497 217.091 0.630497C217.55 0.630497 217.894 0.687813 218.123 0.802443C218.391 0.878865 218.524 1.05081 218.524 1.31828C218.524 1.62396 218.391 1.87232 218.123 2.06337C217.856 2.21621 217.435 2.34995 216.862 2.46458C215.41 2.80847 214.493 3.28609 214.111 3.89745C213.767 4.50881 213.595 5.36854 213.595 6.47663V17.5384C213.595 17.7295 213.614 17.9587 213.653 18.2262C213.729 18.4555 213.844 18.5701 213.996 18.5701C214.187 18.5701 214.417 18.4746 214.684 18.2835C214.99 18.0542 215.257 17.825 215.487 17.5957L226.778 5.84616C227.083 5.50227 227.313 5.19659 227.465 4.92912C227.656 4.62344 227.752 4.33687 227.752 4.0694C227.752 3.34341 227.236 2.86578 226.205 2.63652C225.631 2.48368 225.211 2.33084 224.944 2.178C224.714 1.98695 224.6 1.73859 224.6 1.43291C224.6 1.20365 224.733 1.0317 225.001 0.917075C225.307 0.802444 225.67 0.745129 226.09 0.745129H229.471C230.656 0.745129 231.898 0.726025 233.197 0.687815C234.496 0.649603 235.719 0.611393 236.865 0.573183C238.011 0.534974 238.89 0.515869 239.502 0.515869C239.884 0.515869 240.189 0.592289 240.419 0.745129C240.686 0.85976 240.82 1.0126 240.82 1.20365C240.82 1.50933 240.648 1.75769 240.304 1.94874C239.998 2.13979 239.559 2.29263 238.986 2.40726C237.419 2.67473 235.891 3.11415 234.401 3.72551C232.91 4.29866 231.535 5.08196 230.274 6.07542C228.975 7.1453 227.752 8.21518 226.606 9.28506C225.459 10.3549 224.332 11.463 223.224 12.6093C222.116 13.7174 220.912 14.9592 219.613 16.3348C219.269 16.6405 219.346 17.0608 219.843 17.5957L233.655 32.5549C234.381 33.3573 234.993 34.0069 235.49 34.5036C236.024 34.9622 236.617 35.3634 237.266 35.7073C237.916 36.0129 238.756 36.2804 239.788 36.5097C240.361 36.6625 240.82 36.8154 241.164 36.9682C241.508 37.0828 241.68 37.293 241.68 37.5987C241.68 37.8279 241.508 37.9999 241.164 38.1145C240.82 38.2673 240.361 38.3438 239.788 38.3438C238.68 38.3438 237.667 38.3055 236.75 38.2291C235.833 38.1909 234.935 38.1336 234.057 38.0572C233.178 38.019 232.165 37.9999 231.019 37.9999C230.102 37.9999 229.28 38.019 228.554 38.0572C227.828 38.1336 226.816 38.1718 225.517 38.1718C225.096 38.1718 224.733 38.1145 224.428 37.9999C224.16 37.8852 224.027 37.6942 224.027 37.4267C224.027 36.9682 224.504 36.6243 225.459 36.395C226.682 36.1276 227.293 35.6882 227.293 35.0768C227.293 34.8475 227.198 34.6183 227.007 34.389C226.854 34.1216 226.663 33.835 226.434 33.5293L215.257 20.9773C215.028 20.7481 214.78 20.5379 214.512 20.3468C214.283 20.1558 214.092 20.0603 213.939 20.0603C213.786 20.0603 213.691 20.194 213.653 20.4615C213.614 20.6907 213.595 20.92 213.595 21.1493C213.595 22.9451 213.614 24.6646 213.653 26.3076C213.691 27.9506 213.748 29.8229 213.824 31.9245C213.863 32.7269 213.977 33.4338 214.168 34.0451C214.359 34.6565 214.703 35.1723 215.2 35.5926C215.697 35.9747 216.423 36.2804 217.378 36.5097C217.951 36.6243 218.391 36.758 218.696 36.9109C219.002 37.0637 219.155 37.293 219.155 37.5987C219.155 37.8279 218.983 37.9999 218.639 38.1145C218.333 38.2673 217.951 38.3438 217.493 38.3438C216.423 38.3438 215.544 38.3055 214.856 38.2291C214.207 38.1527 213.595 38.0763 213.022 37.9999C212.487 37.9234 211.857 37.8852 211.131 37.8852C210.252 37.8852 209.449 37.9234 208.723 37.9999C208.036 38.0763 207.291 38.1527 206.488 38.2291C205.724 38.3055 204.788 38.3438 203.68 38.3438Z" fill="white"/>
<path d="M163.761 38.8595C161.086 38.8595 158.545 38.401 156.138 37.4839C153.769 36.5669 151.648 35.2677 149.776 33.5865C147.942 31.9053 146.49 29.9184 145.42 27.6258C144.35 25.3332 143.815 22.8495 143.815 20.1748C143.815 17.4237 144.35 14.8254 145.42 12.38C146.49 9.93453 147.999 7.79477 149.948 5.9607C151.897 4.12662 154.151 2.69374 156.711 1.66207C159.31 0.59219 162.118 0.057251 165.137 0.057251C165.824 0.057251 166.703 0.114566 167.773 0.229197C168.881 0.343828 170.027 0.496668 171.212 0.687718C172.397 0.878767 173.466 1.08892 174.422 1.31818C175.415 1.54744 176.141 1.7767 176.6 2.00596C176.829 2.08238 177.001 2.19701 177.115 2.34985C177.23 2.46448 177.306 2.65553 177.345 2.923C177.498 4.10751 177.631 5.27291 177.746 6.41921C177.861 7.5273 177.918 8.46345 177.918 9.22765C177.918 9.53333 177.822 9.8008 177.631 10.0301C177.478 10.2593 177.287 10.3739 177.058 10.3739C176.638 10.3739 176.332 10.2211 176.141 9.91543C175.95 9.60975 175.778 9.28496 175.625 8.94107C175.358 8.2915 175.071 7.69925 174.766 7.16431C174.46 6.59116 174.04 6.01801 173.505 5.44486C173.199 5.06276 172.683 4.66155 171.957 4.24124C171.269 3.78272 170.352 3.38152 169.206 3.03763C168.098 2.69374 166.722 2.5218 165.079 2.5218C162.901 2.5218 160.934 2.98032 159.176 3.89736C157.418 4.77619 155.928 5.99891 154.705 7.56552C153.483 9.13212 152.546 10.9089 151.897 12.8958C151.247 14.8827 150.922 16.9652 150.922 19.1431C150.922 21.8178 151.266 24.2251 151.954 26.3648C152.68 28.5046 153.654 30.3196 154.877 31.8097C156.138 33.2999 157.609 34.4462 159.29 35.2486C160.972 36.0128 162.748 36.3949 164.621 36.3949C166.417 36.3949 167.754 36.1657 168.633 35.7072C169.55 35.2486 170.18 34.8665 170.524 34.5609C170.945 34.1788 171.308 33.6247 171.613 32.8987C171.957 32.1345 172.129 31.2939 172.129 30.3769C172.129 30.033 172.129 29.6318 172.129 29.1733C172.167 28.7147 172.186 28.2562 172.186 27.7977C172.225 27.301 172.244 26.8807 172.244 26.5368C172.244 26.1165 172.186 25.7535 172.072 25.4478C171.995 25.1421 171.842 24.8937 171.613 24.7027C171.269 24.3588 170.773 24.0913 170.123 23.9003C169.473 23.671 168.824 23.4991 168.174 23.3844C167.563 23.2698 167.066 23.1934 166.684 23.1552C166.455 23.1552 166.187 23.0597 165.882 22.8686C165.576 22.6394 165.423 22.3719 165.423 22.0662C165.423 21.7987 165.576 21.5886 165.882 21.4357C166.187 21.2447 166.436 21.1492 166.627 21.1492C167.544 21.1492 168.404 21.1683 169.206 21.2065C170.047 21.2447 170.887 21.2829 171.728 21.3211C172.568 21.3593 173.466 21.3784 174.422 21.3784C175.415 21.3784 176.351 21.3402 177.23 21.2638C178.147 21.1874 179.141 21.1492 180.21 21.1492C180.402 21.1492 180.631 21.2256 180.898 21.3784C181.166 21.4931 181.299 21.7223 181.299 22.0662C181.299 22.3719 181.147 22.6202 180.841 22.8113C180.573 23.0023 180.344 23.117 180.153 23.1552C179.236 23.4227 178.587 23.7665 178.204 24.1869C177.861 24.6072 177.631 25.1994 177.517 25.9636C177.402 26.8042 177.326 27.5493 177.287 28.1989C177.249 28.8485 177.23 29.5363 177.23 30.2622V31.9244C177.23 32.1154 177.268 32.2874 177.345 32.4402C177.459 32.5548 177.574 32.7077 177.689 32.8987C177.803 33.0898 177.937 33.2808 178.09 33.4719C178.281 33.6247 178.376 33.7967 178.376 33.9877C178.376 34.1406 178.319 34.3507 178.204 34.6182C178.128 34.8474 177.88 35.0003 177.459 35.0767C177.192 35.1149 176.657 35.3442 175.855 35.7645C175.09 36.1466 174.116 36.586 172.931 37.0827C171.785 37.5412 170.429 37.9425 168.862 38.2863C167.334 38.6684 165.633 38.8595 163.761 38.8595Z" fill="white"/>
<path d="M131.788 39.0888C131.405 39.0888 130.679 38.7831 129.61 38.1718C128.578 37.5986 127.565 36.6434 126.572 35.306C126.152 34.8475 125.502 34.1215 124.623 33.128C123.783 32.0964 122.77 30.9119 121.585 29.5745C120.439 28.2372 119.197 26.8043 117.86 25.2759C116.561 23.7475 115.243 22.2382 113.905 20.748C112.606 19.2196 111.364 17.7867 110.18 16.4494C109.034 15.112 108.002 13.9275 107.085 12.8959C106.206 11.8642 105.537 11.1191 105.079 10.6606C104.888 10.3931 104.697 10.1829 104.506 10.0301C104.353 9.87726 104.2 9.80084 104.047 9.80084C103.894 9.80084 103.78 9.95368 103.703 10.2594C103.627 10.5268 103.589 10.7752 103.589 11.0045C103.55 12.8385 103.531 14.9592 103.531 17.3664C103.531 19.7737 103.512 22.2573 103.474 24.8174C103.474 27.3392 103.474 29.7082 103.474 31.9244C103.474 33.0325 103.78 34.0069 104.391 34.8475C105.002 35.6499 106.034 36.2039 107.486 36.5096C108.021 36.6243 108.441 36.758 108.747 36.9108C109.091 37.0637 109.263 37.2929 109.263 37.5986C109.263 37.8279 109.11 37.9998 108.804 38.1144C108.499 38.2291 108.116 38.2864 107.658 38.2864C106.626 38.2864 105.824 38.2482 105.251 38.1718C104.716 38.1335 104.219 38.0953 103.761 38.0571C103.302 38.0571 102.691 38.0571 101.926 38.0571C101.2 38.0571 100.57 38.0762 100.035 38.1144C99.5383 38.1526 99.0416 38.1909 98.5449 38.2291C98.0481 38.2673 97.4368 38.2864 96.7108 38.2864C96.2905 38.2864 95.9084 38.2291 95.5645 38.1144C95.2588 38.038 95.106 37.8661 95.106 37.5986C95.106 37.3311 95.2588 37.121 95.5645 36.9681C95.8702 36.7771 96.3096 36.6051 96.8827 36.4523C97.9144 36.1466 98.6786 35.5926 99.1753 34.7902C99.6721 33.9496 99.9586 32.9561 100.035 31.8098C100.188 30.3578 100.341 28.4473 100.494 26.0783C100.685 23.7093 100.837 21.0537 100.952 18.1115C101.067 15.1693 101.124 12.1317 101.124 8.99844C101.124 6.97331 100.608 5.52133 99.5765 4.6425C98.5449 3.76367 97.2266 3.05678 95.6218 2.52184C95.4307 2.44542 95.0869 2.29258 94.5901 2.06332C94.1316 1.83406 93.9023 1.54749 93.9023 1.2036C93.9023 0.85971 94.0743 0.630449 94.4182 0.515819C94.7621 0.401188 95.0486 0.343872 95.2779 0.343872C96.2714 0.382084 97.1311 0.420294 97.8571 0.458504C98.6213 0.458504 99.3473 0.477609 100.035 0.515819C100.723 0.554028 101.449 0.592237 102.213 0.630447C102.977 0.630447 103.875 0.630447 104.907 0.630447C105.251 0.630447 105.518 0.725973 105.709 0.917025C105.9 1.06986 106.072 1.26091 106.225 1.49017C106.645 1.9869 107.295 2.77021 108.174 3.84009C109.091 4.90997 110.142 6.1709 111.326 7.62288C112.549 9.07485 113.848 10.6224 115.224 12.2654C116.599 13.8702 117.975 15.4941 119.35 17.1372C120.726 18.7802 122.025 20.3277 123.248 21.7797C124.47 23.2317 125.521 24.4926 126.4 25.5625C127.317 26.5941 127.967 27.3392 128.349 27.7977C128.502 27.9506 128.693 28.1607 128.922 28.4282C129.189 28.6957 129.419 28.8294 129.61 28.8294C129.953 28.8294 130.145 28.4664 130.183 27.7404C130.183 26.9762 130.183 25.8299 130.183 24.3015C130.183 22.7731 130.183 20.9964 130.183 18.9712C130.221 16.9461 130.24 14.8255 130.24 12.6093C130.24 10.3549 130.221 8.1196 130.183 5.90342C130.145 5.06281 129.743 4.35592 128.979 3.78277C128.215 3.17141 127.393 2.77021 126.515 2.57916C125.98 2.50274 125.483 2.369 125.024 2.17795C124.566 1.9869 124.337 1.73854 124.337 1.43286C124.337 1.2036 124.566 1.03165 125.024 0.917025C125.483 0.802394 125.922 0.745079 126.343 0.745079C126.916 0.745079 127.413 0.745079 127.833 0.745079C128.291 0.745079 128.731 0.745079 129.151 0.745079C129.571 0.745079 129.992 0.745079 130.412 0.745079C131.291 0.745079 131.998 0.745079 132.533 0.745079C133.068 0.706869 133.641 0.668659 134.252 0.630447C134.902 0.592237 135.781 0.573133 136.889 0.573133C137.347 0.573133 137.71 0.630448 137.978 0.745079C138.283 0.85971 138.436 1.05076 138.436 1.31823C138.436 1.85317 137.844 2.23527 136.659 2.46453C135.284 2.732 134.348 3.09499 133.851 3.55351C133.354 3.97382 133.087 4.68071 133.048 5.67417C133.048 6.28553 133.029 7.29809 132.991 8.71186C132.953 10.0874 132.915 11.7113 132.877 13.5836C132.877 15.4559 132.857 17.4237 132.819 19.4871C132.781 21.5504 132.762 23.5755 132.762 25.5625C132.762 27.5494 132.762 29.3452 132.762 30.9501C132.762 31.8671 132.8 32.765 132.877 33.6439C132.953 34.4845 133.01 35.2296 133.048 35.8792C133.125 36.4905 133.163 36.949 133.163 37.2547C133.163 37.9807 133.029 38.4583 132.762 38.6876C132.494 38.9551 132.17 39.0888 131.788 39.0888Z" fill="white"/>
<path d="M68.5857 38.8596C66.0256 38.8596 63.5801 38.4201 61.2493 37.5413C58.9567 36.6243 56.9125 35.3442 55.1166 33.7012C53.3208 32.02 51.8879 30.033 50.818 27.7404C49.7863 25.4096 49.2705 22.8305 49.2705 20.0029C49.2705 17.4046 49.6908 14.921 50.5314 12.552C51.4103 10.1448 52.6712 8.00499 54.3142 6.1327C55.9955 4.26041 58.0779 2.77022 60.5616 1.66213C63.0452 0.554045 65.8919 0 69.1015 0C71.6998 0 74.1452 0.45852 76.4378 1.37556C78.7686 2.25439 80.832 3.53442 82.6278 5.21566C84.4237 6.85869 85.8375 8.84561 86.8691 11.1764C87.939 13.469 88.474 16.0291 88.474 18.8566C88.474 21.4167 88.0345 23.9003 87.1557 26.3076C86.3151 28.7148 85.0542 30.8546 83.3729 32.7269C81.7299 34.5991 79.6666 36.0893 77.1829 37.1974C74.6993 38.3055 71.8335 38.8596 68.5857 38.8596ZM69.5027 36.4523C72.1774 36.4523 74.3936 35.841 76.1512 34.6182C77.9471 33.3573 79.2845 31.6188 80.1633 29.4026C81.0803 27.1864 81.5388 24.6263 81.5388 21.7224C81.5388 19.1623 81.2523 16.736 80.6791 14.4434C80.1442 12.1508 79.3227 10.1065 78.2146 8.31067C77.1065 6.47659 75.7118 5.06282 74.0306 4.06936C72.3493 3.03769 70.3815 2.52186 68.1271 2.52186C65.5289 2.52186 63.3318 3.13322 61.5359 4.35594C59.7783 5.57866 58.4409 7.279 57.5239 9.45697C56.645 11.6349 56.2056 14.1759 56.2056 17.0799C56.2056 19.6781 56.4731 22.1236 57.008 24.4162C57.543 26.7088 58.3645 28.7721 59.4726 30.6062C60.5807 32.4021 61.9562 33.8349 63.5993 34.9048C65.2805 35.9365 67.2483 36.4523 69.5027 36.4523Z" fill="white"/>
<path d="M1.43288 38.2864C1.01257 38.2864 0.668675 38.2099 0.401205 38.0571C0.133735 37.9425 0 37.7705 0 37.5413C0 37.0828 0.53494 36.7389 1.60482 36.5096C3.01859 36.2421 3.95474 35.8218 4.41326 35.2487C4.87178 34.6755 5.10104 33.7394 5.10104 32.4402V6.47656C5.10104 5.17742 4.92909 4.26038 4.5852 3.72544C4.24131 3.1905 3.36248 2.77019 1.94871 2.46451C0.84062 2.23525 0.286575 1.87226 0.286575 1.37553C0.286575 1.14627 0.401205 0.95522 0.630465 0.80238C0.897935 0.64954 1.26093 0.57312 1.71945 0.57312C2.71291 0.57312 3.55353 0.592225 4.24131 0.630434C4.92909 0.668646 5.57866 0.706857 6.19002 0.745066C6.83959 0.783276 7.54647 0.80238 8.31068 0.80238C9.11309 0.80238 9.83908 0.80238 10.4886 0.80238C11.1764 0.764171 11.8833 0.725961 12.6093 0.687752C13.3735 0.64954 14.2332 0.630434 15.1885 0.630434C16.1819 0.630434 16.6787 0.878799 16.6787 1.37553C16.6787 1.68121 16.5258 1.91047 16.2201 2.06331C15.9527 2.21615 15.5515 2.34988 15.0165 2.46451C13.5645 2.8084 12.552 3.28603 11.9788 3.89739C11.4439 4.50875 11.1764 5.36847 11.1764 6.47656V17.4237C11.1764 17.6912 11.2528 17.8631 11.4057 17.9396C11.5967 18.016 11.7878 18.0542 11.9788 18.0542H31.122C31.4659 18.0542 31.6379 17.8058 31.6379 17.3091V6.47656C31.6379 5.40668 31.3704 4.56606 30.8355 3.9547C30.3387 3.30513 29.3453 2.8084 27.8551 2.46451C27.2819 2.34988 26.8616 2.21615 26.5942 2.06331C26.3267 1.91047 26.193 1.68121 26.193 1.37553C26.193 0.878799 26.6706 0.630434 27.6258 0.630434C28.5811 0.630434 29.4599 0.64954 30.2623 0.687752C31.0647 0.725961 31.8289 0.764171 32.5549 0.80238C33.3191 0.80238 34.1024 0.80238 34.9048 0.80238C35.6308 0.80238 36.2613 0.783276 36.7962 0.745066C37.3694 0.706857 37.9616 0.668646 38.573 0.630434C39.2226 0.592225 40.0441 0.57312 41.0375 0.57312C41.4961 0.57312 41.8591 0.64954 42.1265 0.80238C42.394 0.95522 42.5277 1.14627 42.5277 1.37553C42.5277 1.87226 41.9737 2.23525 40.8656 2.46451C39.4518 2.77019 38.573 3.22871 38.2291 3.84008C37.8852 4.41322 37.7133 5.27295 37.7133 6.41925V32.3829C37.7133 33.7203 37.9043 34.6755 38.2864 35.2487C38.7067 35.8218 39.6047 36.2421 40.9802 36.5096C42.0501 36.7389 42.585 37.0828 42.585 37.5413C42.585 37.7705 42.4322 37.9425 42.1265 38.0571C41.8591 38.2099 41.5152 38.2864 41.0949 38.2864C40.1778 38.2864 39.3563 38.2482 38.6303 38.1717C37.9425 38.1335 37.2739 38.0953 36.6243 38.0571C35.9747 38.0189 35.2678 37.9998 34.5036 37.9998C33.7012 37.9998 32.9561 38.0189 32.2683 38.0571C31.6188 38.0953 30.9119 38.1335 30.1477 38.1717C29.3835 38.2482 28.5238 38.2864 27.5685 38.2864C27.11 38.2864 26.747 38.2099 26.4795 38.0571C26.2503 37.9425 26.1356 37.7705 26.1356 37.5413C26.1356 37.2356 26.2503 37.0254 26.4795 36.9108C26.747 36.758 27.1673 36.6242 27.7405 36.5096C29.0396 36.2421 30.014 35.8027 30.6635 35.1914C31.3131 34.58 31.6379 33.6821 31.6379 32.4976V21.4358C31.6379 21.2065 31.6188 21.0155 31.5806 20.8626C31.5424 20.6716 31.4086 20.576 31.1794 20.576H11.6349C11.3293 20.576 11.1764 20.8053 11.1764 21.2638V32.0964C11.1764 33.2427 11.5585 34.1979 12.3227 34.9621C13.0869 35.7263 14.1377 36.2421 15.4751 36.5096C16.0482 36.6242 16.4685 36.758 16.736 36.9108C17.0034 37.0254 17.1372 37.2356 17.1372 37.5413C17.1372 37.7705 17.0034 37.9425 16.736 38.0571C16.4685 38.2099 16.1055 38.2864 15.647 38.2864C14.6917 38.2864 13.8129 38.2482 13.0105 38.1717C12.2081 38.1335 11.4248 38.0953 10.6606 38.0571C9.9346 38.0189 9.1513 37.9998 8.31068 37.9998C7.54647 37.9998 6.82049 38.0189 6.13271 38.0571C5.44492 38.0953 4.71894 38.1335 3.95474 38.1717C3.22874 38.2482 2.38812 38.2864 1.43288 38.2864Z" fill="white"/>
</svg>
